<?xml version="1.0" encoding="UTF-8"?>
<!DOCTYPE svg PUBLIC "-//W3C//DTD SVG 1.1//EN" "http://www.w3.org/Graphics/SVG/1.1/DTD/svg11.dtd">
<svg version="1.2" width="254mm" height="142.88mm" viewBox="0 0 25400 14288" preserveAspectRatio="xMidYMid" fill-rule="evenodd" stroke-width="28.222" stroke-linejoin="round" xmlns="http://www.w3.org/2000/svg" xmlns:ooo="http://xml.openoffice.org/svg/export" xmlns:xlink="http://www.w3.org/1999/xlink" xmlns:presentation="http://sun.com/xmlns/staroffice/presentation" xmlns:smil="http://www.w3.org/2001/SMIL20/" xmlns:anim="urn:oasis:names:tc:opendocument:xmlns:animation:1.0" xml:space="preserve">
 <defs class="ClipPathGroup">
  <clipPath id="presentation_clip_path" clipPathUnits="userSpaceOnUse">
   <rect x="0" y="0" width="25400" height="14288"/>
  </clipPath>
  <clipPath id="presentation_clip_path_shrink" clipPathUnits="userSpaceOnUse">
   <rect x="25" y="14" width="25350" height="14260"/>
  </clipPath>
 </defs>
 <defs class="TextShapeIndex">
  <g ooo:slide="id1" ooo:id-list="id3 id4 id5 id6 id7 id8 id9 id10 id11 id12 id13 id14 id15 id16 id17 id18 id19 id20 id21 id22 id23 id24 id25 id26"/>
 </defs>
 <defs class="EmbeddedBulletChars">
  <g id="bullet-char-template-57356" transform="scale(0.00048828125,-0.00048828125)">
   <path d="M 580,1141 L 1163,571 580,0 -4,571 580,1141 Z"/>
  </g>
  <g id="bullet-char-template-57354" transform="scale(0.00048828125,-0.00048828125)">
   <path d="M 8,1128 L 1137,1128 1137,0 8,0 8,1128 Z"/>
  </g>
  <g id="bullet-char-template-10146" transform="scale(0.00048828125,-0.00048828125)">
   <path d="M 174,0 L 602,739 174,1481 1456,739 174,0 Z M 1358,739 L 309,1346 659,739 1358,739 Z"/>
  </g>
  <g id="bullet-char-template-10132" transform="scale(0.00048828125,-0.00048828125)">
   <path d="M 2015,739 L 1276,0 717,0 1260,543 174,543 174,936 1260,936 717,1481 1274,1481 2015,739 Z"/>
  </g>
  <g id="bullet-char-template-10007" transform="scale(0.00048828125,-0.00048828125)">
   <path d="M 0,-2 C -7,14 -16,27 -25,37 L 356,567 C 262,823 215,952 215,954 215,979 228,992 255,992 264,992 276,990 289,987 310,991 331,999 354,1012 L 381,999 492,748 772,1049 836,1024 860,1049 C 881,1039 901,1025 922,1006 886,937 835,863 770,784 769,783 710,716 594,584 L 774,223 C 774,196 753,168 711,139 L 727,119 C 717,90 699,76 672,76 641,76 570,178 457,381 L 164,-76 C 142,-110 111,-127 72,-127 30,-127 9,-110 8,-76 1,-67 -2,-52 -2,-32 -2,-23 -1,-13 0,-2 Z"/>
  </g>
  <g id="bullet-char-template-10004" transform="scale(0.00048828125,-0.00048828125)">
   <path d="M 285,-33 C 182,-33 111,30 74,156 52,228 41,333 41,471 41,549 55,616 82,672 116,743 169,778 240,778 293,778 328,747 346,684 L 369,508 C 377,444 397,411 428,410 L 1163,1116 C 1174,1127 1196,1133 1229,1133 1271,1133 1292,1118 1292,1087 L 1292,965 C 1292,929 1282,901 1262,881 L 442,47 C 390,-6 338,-33 285,-33 Z"/>
  </g>
  <g id="bullet-char-template-9679" transform="scale(0.00048828125,-0.00048828125)">
   <path d="M 813,0 C 632,0 489,54 383,161 276,268 223,411 223,592 223,773 276,916 383,1023 489,1130 632,1184 813,1184 992,1184 1136,1130 1245,1023 1353,916 1407,772 1407,592 1407,412 1353,268 1245,161 1136,54 992,0 813,0 Z"/>
  </g>
  <g id="bullet-char-template-8226" transform="scale(0.00048828125,-0.00048828125)">
   <path d="M 346,457 C 273,457 209,483 155,535 101,586 74,649 74,723 74,796 101,859 155,911 209,963 273,989 346,989 419,989 480,963 531,910 582,859 608,796 608,723 608,648 583,586 532,535 482,483 420,457 346,457 Z"/>
  </g>
  <g id="bullet-char-template-8211" transform="scale(0.00048828125,-0.00048828125)">
   <path d="M -4,459 L 1135,459 1135,606 -4,606 -4,459 Z"/>
  </g>
  <g id="bullet-char-template-61548" transform="scale(0.00048828125,-0.00048828125)">
   <path d="M 173,740 C 173,903 231,1043 346,1159 462,1274 601,1332 765,1332 928,1332 1067,1274 1183,1159 1299,1043 1357,903 1357,740 1357,577 1299,437 1183,322 1067,206 928,148 765,148 601,148 462,206 346,322 231,437 173,577 173,740 Z"/>
  </g>
 </defs>
 <g>
  <g id="id2" class="Master_Slide">
   <g id="bg-id2" class="Background"/>
   <g id="bo-id2" class="BackgroundObjects"/>
  </g>
 </g>
 <g class="SlideGroup">
  <g>
   <g id="container-id1">
    <g id="id1" class="Slide" clip-path="url(#presentation_clip_path)">
     <g class="Page">
      <g class="Group">
       <g class="com.sun.star.drawing.ClosedBezierShape">
        <g id="id3">
         <rect class="BoundingBox" stroke="none" fill="none" x="7758" y="2340" width="2874" height="2273"/>
         <path fill="rgb(0,0,0)" stroke="none" d="M 7759,4611 C 7759,3854 7759,3098 7759,2341 8716,2341 9673,2341 10630,2341 10630,3098 10630,3854 10630,4611 9673,4611 8716,4611 7759,4611 Z"/>
         <path fill="none" stroke="rgb(0,0,0)" d="M 7759,4611 L 7759,2341 10630,2341 10630,4611 7759,4611 Z"/>
        </g>
       </g>
       <g class="com.sun.star.drawing.ClosedBezierShape">
        <g id="id4">
         <rect class="BoundingBox" stroke="none" fill="none" x="7758" y="2340" width="578" height="571"/>
         <path fill="rgb(255,255,255)" stroke="none" d="M 8046,2341 C 8209,2341 8333,2464 8333,2625 8333,2785 8209,2908 8046,2908 7883,2908 7759,2785 7759,2625 7759,2464 7883,2341 8046,2341 Z M 7759,2341 L 7759,2341 Z M 8334,2909 L 8334,2909 Z"/>
         <path fill="none" stroke="rgb(0,0,0)" d="M 8046,2341 C 8209,2341 8333,2464 8333,2625 8333,2785 8209,2908 8046,2908 7883,2908 7759,2785 7759,2625 7759,2464 7883,2341 8046,2341 Z"/>
         <path fill="none" stroke="rgb(0,0,0)" d="M 7759,2341 L 7759,2341 Z"/>
         <path fill="none" stroke="rgb(0,0,0)" d="M 8334,2909 L 8334,2909 Z"/>
        </g>
       </g>
       <g class="com.sun.star.drawing.ClosedBezierShape">
        <g id="id5">
         <rect class="BoundingBox" stroke="none" fill="none" x="8331" y="2340" width="578" height="571"/>
         <path fill="rgb(255,255,255)" stroke="none" d="M 8619,2341 C 8782,2341 8907,2464 8907,2625 8907,2785 8782,2908 8619,2908 8456,2908 8332,2785 8332,2625 8332,2464 8456,2341 8619,2341 Z M 8332,2341 L 8332,2341 Z M 8907,2909 L 8907,2909 Z"/>
         <path fill="none" stroke="rgb(0,0,0)" d="M 8619,2341 C 8782,2341 8907,2464 8907,2625 8907,2785 8782,2908 8619,2908 8456,2908 8332,2785 8332,2625 8332,2464 8456,2341 8619,2341 Z"/>
         <path fill="none" stroke="rgb(0,0,0)" d="M 8332,2341 L 8332,2341 Z"/>
         <path fill="none" stroke="rgb(0,0,0)" d="M 8907,2909 L 8907,2909 Z"/>
        </g>
       </g>
       <g class="com.sun.star.drawing.ClosedBezierShape">
        <g id="id6">
         <rect class="BoundingBox" stroke="none" fill="none" x="8906" y="2340" width="578" height="571"/>
         <path fill="rgb(255,255,255)" stroke="none" d="M 9194,2341 C 9357,2341 9481,2464 9481,2625 9481,2785 9357,2908 9194,2908 9031,2908 8907,2785 8907,2625 8907,2464 9031,2341 9194,2341 Z M 8907,2341 L 8907,2341 Z M 9482,2909 L 9482,2909 Z"/>
         <path fill="none" stroke="rgb(0,0,0)" d="M 9194,2341 C 9357,2341 9481,2464 9481,2625 9481,2785 9357,2908 9194,2908 9031,2908 8907,2785 8907,2625 8907,2464 9031,2341 9194,2341 Z"/>
         <path fill="none" stroke="rgb(0,0,0)" d="M 8907,2341 L 8907,2341 Z"/>
         <path fill="none" stroke="rgb(0,0,0)" d="M 9482,2909 L 9482,2909 Z"/>
        </g>
       </g>
       <g class="com.sun.star.drawing.ClosedBezierShape">
        <g id="id7">
         <rect class="BoundingBox" stroke="none" fill="none" x="9480" y="2340" width="578" height="571"/>
         <path fill="rgb(255,255,255)" stroke="none" d="M 9768,2341 C 9931,2341 10055,2464 10055,2625 10055,2785 9931,2908 9768,2908 9605,2908 9481,2785 9481,2625 9481,2464 9605,2341 9768,2341 Z M 9481,2341 L 9481,2341 Z M 10056,2909 L 10056,2909 Z"/>
         <path fill="none" stroke="rgb(0,0,0)" d="M 9768,2341 C 9931,2341 10055,2464 10055,2625 10055,2785 9931,2908 9768,2908 9605,2908 9481,2785 9481,2625 9481,2464 9605,2341 9768,2341 Z"/>
         <path fill="none" stroke="rgb(0,0,0)" d="M 9481,2341 L 9481,2341 Z"/>
         <path fill="none" stroke="rgb(0,0,0)" d="M 10056,2909 L 10056,2909 Z"/>
        </g>
       </g>
       <g class="com.sun.star.drawing.ClosedBezierShape">
        <g id="id8">
         <rect class="BoundingBox" stroke="none" fill="none" x="10054" y="2340" width="578" height="571"/>
         <path fill="rgb(255,255,255)" stroke="none" d="M 10342,2341 C 10505,2341 10630,2464 10630,2625 10630,2785 10505,2908 10342,2908 10179,2908 10055,2785 10055,2625 10055,2464 10179,2341 10342,2341 Z M 10055,2341 L 10055,2341 Z M 10630,2909 L 10630,2909 Z"/>
         <path fill="none" stroke="rgb(0,0,0)" d="M 10342,2341 C 10505,2341 10630,2464 10630,2625 10630,2785 10505,2908 10342,2908 10179,2908 10055,2785 10055,2625 10055,2464 10179,2341 10342,2341 Z"/>
         <path fill="none" stroke="rgb(0,0,0)" d="M 10055,2341 L 10055,2341 Z"/>
         <path fill="none" stroke="rgb(0,0,0)" d="M 10630,2909 L 10630,2909 Z"/>
        </g>
       </g>
       <g class="Group">
        <g class="com.sun.star.drawing.ClosedBezierShape">
         <g id="id9">
          <rect class="BoundingBox" stroke="none" fill="none" x="9480" y="2907" width="578" height="571"/>
          <path fill="rgb(0,102,179)" stroke="none" d="M 9768,2908 C 9931,2908 10055,3031 10055,3192 10055,3352 9931,3476 9768,3476 9605,3476 9481,3352 9481,3192 9481,3031 9605,2908 9768,2908 Z M 9481,2908 L 9481,2908 Z M 10056,3476 L 10056,3476 Z"/>
          <path fill="none" stroke="rgb(0,0,0)" d="M 9768,2908 C 9931,2908 10055,3031 10055,3192 10055,3352 9931,3476 9768,3476 9605,3476 9481,3352 9481,3192 9481,3031 9605,2908 9768,2908 Z"/>
          <path fill="none" stroke="rgb(0,0,0)" d="M 9481,2908 L 9481,2908 Z"/>
          <path fill="none" stroke="rgb(0,0,0)" d="M 10056,3476 L 10056,3476 Z"/>
         </g>
        </g>
        <g class="com.sun.star.drawing.ClosedBezierShape">
         <g id="id10">
          <rect class="BoundingBox" stroke="none" fill="none" x="9700" y="3069" width="150" height="248"/>
          <path fill="rgb(255,255,255)" stroke="none" d="M 9700,3315 C 9700,3303 9700,3291 9700,3279 9718,3279 9736,3279 9754,3279 9754,3223 9754,3167 9754,3111 9737,3123 9719,3135 9702,3148 9702,3135 9702,3122 9702,3109 9720,3096 9738,3082 9757,3069 9771,3069 9784,3069 9798,3069 9798,3139 9798,3209 9798,3279 9815,3279 9832,3279 9849,3279 9849,3291 9849,3303 9849,3315 9799,3315 9750,3315 9700,3315 Z"/>
         </g>
        </g>
       </g>
       <g class="com.sun.star.drawing.ClosedBezierShape">
        <g id="id11">
         <rect class="BoundingBox" stroke="none" fill="none" x="8331" y="2907" width="578" height="571"/>
         <path fill="rgb(0,102,179)" stroke="none" d="M 8619,2908 C 8782,2908 8907,3031 8907,3192 8907,3352 8782,3476 8619,3476 8456,3476 8332,3352 8332,3192 8332,3031 8456,2908 8619,2908 Z M 8332,2908 L 8332,2908 Z M 8907,3476 L 8907,3476 Z"/>
         <path fill="none" stroke="rgb(0,0,0)" d="M 8619,2908 C 8782,2908 8907,3031 8907,3192 8907,3352 8782,3476 8619,3476 8456,3476 8332,3352 8332,3192 8332,3031 8456,2908 8619,2908 Z"/>
         <path fill="none" stroke="rgb(0,0,0)" d="M 8332,2908 L 8332,2908 Z"/>
         <path fill="none" stroke="rgb(0,0,0)" d="M 8907,3476 L 8907,3476 Z"/>
        </g>
       </g>
       <g class="com.sun.star.drawing.ClosedBezierShape">
        <g id="id12">
         <rect class="BoundingBox" stroke="none" fill="none" x="8906" y="2907" width="578" height="571"/>
         <path fill="rgb(0,102,179)" stroke="none" d="M 9194,2908 C 9357,2908 9481,3031 9481,3192 9481,3352 9357,3476 9194,3476 9031,3476 8907,3352 8907,3192 8907,3031 9031,2908 9194,2908 Z M 8907,2908 L 8907,2908 Z M 9482,3476 L 9482,3476 Z"/>
         <path fill="none" stroke="rgb(0,0,0)" d="M 9194,2908 C 9357,2908 9481,3031 9481,3192 9481,3352 9357,3476 9194,3476 9031,3476 8907,3352 8907,3192 8907,3031 9031,2908 9194,2908 Z"/>
         <path fill="none" stroke="rgb(0,0,0)" d="M 8907,2908 L 8907,2908 Z"/>
         <path fill="none" stroke="rgb(0,0,0)" d="M 9482,3476 L 9482,3476 Z"/>
        </g>
       </g>
       <g class="com.sun.star.drawing.ClosedBezierShape">
        <g id="id13">
         <rect class="BoundingBox" stroke="none" fill="none" x="7758" y="2907" width="578" height="571"/>
         <path fill="rgb(0,102,179)" stroke="none" d="M 8046,2908 C 8209,2908 8333,3031 8333,3192 8333,3352 8209,3476 8046,3476 7883,3476 7759,3352 7759,3192 7759,3031 7883,2908 8046,2908 Z M 7759,2908 L 7759,2908 Z M 8334,3476 L 8334,3476 Z"/>
         <path fill="none" stroke="rgb(0,0,0)" d="M 8046,2908 C 8209,2908 8333,3031 8333,3192 8333,3352 8209,3476 8046,3476 7883,3476 7759,3352 7759,3192 7759,3031 7883,2908 8046,2908 Z"/>
         <path fill="none" stroke="rgb(0,0,0)" d="M 7759,2908 L 7759,2908 Z"/>
         <path fill="none" stroke="rgb(0,0,0)" d="M 8334,3476 L 8334,3476 Z"/>
        </g>
       </g>
       <g class="com.sun.star.drawing.ClosedBezierShape">
        <g id="id14">
         <rect class="BoundingBox" stroke="none" fill="none" x="10054" y="2907" width="578" height="571"/>
         <path fill="rgb(0,102,179)" stroke="none" d="M 10342,2908 C 10505,2908 10630,3031 10630,3192 10630,3352 10505,3476 10342,3476 10179,3476 10055,3352 10055,3192 10055,3031 10179,2908 10342,2908 Z M 10055,2908 L 10055,2908 Z M 10630,3476 L 10630,3476 Z"/>
         <path fill="none" stroke="rgb(0,0,0)" d="M 10342,2908 C 10505,2908 10630,3031 10630,3192 10630,3352 10505,3476 10342,3476 10179,3476 10055,3352 10055,3192 10055,3031 10179,2908 10342,2908 Z"/>
         <path fill="none" stroke="rgb(0,0,0)" d="M 10055,2908 L 10055,2908 Z"/>
         <path fill="none" stroke="rgb(0,0,0)" d="M 10630,3476 L 10630,3476 Z"/>
        </g>
       </g>
       <g class="com.sun.star.drawing.ClosedBezierShape">
        <g id="id15">
         <rect class="BoundingBox" stroke="none" fill="none" x="7758" y="3475" width="578" height="571"/>
         <path fill="rgb(0,102,179)" stroke="none" d="M 8046,3476 C 8209,3476 8333,3599 8333,3760 8333,3920 8209,4043 8046,4043 7883,4043 7759,3920 7759,3760 7759,3599 7883,3476 8046,3476 Z M 7759,3476 L 7759,3476 Z M 8334,4044 L 8334,4044 Z"/>
         <path fill="none" stroke="rgb(0,0,0)" d="M 8046,3476 C 8209,3476 8333,3599 8333,3760 8333,3920 8209,4043 8046,4043 7883,4043 7759,3920 7759,3760 7759,3599 7883,3476 8046,3476 Z"/>
         <path fill="none" stroke="rgb(0,0,0)" d="M 7759,3476 L 7759,3476 Z"/>
         <path fill="none" stroke="rgb(0,0,0)" d="M 8334,4044 L 8334,4044 Z"/>
        </g>
       </g>
       <g class="com.sun.star.drawing.ClosedBezierShape">
        <g id="id16">
         <rect class="BoundingBox" stroke="none" fill="none" x="8331" y="3475" width="578" height="571"/>
         <path fill="rgb(0,102,179)" stroke="none" d="M 8619,3476 C 8782,3476 8907,3599 8907,3760 8907,3920 8782,4043 8619,4043 8456,4043 8332,3920 8332,3760 8332,3599 8456,3476 8619,3476 Z M 8332,3476 L 8332,3476 Z M 8907,4044 L 8907,4044 Z"/>
         <path fill="none" stroke="rgb(0,0,0)" d="M 8619,3476 C 8782,3476 8907,3599 8907,3760 8907,3920 8782,4043 8619,4043 8456,4043 8332,3920 8332,3760 8332,3599 8456,3476 8619,3476 Z"/>
         <path fill="none" stroke="rgb(0,0,0)" d="M 8332,3476 L 8332,3476 Z"/>
         <path fill="none" stroke="rgb(0,0,0)" d="M 8907,4044 L 8907,4044 Z"/>
        </g>
       </g>
       <g class="com.sun.star.drawing.ClosedBezierShape">
        <g id="id17">
         <rect class="BoundingBox" stroke="none" fill="none" x="8906" y="3475" width="578" height="571"/>
         <path fill="rgb(0,102,179)" stroke="none" d="M 9194,3476 C 9357,3476 9481,3599 9481,3760 9481,3920 9357,4043 9194,4043 9031,4043 8907,3920 8907,3760 8907,3599 9031,3476 9194,3476 Z M 8907,3476 L 8907,3476 Z M 9482,4044 L 9482,4044 Z"/>
         <path fill="none" stroke="rgb(0,0,0)" d="M 9194,3476 C 9357,3476 9481,3599 9481,3760 9481,3920 9357,4043 9194,4043 9031,4043 8907,3920 8907,3760 8907,3599 9031,3476 9194,3476 Z"/>
         <path fill="none" stroke="rgb(0,0,0)" d="M 8907,3476 L 8907,3476 Z"/>
         <path fill="none" stroke="rgb(0,0,0)" d="M 9482,4044 L 9482,4044 Z"/>
        </g>
       </g>
       <g class="com.sun.star.drawing.ClosedBezierShape">
        <g id="id18">
         <rect class="BoundingBox" stroke="none" fill="none" x="9480" y="3487" width="578" height="571"/>
         <path fill="rgb(0,102,179)" stroke="none" d="M 9768,3488 C 9931,3488 10055,3611 10055,3772 10055,3932 9931,4056 9768,4056 9605,4056 9481,3932 9481,3772 9481,3611 9605,3488 9768,3488 Z M 9481,3488 L 9481,3488 Z M 10056,4056 L 10056,4056 Z"/>
         <path fill="none" stroke="rgb(0,0,0)" d="M 9768,3488 C 9931,3488 10055,3611 10055,3772 10055,3932 9931,4056 9768,4056 9605,4056 9481,3932 9481,3772 9481,3611 9605,3488 9768,3488 Z"/>
         <path fill="none" stroke="rgb(0,0,0)" d="M 9481,3488 L 9481,3488 Z"/>
         <path fill="none" stroke="rgb(0,0,0)" d="M 10056,4056 L 10056,4056 Z"/>
        </g>
       </g>
       <g class="com.sun.star.drawing.ClosedBezierShape">
        <g id="id19">
         <rect class="BoundingBox" stroke="none" fill="none" x="10054" y="4043" width="578" height="571"/>
         <path fill="rgb(0,102,179)" stroke="none" d="M 10342,4044 C 10505,4044 10630,4167 10630,4328 10630,4488 10505,4611 10342,4611 10179,4611 10055,4488 10055,4328 10055,4167 10179,4044 10342,4044 Z M 10055,4044 L 10055,4044 Z M 10630,4612 L 10630,4612 Z"/>
         <path fill="none" stroke="rgb(0,0,0)" d="M 10342,4044 C 10505,4044 10630,4167 10630,4328 10630,4488 10505,4611 10342,4611 10179,4611 10055,4488 10055,4328 10055,4167 10179,4044 10342,4044 Z"/>
         <path fill="none" stroke="rgb(0,0,0)" d="M 10055,4044 L 10055,4044 Z"/>
         <path fill="none" stroke="rgb(0,0,0)" d="M 10630,4612 L 10630,4612 Z"/>
        </g>
       </g>
       <g class="com.sun.star.drawing.ClosedBezierShape">
        <g id="id20">
         <rect class="BoundingBox" stroke="none" fill="none" x="7758" y="4043" width="578" height="571"/>
         <path fill="rgb(0,102,179)" stroke="none" d="M 8046,4044 C 8209,4044 8333,4167 8333,4328 8333,4488 8209,4611 8046,4611 7883,4611 7759,4488 7759,4328 7759,4167 7883,4044 8046,4044 Z M 7759,4044 L 7759,4044 Z M 8334,4612 L 8334,4612 Z"/>
         <path fill="none" stroke="rgb(0,0,0)" d="M 8046,4044 C 8209,4044 8333,4167 8333,4328 8333,4488 8209,4611 8046,4611 7883,4611 7759,4488 7759,4328 7759,4167 7883,4044 8046,4044 Z"/>
         <path fill="none" stroke="rgb(0,0,0)" d="M 7759,4044 L 7759,4044 Z"/>
         <path fill="none" stroke="rgb(0,0,0)" d="M 8334,4612 L 8334,4612 Z"/>
        </g>
       </g>
       <g class="com.sun.star.drawing.ClosedBezierShape">
        <g id="id21">
         <rect class="BoundingBox" stroke="none" fill="none" x="8331" y="4043" width="578" height="571"/>
         <path fill="rgb(0,102,179)" stroke="none" d="M 8619,4044 C 8782,4044 8907,4167 8907,4328 8907,4488 8782,4611 8619,4611 8456,4611 8332,4488 8332,4328 8332,4167 8456,4044 8619,4044 Z M 8332,4044 L 8332,4044 Z M 8907,4612 L 8907,4612 Z"/>
         <path fill="none" stroke="rgb(0,0,0)" d="M 8619,4044 C 8782,4044 8907,4167 8907,4328 8907,4488 8782,4611 8619,4611 8456,4611 8332,4488 8332,4328 8332,4167 8456,4044 8619,4044 Z"/>
         <path fill="none" stroke="rgb(0,0,0)" d="M 8332,4044 L 8332,4044 Z"/>
         <path fill="none" stroke="rgb(0,0,0)" d="M 8907,4612 L 8907,4612 Z"/>
        </g>
       </g>
       <g class="com.sun.star.drawing.ClosedBezierShape">
        <g id="id22">
         <rect class="BoundingBox" stroke="none" fill="none" x="8906" y="4043" width="578" height="571"/>
         <path fill="rgb(0,102,179)" stroke="none" d="M 9194,4044 C 9357,4044 9481,4167 9481,4328 9481,4488 9357,4611 9194,4611 9031,4611 8907,4488 8907,4328 8907,4167 9031,4044 9194,4044 Z M 8907,4044 L 8907,4044 Z M 9482,4612 L 9482,4612 Z"/>
         <path fill="none" stroke="rgb(0,0,0)" d="M 9194,4044 C 9357,4044 9481,4167 9481,4328 9481,4488 9357,4611 9194,4611 9031,4611 8907,4488 8907,4328 8907,4167 9031,4044 9194,4044 Z"/>
         <path fill="none" stroke="rgb(0,0,0)" d="M 8907,4044 L 8907,4044 Z"/>
         <path fill="none" stroke="rgb(0,0,0)" d="M 9482,4612 L 9482,4612 Z"/>
        </g>
       </g>
       <g class="com.sun.star.drawing.ClosedBezierShape">
        <g id="id23">
         <rect class="BoundingBox" stroke="none" fill="none" x="9480" y="4043" width="578" height="571"/>
         <path fill="rgb(0,102,179)" stroke="none" d="M 9768,4044 C 9931,4044 10055,4167 10055,4328 10055,4488 9931,4611 9768,4611 9605,4611 9481,4488 9481,4328 9481,4167 9605,4044 9768,4044 Z M 9481,4044 L 9481,4044 Z M 10056,4612 L 10056,4612 Z"/>
         <path fill="none" stroke="rgb(0,0,0)" d="M 9768,4044 C 9931,4044 10055,4167 10055,4328 10055,4488 9931,4611 9768,4611 9605,4611 9481,4488 9481,4328 9481,4167 9605,4044 9768,4044 Z"/>
         <path fill="none" stroke="rgb(0,0,0)" d="M 9481,4044 L 9481,4044 Z"/>
         <path fill="none" stroke="rgb(0,0,0)" d="M 10056,4612 L 10056,4612 Z"/>
        </g>
       </g>
       <g class="Group">
        <g class="com.sun.star.drawing.ClosedBezierShape">
         <g id="id24">
          <rect class="BoundingBox" stroke="none" fill="none" x="10054" y="3475" width="578" height="571"/>
          <path fill="rgb(0,102,179)" stroke="none" d="M 10342,3476 C 10505,3476 10630,3599 10630,3760 10630,3920 10505,4043 10342,4043 10179,4043 10055,3920 10055,3760 10055,3599 10179,3476 10342,3476 Z M 10055,3476 L 10055,3476 Z M 10630,4044 L 10630,4044 Z"/>
          <path fill="none" stroke="rgb(0,0,0)" d="M 10342,3476 C 10505,3476 10630,3599 10630,3760 10630,3920 10505,4043 10342,4043 10179,4043 10055,3920 10055,3760 10055,3599 10179,3476 10342,3476 Z"/>
          <path fill="none" stroke="rgb(0,0,0)" d="M 10055,3476 L 10055,3476 Z"/>
          <path fill="none" stroke="rgb(0,0,0)" d="M 10630,4044 L 10630,4044 Z"/>
         </g>
        </g>
        <g class="com.sun.star.drawing.ClosedBezierShape">
         <g id="id25">
          <rect class="BoundingBox" stroke="none" fill="none" x="10265" y="3633" width="155" height="251"/>
          <path fill="rgb(255,255,255)" stroke="none" d="M 10265,3883 L 10265,3849 C 10271,3835 10279,3821 10289,3808 10300,3794 10313,3780 10329,3766 10345,3752 10355,3740 10362,3731 10368,3722 10371,3713 10371,3704 10371,3683 10361,3672 10342,3672 10333,3672 10326,3675 10321,3681 10316,3686 10312,3695 10311,3706 L 10267,3703 C 10269,3680 10277,3663 10290,3651 10302,3639 10320,3633 10342,3633 10365,3633 10384,3639 10396,3651 10409,3663 10415,3680 10415,3702 10415,3714 10413,3724 10409,3734 10405,3743 10400,3752 10394,3759 10387,3767 10380,3775 10372,3782 10365,3788 10357,3795 10350,3802 10343,3808 10336,3815 10330,3821 10324,3828 10320,3835 10317,3843 L 10419,3843 10419,3883 10265,3883 Z"/>
         </g>
        </g>
       </g>
      </g>
      <g class="com.sun.star.drawing.OpenBezierShape">
       <g id="id26">
        <rect class="BoundingBox" stroke="none" fill="none" x="7183" y="3271" width="576" height="301"/>
        <path fill="none" stroke="rgb(0,0,0)" d="M 7184,3421 L 7328,3421"/>
        <path fill="rgb(0,0,0)" stroke="none" d="M 7758,3421 L 7308,3271 7308,3571 7758,3421 Z"/>
       </g>
      </g>
     </g>
    </g>
   </g>
  </g>
 </g>
</svg>