<?xml version="1.0" encoding="UTF-8"?>
<!DOCTYPE svg PUBLIC "-//W3C//DTD SVG 1.1//EN" "http://www.w3.org/Graphics/SVG/1.1/DTD/svg11.dtd">
<svg width="118mm" height="54mm" viewBox="0 0 11800 5400" version="1.1" xmlns="http://www.w3.org/2000/svg" stroke-width="28.222" stroke-linejoin="round" xml:space="preserve">
 <path fill="rgb(255,255,255)" stroke="none" d="M 5901,5445 L -18,5445 -18,0 11819,0 11819,5445 5901,5445 Z"/>
 <path fill="none" stroke="rgb(179,179,179)" stroke-linejoin="round" d="M 4765,4690 L 1850,4690 1850,307 7679,307 7679,4690 4765,4690 Z"/>
 <path fill="none" stroke="rgb(179,179,179)" stroke-linejoin="round" d="M 7679,4689 L 1850,4689"/>
 <path fill="none" stroke="rgb(179,179,179)" stroke-linejoin="round" d="M 7679,4141 L 1850,4141"/>
 <path fill="none" stroke="rgb(179,179,179)" stroke-linejoin="round" d="M 7679,3593 L 1850,3593"/>
 <path fill="none" stroke="rgb(179,179,179)" stroke-linejoin="round" d="M 7679,3045 L 1850,3045"/>
 <path fill="none" stroke="rgb(179,179,179)" stroke-linejoin="round" d="M 7679,2498 L 1850,2498"/>
 <path fill="none" stroke="rgb(179,179,179)" stroke-linejoin="round" d="M 7679,1950 L 1850,1950"/>
 <path fill="none" stroke="rgb(179,179,179)" stroke-linejoin="round" d="M 7679,1401 L 1850,1401"/>
 <path fill="none" stroke="rgb(179,179,179)" stroke-linejoin="round" d="M 7679,853 L 1850,853"/>
 <path fill="none" stroke="rgb(179,179,179)" stroke-linejoin="round" d="M 7679,306 L 1850,306"/>
 <path fill="none" stroke="rgb(179,179,179)" stroke-linejoin="round" d="M 1850,4839 L 1850,4689"/>
 <path fill="none" stroke="rgb(179,179,179)" stroke-linejoin="round" d="M 1850,4839 L 1850,4689"/>
 <path fill="none" stroke="rgb(179,179,179)" stroke-linejoin="round" d="M 4765,4839 L 4765,4689"/>
 <path fill="none" stroke="rgb(179,179,179)" stroke-linejoin="round" d="M 4765,4839 L 4765,4689"/>
 <path fill="none" stroke="rgb(179,179,179)" stroke-linejoin="round" d="M 7679,4839 L 7679,4689"/>
 <path fill="none" stroke="rgb(179,179,179)" stroke-linejoin="round" d="M 7679,4839 L 7679,4689"/>
 <path fill="none" stroke="rgb(179,179,179)" stroke-linejoin="round" d="M 1850,4689 L 7679,4689"/>
 <path fill="none" stroke="rgb(179,179,179)" stroke-linejoin="round" d="M 1700,4689 L 1850,4689"/>
 <path fill="none" stroke="rgb(179,179,179)" stroke-linejoin="round" d="M 1700,4689 L 1850,4689"/>
 <path fill="none" stroke="rgb(179,179,179)" stroke-linejoin="round" d="M 1700,4141 L 1850,4141"/>
 <path fill="none" stroke="rgb(179,179,179)" stroke-linejoin="round" d="M 1700,4141 L 1850,4141"/>
 <path fill="none" stroke="rgb(179,179,179)" stroke-linejoin="round" d="M 1700,3593 L 1850,3593"/>
 <path fill="none" stroke="rgb(179,179,179)" stroke-linejoin="round" d="M 1700,3593 L 1850,3593"/>
 <path fill="none" stroke="rgb(179,179,179)" stroke-linejoin="round" d="M 1700,3045 L 1850,3045"/>
 <path fill="none" stroke="rgb(179,179,179)" stroke-linejoin="round" d="M 1700,3045 L 1850,3045"/>
 <path fill="none" stroke="rgb(179,179,179)" stroke-linejoin="round" d="M 1700,2498 L 1850,2498"/>
 <path fill="none" stroke="rgb(179,179,179)" stroke-linejoin="round" d="M 1700,2498 L 1850,2498"/>
 <path fill="none" stroke="rgb(179,179,179)" stroke-linejoin="round" d="M 1700,1950 L 1850,1950"/>
 <path fill="none" stroke="rgb(179,179,179)" stroke-linejoin="round" d="M 1700,1950 L 1850,1950"/>
 <path fill="none" stroke="rgb(179,179,179)" stroke-linejoin="round" d="M 1700,1402 L 1850,1402"/>
 <path fill="none" stroke="rgb(179,179,179)" stroke-linejoin="round" d="M 1700,1402 L 1850,1402"/>
 <path fill="none" stroke="rgb(179,179,179)" stroke-linejoin="round" d="M 1700,854 L 1850,854"/>
 <path fill="none" stroke="rgb(179,179,179)" stroke-linejoin="round" d="M 1700,854 L 1850,854"/>
 <path fill="none" stroke="rgb(179,179,179)" stroke-linejoin="round" d="M 1700,306 L 1850,306"/>
 <path fill="none" stroke="rgb(179,179,179)" stroke-linejoin="round" d="M 1700,306 L 1850,306"/>
 <path fill="none" stroke="rgb(179,179,179)" stroke-linejoin="round" d="M 1850,4689 L 1850,306"/>
 <path fill="rgb(0,69,134)" stroke="none" d="M 2092,4689 L 2578,4689 2578,3702 2092,3702 2092,4689 Z"/>
 <path fill="rgb(255,66,14)" stroke="none" d="M 5493,4689 L 5978,4689 5978,1950 5493,1950 5493,4689 Z"/>
 <path fill="rgb(255,66,14)" stroke="none" d="M 2578,4689 L 3064,4689 3064,1109 2578,1109 2578,4689 Z"/>
 <path fill="rgb(255,211,32)" stroke="none" d="M 5978,4689 L 6464,4689 6464,1694 5978,1694 5978,4689 Z"/>
 <path fill="rgb(255,211,32)" stroke="none" d="M 3064,4689 L 3550,4689 3550,1621 3064,1621 3064,4689 Z"/>
 <path fill="rgb(87,157,28)" stroke="none" d="M 6464,4689 L 6950,4689 6950,963 6464,963 6464,4689 Z"/>
 <path fill="rgb(87,157,28)" stroke="none" d="M 3550,4689 L 4036,4689 4036,1109 3550,1109 3550,4689 Z"/>
 <path fill="rgb(126,0,33)" stroke="none" d="M 6950,4689 L 7436,4689 7436,1657 6950,1657 6950,4689 Z"/>
 <path fill="rgb(126,0,33)" stroke="none" d="M 4036,4689 L 4522,4689 4522,1329 4036,1329 4036,4689 Z"/>
 <text class="TextShape"><tspan class="TextParagraph" font-family="Liberation Sans, sans-serif" font-size="353px" font-weight="400"><tspan class="TextPosition" x="2222" y="5257"><tspan fill="rgb(0,0,0)" stroke="none">No occlusions</tspan></tspan></tspan></text>
 <text class="TextShape"><tspan class="TextParagraph" font-family="Liberation Sans, sans-serif" font-size="353px" font-weight="400"><tspan class="TextPosition" x="5362" y="5257"><tspan fill="rgb(0,0,0)" stroke="none">Occlusions</tspan></tspan></tspan></text>
 <text class="TextShape"><tspan class="TextParagraph" font-family="Liberation Sans, sans-serif" font-size="353px" font-weight="400"><tspan class="TextPosition" x="1415" y="4810"><tspan fill="rgb(0,0,0)" stroke="none">0</tspan></tspan></tspan></text>
 <text class="TextShape"><tspan class="TextParagraph" font-family="Liberation Sans, sans-serif" font-size="353px" font-weight="400"><tspan class="TextPosition" x="1230" y="4262"><tspan fill="rgb(0,0,0)" stroke="none">10</tspan></tspan></tspan></text>
 <text class="TextShape"><tspan class="TextParagraph" font-family="Liberation Sans, sans-serif" font-size="353px" font-weight="400"><tspan class="TextPosition" x="1230" y="3714"><tspan fill="rgb(0,0,0)" stroke="none">20</tspan></tspan></tspan></text>
 <text class="TextShape"><tspan class="TextParagraph" font-family="Liberation Sans, sans-serif" font-size="353px" font-weight="400"><tspan class="TextPosition" x="1230" y="3166"><tspan fill="rgb(0,0,0)" stroke="none">30</tspan></tspan></tspan></text>
 <text class="TextShape"><tspan class="TextParagraph" font-family="Liberation Sans, sans-serif" font-size="353px" font-weight="400"><tspan class="TextPosition" x="1230" y="2618"><tspan fill="rgb(0,0,0)" stroke="none">40</tspan></tspan></tspan></text>
 <text class="TextShape"><tspan class="TextParagraph" font-family="Liberation Sans, sans-serif" font-size="353px" font-weight="400"><tspan class="TextPosition" x="1230" y="2070"><tspan fill="rgb(0,0,0)" stroke="none">50</tspan></tspan></tspan></text>
 <text class="TextShape"><tspan class="TextParagraph" font-family="Liberation Sans, sans-serif" font-size="353px" font-weight="400"><tspan class="TextPosition" x="1230" y="1522"><tspan fill="rgb(0,0,0)" stroke="none">60</tspan></tspan></tspan></text>
 <text class="TextShape"><tspan class="TextParagraph" font-family="Liberation Sans, sans-serif" font-size="353px" font-weight="400"><tspan class="TextPosition" x="1230" y="974"><tspan fill="rgb(0,0,0)" stroke="none">70</tspan></tspan></tspan></text>
 <text class="TextShape"><tspan class="TextParagraph" font-family="Liberation Sans, sans-serif" font-size="353px" font-weight="400"><tspan class="TextPosition" x="1230" y="426"><tspan fill="rgb(0,0,0)" stroke="none">80</tspan></tspan></tspan></text>
 <path fill="rgb(0,69,134)" stroke="none" d="M 8137,1435 L 8031,1435 8031,1224 8242,1224 8242,1435 8137,1435 Z"/>
 <path fill="rgb(255,66,14)" stroke="none" d="M 8137,1933 L 8031,1933 8031,1722 8242,1722 8242,1933 8137,1933 Z"/>
 <path fill="rgb(255,211,32)" stroke="none" d="M 8137,2827 L 8031,2827 8031,2617 8242,2617 8242,2827 8137,2827 Z"/>
 <path fill="rgb(87,157,28)" stroke="none" d="M 8137,3722 L 8031,3722 8031,3511 8242,3511 8242,3722 8137,3722 Z"/>
 <path fill="rgb(126,0,33)" stroke="none" d="M 8137,4220 L 8031,4220 8031,4009 8242,4009 8242,4220 8137,4220 Z"/>
 <text class="TextShape"><tspan class="TextParagraph" font-family="Liberation Sans, sans-serif" font-size="353px" font-weight="400"><tspan class="TextPosition" x="8342" y="1449"><tspan fill="rgb(0,0,0)" stroke="none">LRTDP (FF)</tspan></tspan></tspan></text>
 <text class="TextShape"><tspan class="TextParagraph" font-family="Liberation Sans, sans-serif" font-size="353px" font-weight="400"><tspan class="TextPosition" x="8342" y="1947"><tspan fill="rgb(0,0,0)" stroke="none">All Outcome De</tspan><tspan fill="rgb(0,0,0)" stroke="none">-</tspan></tspan><tspan class="TextPosition" x="8342" y="2344"><tspan fill="rgb(0,0,0)" stroke="none">terminization</tspan></tspan></tspan></text>
 <text class="TextShape"><tspan class="TextParagraph" font-family="Liberation Sans, sans-serif" font-size="353px" font-weight="400"><tspan class="TextPosition" x="8342" y="2841"><tspan fill="rgb(0,0,0)" stroke="none">Maximum Likelihood </tspan></tspan><tspan class="TextPosition" x="8342" y="3238"><tspan fill="rgb(0,0,0)" stroke="none">Determinization</tspan></tspan></tspan></text>
 <text class="TextShape"><tspan class="TextParagraph" font-family="Liberation Sans, sans-serif" font-size="353px" font-weight="400"><tspan class="TextPosition" x="8342" y="3736"><tspan fill="rgb(0,0,0)" stroke="none">ACTL (α=0)</tspan></tspan></tspan></text>
 <text class="TextShape"><tspan class="TextParagraph" font-family="Liberation Sans, sans-serif" font-size="353px" font-weight="400"><tspan class="TextPosition" x="8342" y="4234"><tspan fill="rgb(0,0,0)" stroke="none">ACTL (α=1)</tspan></tspan></tspan></text>
 <text class="TextShape" transform="translate(819,3476) rotate(-90) translate(-819,-3476)"><tspan class="TextParagraph" font-family="Liberation Sans, sans-serif" font-size="318px" font-weight="400"><tspan class="TextPosition" x="819" y="3476"><tspan fill="rgb(0,0,0)" stroke="none">%Success</tspan></tspan></tspan></text>
</svg>