<?xml version="1.0" standalone="no"?>
<!DOCTYPE svg PUBLIC "-//W3C//DTD SVG 20010904//EN"
 "http://www.w3.org/TR/2001/REC-SVG-20010904/DTD/svg10.dtd">
<svg version="1.0" xmlns="http://www.w3.org/2000/svg"
 width="628.500000pt" height="104.250000pt" viewBox="0 0 628.500000 104.250000"
 preserveAspectRatio="xMidYMid meet">
<metadata>
Created by potrace 1.14, written by Peter Selinger 2001-2017
</metadata>
<g transform="translate(0.000000,104.250000) scale(0.075000,-0.075000)"
fill="#000000" stroke="none">
<path d="M4585 1357 c44 -13 100 -34 125 -46 61 -32 130 -82 130 -95 0 -6 -23
-34 -51 -62 l-52 -53 34 -14 c19 -8 55 -30 80 -49 l46 -36 97 107 96 106 -31
27 c-94 79 -243 126 -434 133 l-120 5 80 -23z"/>
<path d="M300 695 l0 -656 123 3 122 3 3 653 2 652 -125 0 -125 0 0 -655z"/>
<path d="M1050 1339 c0 -18 283 -819 290 -819 3 0 27 63 54 140 l49 140 -68
193 c-37 105 -81 229 -97 275 l-30 82 -99 0 c-68 0 -99 -4 -99 -11z"/>
<path d="M2090 695 l0 -655 49 0 c27 0 53 6 58 13 5 6 28 55 51 108 l42 96 0
547 0 546 -100 0 -100 0 0 -655z"/>
<path d="M3023 1333 c9 -32 549 -1268 559 -1280 10 -13 208 -19 220 -8 3 3
-121 297 -276 653 l-282 647 -113 3 c-105 2 -113 1 -108 -15z"/>
<path d="M5412 698 l3 -653 123 -3 122 -3 0 656 0 655 -125 0 -125 0 2 -652z"/>
<path d="M6077 1337 c4 -8 127 -209 273 -447 l265 -433 3 198 2 197 -151 249
-152 249 -124 0 c-101 0 -122 -3 -116 -13z"/>
<path d="M6920 695 l0 -656 123 3 122 3 0 650 0 650 -122 3 -123 3 0 -656z"/>
<path d="M8090 1220 l0 -130 125 0 126 0 -3 128 -3 127 -122 3 -123 3 0 -131z"/>
<path d="M4195 1096 c-155 -49 -251 -165 -274 -331 -21 -143 18 -273 109 -369
71 -76 146 -108 266 -114 128 -7 143 1 74 39 -77 42 -116 83 -156 164 -74 153
-64 339 26 470 35 51 120 122 156 131 13 3 24 10 24 15 0 14 -179 9 -225 -5z"/>
<path d="M7480 965 l0 -115 125 0 125 0 0 115 0 115 -125 0 -125 0 0 -115z"/>
<path d="M892 528 l3 -483 103 -3 102 -3 0 178 0 177 -100 308 c-55 169 -103
308 -105 308 -3 0 -4 -217 -3 -482z"/>
<path d="M1727 850 c-172 -493 -274 -796 -270 -803 7 -13 190 -8 200 6 6 6 38
95 72 197 l61 186 -2 289 -3 290 -58 -165z"/>
<path d="M5962 500 l3 -455 123 -3 122 -3 0 261 0 260 -112 182 c-61 101 -117
190 -125 198 -11 12 -13 -57 -11 -440z"/>
<path d="M2805 768 c-37 -95 -69 -179 -72 -185 -4 -10 22 -13 110 -13 l114 0
17 43 c9 23 16 47 16 52 0 18 -103 275 -110 275 -4 0 -37 -78 -75 -172z"/>
<path d="M8057 833 c-4 -3 -7 -62 -7 -130 l0 -123 125 0 125 0 0 130 0 130
-118 0 c-65 0 -122 -3 -125 -7z"/>
<path d="M4870 470 l0 -340 -47 -23 c-57 -29 -154 -61 -243 -82 l-65 -15 112
5 c138 6 292 36 398 78 l80 32 3 343 2 342 -120 0 -120 0 0 -340z"/>
<path d="M7484 557 c-2 -7 -3 -65 -2 -128 l3 -114 123 -3 122 -3 0 131 0 130
-120 0 c-90 0 -122 -3 -126 -13z"/>
<path d="M2581 181 c-28 -71 -51 -132 -51 -135 0 -4 51 -5 112 -4 l113 3 37
95 c21 52 45 112 53 133 l15 37 -114 0 -114 0 -51 -129z"/>
<path d="M8120 170 l0 -130 125 0 125 0 0 130 0 130 -125 0 -125 0 0 -130z"/>
</g>
</svg>
