<?xml version="1.0" encoding="UTF-8"?>
<!DOCTYPE svg PUBLIC "-//W3C//DTD SVG 1.1//EN" "http://www.w3.org/Graphics/SVG/1.1/DTD/svg11.dtd">
<svg version="1.2" width="254mm" height="142.88mm" viewBox="0 0 25400 14288" preserveAspectRatio="xMidYMid" fill-rule="evenodd" stroke-width="28.222" stroke-linejoin="round" xmlns="http://www.w3.org/2000/svg" xmlns:ooo="http://xml.openoffice.org/svg/export" xmlns:xlink="http://www.w3.org/1999/xlink" xmlns:presentation="http://sun.com/xmlns/staroffice/presentation" xmlns:smil="http://www.w3.org/2001/SMIL20/" xmlns:anim="urn:oasis:names:tc:opendocument:xmlns:animation:1.0" xml:space="preserve">
 <defs class="ClipPathGroup">
  <clipPath id="presentation_clip_path" clipPathUnits="userSpaceOnUse">
   <rect x="0" y="0" width="25400" height="14288"/>
  </clipPath>
  <clipPath id="presentation_clip_path_shrink" clipPathUnits="userSpaceOnUse">
   <rect x="25" y="14" width="25350" height="14260"/>
  </clipPath>
 </defs>
 <defs class="TextShapeIndex">
  <g ooo:slide="id1" ooo:id-list="id3 id4 id5 id6 id7 id8 id9 id10 id11 id12 id13 id14 id15 id16 id17 id18 id19 id20 id21 id22 id23 id24 id25 id26"/>
 </defs>
 <defs class="EmbeddedBulletChars">
  <g id="bullet-char-template-57356" transform="scale(0.00048828125,-0.00048828125)">
   <path d="M 580,1141 L 1163,571 580,0 -4,571 580,1141 Z"/>
  </g>
  <g id="bullet-char-template-57354" transform="scale(0.00048828125,-0.00048828125)">
   <path d="M 8,1128 L 1137,1128 1137,0 8,0 8,1128 Z"/>
  </g>
  <g id="bullet-char-template-10146" transform="scale(0.00048828125,-0.00048828125)">
   <path d="M 174,0 L 602,739 174,1481 1456,739 174,0 Z M 1358,739 L 309,1346 659,739 1358,739 Z"/>
  </g>
  <g id="bullet-char-template-10132" transform="scale(0.00048828125,-0.00048828125)">
   <path d="M 2015,739 L 1276,0 717,0 1260,543 174,543 174,936 1260,936 717,1481 1274,1481 2015,739 Z"/>
  </g>
  <g id="bullet-char-template-10007" transform="scale(0.00048828125,-0.00048828125)">
   <path d="M 0,-2 C -7,14 -16,27 -25,37 L 356,567 C 262,823 215,952 215,954 215,979 228,992 255,992 264,992 276,990 289,987 310,991 331,999 354,1012 L 381,999 492,748 772,1049 836,1024 860,1049 C 881,1039 901,1025 922,1006 886,937 835,863 770,784 769,783 710,716 594,584 L 774,223 C 774,196 753,168 711,139 L 727,119 C 717,90 699,76 672,76 641,76 570,178 457,381 L 164,-76 C 142,-110 111,-127 72,-127 30,-127 9,-110 8,-76 1,-67 -2,-52 -2,-32 -2,-23 -1,-13 0,-2 Z"/>
  </g>
  <g id="bullet-char-template-10004" transform="scale(0.00048828125,-0.00048828125)">
   <path d="M 285,-33 C 182,-33 111,30 74,156 52,228 41,333 41,471 41,549 55,616 82,672 116,743 169,778 240,778 293,778 328,747 346,684 L 369,508 C 377,444 397,411 428,410 L 1163,1116 C 1174,1127 1196,1133 1229,1133 1271,1133 1292,1118 1292,1087 L 1292,965 C 1292,929 1282,901 1262,881 L 442,47 C 390,-6 338,-33 285,-33 Z"/>
  </g>
  <g id="bullet-char-template-9679" transform="scale(0.00048828125,-0.00048828125)">
   <path d="M 813,0 C 632,0 489,54 383,161 276,268 223,411 223,592 223,773 276,916 383,1023 489,1130 632,1184 813,1184 992,1184 1136,1130 1245,1023 1353,916 1407,772 1407,592 1407,412 1353,268 1245,161 1136,54 992,0 813,0 Z"/>
  </g>
  <g id="bullet-char-template-8226" transform="scale(0.00048828125,-0.00048828125)">
   <path d="M 346,457 C 273,457 209,483 155,535 101,586 74,649 74,723 74,796 101,859 155,911 209,963 273,989 346,989 419,989 480,963 531,910 582,859 608,796 608,723 608,648 583,586 532,535 482,483 420,457 346,457 Z"/>
  </g>
  <g id="bullet-char-template-8211" transform="scale(0.00048828125,-0.00048828125)">
   <path d="M -4,459 L 1135,459 1135,606 -4,606 -4,459 Z"/>
  </g>
  <g id="bullet-char-template-61548" transform="scale(0.00048828125,-0.00048828125)">
   <path d="M 173,740 C 173,903 231,1043 346,1159 462,1274 601,1332 765,1332 928,1332 1067,1274 1183,1159 1299,1043 1357,903 1357,740 1357,577 1299,437 1183,322 1067,206 928,148 765,148 601,148 462,206 346,322 231,437 173,577 173,740 Z"/>
  </g>
 </defs>
 <g>
  <g id="id2" class="Master_Slide">
   <g id="bg-id2" class="Background"/>
   <g id="bo-id2" class="BackgroundObjects"/>
  </g>
 </g>
 <g class="SlideGroup">
  <g>
   <g id="container-id1">
    <g id="id1" class="Slide" clip-path="url(#presentation_clip_path)">
     <g class="Page">
      <g class="Group">
       <g class="com.sun.star.drawing.ClosedBezierShape">
        <g id="id3">
         <rect class="BoundingBox" stroke="none" fill="none" x="14705" y="5358" width="2874" height="2273"/>
         <path fill="rgb(0,0,0)" stroke="none" d="M 14706,7629 C 14706,6872 14706,6116 14706,5359 15663,5359 16620,5359 17577,5359 17577,6116 17577,6872 17577,7629 16620,7629 15663,7629 14706,7629 Z"/>
         <path fill="none" stroke="rgb(0,0,0)" d="M 14706,7629 L 14706,5359 17577,5359 17577,7629 14706,7629 Z"/>
        </g>
       </g>
       <g class="com.sun.star.drawing.ClosedBezierShape">
        <g id="id4">
         <rect class="BoundingBox" stroke="none" fill="none" x="14705" y="5357" width="578" height="571"/>
         <path fill="rgb(255,255,255)" stroke="none" d="M 14993,5358 C 15156,5358 15280,5481 15280,5642 15280,5802 15156,5926 14993,5926 14830,5926 14706,5802 14706,5642 14706,5481 14830,5358 14993,5358 Z M 14706,5358 L 14706,5358 Z M 15281,5926 L 15281,5926 Z"/>
         <path fill="none" stroke="rgb(0,0,0)" d="M 14993,5358 C 15156,5358 15280,5481 15280,5642 15280,5802 15156,5926 14993,5926 14830,5926 14706,5802 14706,5642 14706,5481 14830,5358 14993,5358 Z"/>
         <path fill="none" stroke="rgb(0,0,0)" d="M 14706,5358 L 14706,5358 Z"/>
         <path fill="none" stroke="rgb(0,0,0)" d="M 15281,5926 L 15281,5926 Z"/>
        </g>
       </g>
       <g class="com.sun.star.drawing.ClosedBezierShape">
        <g id="id5">
         <rect class="BoundingBox" stroke="none" fill="none" x="15279" y="5357" width="578" height="571"/>
         <path fill="rgb(255,255,255)" stroke="none" d="M 15567,5358 C 15730,5358 15854,5481 15854,5642 15854,5802 15730,5926 15567,5926 15404,5926 15280,5802 15280,5642 15280,5481 15404,5358 15567,5358 Z M 15280,5358 L 15280,5358 Z M 15855,5926 L 15855,5926 Z"/>
         <path fill="none" stroke="rgb(0,0,0)" d="M 15567,5358 C 15730,5358 15854,5481 15854,5642 15854,5802 15730,5926 15567,5926 15404,5926 15280,5802 15280,5642 15280,5481 15404,5358 15567,5358 Z"/>
         <path fill="none" stroke="rgb(0,0,0)" d="M 15280,5358 L 15280,5358 Z"/>
         <path fill="none" stroke="rgb(0,0,0)" d="M 15855,5926 L 15855,5926 Z"/>
        </g>
       </g>
       <g class="com.sun.star.drawing.ClosedBezierShape">
        <g id="id6">
         <rect class="BoundingBox" stroke="none" fill="none" x="15853" y="5357" width="578" height="571"/>
         <path fill="rgb(255,255,255)" stroke="none" d="M 16141,5358 C 16304,5358 16429,5481 16429,5642 16429,5802 16304,5926 16141,5926 15978,5926 15854,5802 15854,5642 15854,5481 15978,5358 16141,5358 Z M 15854,5358 L 15854,5358 Z M 16429,5926 L 16429,5926 Z"/>
         <path fill="none" stroke="rgb(0,0,0)" d="M 16141,5358 C 16304,5358 16429,5481 16429,5642 16429,5802 16304,5926 16141,5926 15978,5926 15854,5802 15854,5642 15854,5481 15978,5358 16141,5358 Z"/>
         <path fill="none" stroke="rgb(0,0,0)" d="M 15854,5358 L 15854,5358 Z"/>
         <path fill="none" stroke="rgb(0,0,0)" d="M 16429,5926 L 16429,5926 Z"/>
        </g>
       </g>
       <g class="com.sun.star.drawing.ClosedBezierShape">
        <g id="id7">
         <rect class="BoundingBox" stroke="none" fill="none" x="17002" y="5357" width="578" height="571"/>
         <path fill="rgb(255,255,255)" stroke="none" d="M 17290,5358 C 17453,5358 17577,5481 17577,5642 17577,5802 17453,5926 17290,5926 17127,5926 17003,5802 17003,5642 17003,5481 17127,5358 17290,5358 Z M 17003,5358 L 17003,5358 Z M 17578,5926 L 17578,5926 Z"/>
         <path fill="none" stroke="rgb(0,0,0)" d="M 17290,5358 C 17453,5358 17577,5481 17577,5642 17577,5802 17453,5926 17290,5926 17127,5926 17003,5802 17003,5642 17003,5481 17127,5358 17290,5358 Z"/>
         <path fill="none" stroke="rgb(0,0,0)" d="M 17003,5358 L 17003,5358 Z"/>
         <path fill="none" stroke="rgb(0,0,0)" d="M 17578,5926 L 17578,5926 Z"/>
        </g>
       </g>
       <g class="Group">
        <g class="com.sun.star.drawing.ClosedBezierShape">
         <g id="id8">
          <rect class="BoundingBox" stroke="none" fill="none" x="16428" y="6492" width="578" height="571"/>
          <path fill="rgb(0,102,179)" stroke="none" d="M 16716,6493 C 16879,6493 17003,6616 17003,6777 17003,6937 16879,7060 16716,7060 16553,7060 16429,6937 16429,6777 16429,6616 16553,6493 16716,6493 Z M 16429,6493 L 16429,6493 Z M 17004,7061 L 17004,7061 Z"/>
          <path fill="none" stroke="rgb(0,0,0)" d="M 16716,6493 C 16879,6493 17003,6616 17003,6777 17003,6937 16879,7060 16716,7060 16553,7060 16429,6937 16429,6777 16429,6616 16553,6493 16716,6493 Z"/>
          <path fill="none" stroke="rgb(0,0,0)" d="M 16429,6493 L 16429,6493 Z"/>
          <path fill="none" stroke="rgb(0,0,0)" d="M 17004,7061 L 17004,7061 Z"/>
         </g>
        </g>
        <g class="com.sun.star.drawing.ClosedBezierShape">
         <g id="id9">
          <rect class="BoundingBox" stroke="none" fill="none" x="16647" y="6653" width="150" height="248"/>
          <path fill="rgb(255,255,255)" stroke="none" d="M 16647,6899 C 16647,6887 16647,6875 16647,6863 16665,6863 16683,6863 16701,6863 16701,6807 16701,6751 16701,6695 16684,6707 16666,6719 16649,6732 16649,6719 16649,6706 16649,6693 16667,6680 16685,6666 16704,6653 16718,6653 16731,6653 16745,6653 16745,6723 16745,6793 16745,6863 16762,6863 16779,6863 16796,6863 16796,6875 16796,6887 16796,6899 16746,6899 16697,6899 16647,6899 Z"/>
         </g>
        </g>
       </g>
       <g class="com.sun.star.drawing.ClosedBezierShape">
        <g id="id10">
         <rect class="BoundingBox" stroke="none" fill="none" x="15279" y="5926" width="578" height="571"/>
         <path fill="rgb(0,102,179)" stroke="none" d="M 15567,5927 C 15730,5927 15854,6050 15854,6211 15854,6371 15730,6494 15567,6494 15404,6494 15280,6371 15280,6211 15280,6050 15404,5927 15567,5927 Z M 15280,5927 L 15280,5927 Z M 15855,6495 L 15855,6495 Z"/>
         <path fill="none" stroke="rgb(0,0,0)" d="M 15567,5927 C 15730,5927 15854,6050 15854,6211 15854,6371 15730,6494 15567,6494 15404,6494 15280,6371 15280,6211 15280,6050 15404,5927 15567,5927 Z"/>
         <path fill="none" stroke="rgb(0,0,0)" d="M 15280,5927 L 15280,5927 Z"/>
         <path fill="none" stroke="rgb(0,0,0)" d="M 15855,6495 L 15855,6495 Z"/>
        </g>
       </g>
       <g class="com.sun.star.drawing.ClosedBezierShape">
        <g id="id11">
         <rect class="BoundingBox" stroke="none" fill="none" x="15853" y="5926" width="578" height="571"/>
         <path fill="rgb(0,102,179)" stroke="none" d="M 16141,5927 C 16304,5927 16429,6050 16429,6211 16429,6371 16304,6494 16141,6494 15978,6494 15854,6371 15854,6211 15854,6050 15978,5927 16141,5927 Z M 15854,5927 L 15854,5927 Z M 16429,6495 L 16429,6495 Z"/>
         <path fill="none" stroke="rgb(0,0,0)" d="M 16141,5927 C 16304,5927 16429,6050 16429,6211 16429,6371 16304,6494 16141,6494 15978,6494 15854,6371 15854,6211 15854,6050 15978,5927 16141,5927 Z"/>
         <path fill="none" stroke="rgb(0,0,0)" d="M 15854,5927 L 15854,5927 Z"/>
         <path fill="none" stroke="rgb(0,0,0)" d="M 16429,6495 L 16429,6495 Z"/>
        </g>
       </g>
       <g class="com.sun.star.drawing.ClosedBezierShape">
        <g id="id12">
         <rect class="BoundingBox" stroke="none" fill="none" x="15853" y="6492" width="578" height="571"/>
         <path fill="rgb(0,102,179)" stroke="none" d="M 16141,6493 C 16304,6493 16429,6616 16429,6777 16429,6937 16304,7061 16141,7061 15978,7061 15854,6937 15854,6777 15854,6616 15978,6493 16141,6493 Z M 15854,6493 L 15854,6493 Z M 16429,7061 L 16429,7061 Z"/>
         <path fill="none" stroke="rgb(0,0,0)" d="M 16141,6493 C 16304,6493 16429,6616 16429,6777 16429,6937 16304,7061 16141,7061 15978,7061 15854,6937 15854,6777 15854,6616 15978,6493 16141,6493 Z"/>
         <path fill="none" stroke="rgb(0,0,0)" d="M 15854,6493 L 15854,6493 Z"/>
         <path fill="none" stroke="rgb(0,0,0)" d="M 16429,7061 L 16429,7061 Z"/>
        </g>
       </g>
       <g class="com.sun.star.drawing.ClosedBezierShape">
        <g id="id13">
         <rect class="BoundingBox" stroke="none" fill="none" x="17002" y="5926" width="578" height="571"/>
         <path fill="rgb(0,102,179)" stroke="none" d="M 17290,5927 C 17453,5927 17577,6050 17577,6211 17577,6371 17453,6494 17290,6494 17127,6494 17003,6371 17003,6211 17003,6050 17127,5927 17290,5927 Z M 17003,5927 L 17003,5927 Z M 17578,6495 L 17578,6495 Z"/>
         <path fill="none" stroke="rgb(0,0,0)" d="M 17290,5927 C 17453,5927 17577,6050 17577,6211 17577,6371 17453,6494 17290,6494 17127,6494 17003,6371 17003,6211 17003,6050 17127,5927 17290,5927 Z"/>
         <path fill="none" stroke="rgb(0,0,0)" d="M 17003,5927 L 17003,5927 Z"/>
         <path fill="none" stroke="rgb(0,0,0)" d="M 17578,6495 L 17578,6495 Z"/>
        </g>
       </g>
       <g class="com.sun.star.drawing.ClosedBezierShape">
        <g id="id14">
         <rect class="BoundingBox" stroke="none" fill="none" x="14705" y="6493" width="578" height="571"/>
         <path fill="rgb(0,102,179)" stroke="none" d="M 14993,6494 C 15156,6494 15280,6617 15280,6778 15280,6938 15156,7061 14993,7061 14830,7061 14706,6938 14706,6778 14706,6617 14830,6494 14993,6494 Z M 14706,6494 L 14706,6494 Z M 15281,7062 L 15281,7062 Z"/>
         <path fill="none" stroke="rgb(0,0,0)" d="M 14993,6494 C 15156,6494 15280,6617 15280,6778 15280,6938 15156,7061 14993,7061 14830,7061 14706,6938 14706,6778 14706,6617 14830,6494 14993,6494 Z"/>
         <path fill="none" stroke="rgb(0,0,0)" d="M 14706,6494 L 14706,6494 Z"/>
         <path fill="none" stroke="rgb(0,0,0)" d="M 15281,7062 L 15281,7062 Z"/>
        </g>
       </g>
       <g class="com.sun.star.drawing.ClosedBezierShape">
        <g id="id15">
         <rect class="BoundingBox" stroke="none" fill="none" x="15279" y="6493" width="578" height="571"/>
         <path fill="rgb(0,102,179)" stroke="none" d="M 15567,6494 C 15730,6494 15854,6617 15854,6778 15854,6938 15730,7061 15567,7061 15404,7061 15280,6938 15280,6778 15280,6617 15404,6494 15567,6494 Z M 15280,6494 L 15280,6494 Z M 15855,7062 L 15855,7062 Z"/>
         <path fill="none" stroke="rgb(0,0,0)" d="M 15567,6494 C 15730,6494 15854,6617 15854,6778 15854,6938 15730,7061 15567,7061 15404,7061 15280,6938 15280,6778 15280,6617 15404,6494 15567,6494 Z"/>
         <path fill="none" stroke="rgb(0,0,0)" d="M 15280,6494 L 15280,6494 Z"/>
         <path fill="none" stroke="rgb(0,0,0)" d="M 15855,7062 L 15855,7062 Z"/>
        </g>
       </g>
       <g class="com.sun.star.drawing.ClosedBezierShape">
        <g id="id16">
         <rect class="BoundingBox" stroke="none" fill="none" x="14705" y="5926" width="578" height="571"/>
         <path fill="rgb(0,102,179)" stroke="none" d="M 14993,5927 C 15156,5927 15280,6050 15280,6211 15280,6371 15156,6494 14993,6494 14830,6494 14706,6371 14706,6211 14706,6050 14830,5927 14993,5927 Z M 14706,5927 L 14706,5927 Z M 15281,6495 L 15281,6495 Z"/>
         <path fill="none" stroke="rgb(0,0,0)" d="M 14993,5927 C 15156,5927 15280,6050 15280,6211 15280,6371 15156,6494 14993,6494 14830,6494 14706,6371 14706,6211 14706,6050 14830,5927 14993,5927 Z"/>
         <path fill="none" stroke="rgb(0,0,0)" d="M 14706,5927 L 14706,5927 Z"/>
         <path fill="none" stroke="rgb(0,0,0)" d="M 15281,6495 L 15281,6495 Z"/>
        </g>
       </g>
       <g class="com.sun.star.drawing.ClosedBezierShape">
        <g id="id17">
         <rect class="BoundingBox" stroke="none" fill="none" x="16428" y="7060" width="578" height="571"/>
         <path fill="rgb(0,102,179)" stroke="none" d="M 16716,7061 C 16879,7061 17003,7184 17003,7345 17003,7505 16879,7629 16716,7629 16553,7629 16429,7505 16429,7345 16429,7184 16553,7061 16716,7061 Z M 16429,7061 L 16429,7061 Z M 17004,7629 L 17004,7629 Z"/>
         <path fill="none" stroke="rgb(0,0,0)" d="M 16716,7061 C 16879,7061 17003,7184 17003,7345 17003,7505 16879,7629 16716,7629 16553,7629 16429,7505 16429,7345 16429,7184 16553,7061 16716,7061 Z"/>
         <path fill="none" stroke="rgb(0,0,0)" d="M 16429,7061 L 16429,7061 Z"/>
         <path fill="none" stroke="rgb(0,0,0)" d="M 17004,7629 L 17004,7629 Z"/>
        </g>
       </g>
       <g class="com.sun.star.drawing.ClosedBezierShape">
        <g id="id18">
         <rect class="BoundingBox" stroke="none" fill="none" x="17002" y="6493" width="578" height="571"/>
         <path fill="rgb(0,102,179)" stroke="none" d="M 17290,6494 C 17453,6494 17577,6617 17577,6778 17577,6938 17453,7061 17290,7061 17127,7061 17003,6938 17003,6778 17003,6617 17127,6494 17290,6494 Z M 17003,6494 L 17003,6494 Z M 17578,7062 L 17578,7062 Z"/>
         <path fill="none" stroke="rgb(0,0,0)" d="M 17290,6494 C 17453,6494 17577,6617 17577,6778 17577,6938 17453,7061 17290,7061 17127,7061 17003,6938 17003,6778 17003,6617 17127,6494 17290,6494 Z"/>
         <path fill="none" stroke="rgb(0,0,0)" d="M 17003,6494 L 17003,6494 Z"/>
         <path fill="none" stroke="rgb(0,0,0)" d="M 17578,7062 L 17578,7062 Z"/>
        </g>
       </g>
       <g class="com.sun.star.drawing.ClosedBezierShape">
        <g id="id19">
         <rect class="BoundingBox" stroke="none" fill="none" x="14705" y="7060" width="578" height="571"/>
         <path fill="rgb(0,102,179)" stroke="none" d="M 14993,7061 C 15156,7061 15280,7184 15280,7345 15280,7505 15156,7629 14993,7629 14830,7629 14706,7505 14706,7345 14706,7184 14830,7061 14993,7061 Z M 14706,7061 L 14706,7061 Z M 15281,7629 L 15281,7629 Z"/>
         <path fill="none" stroke="rgb(0,0,0)" d="M 14993,7061 C 15156,7061 15280,7184 15280,7345 15280,7505 15156,7629 14993,7629 14830,7629 14706,7505 14706,7345 14706,7184 14830,7061 14993,7061 Z"/>
         <path fill="none" stroke="rgb(0,0,0)" d="M 14706,7061 L 14706,7061 Z"/>
         <path fill="none" stroke="rgb(0,0,0)" d="M 15281,7629 L 15281,7629 Z"/>
        </g>
       </g>
       <g class="com.sun.star.drawing.ClosedBezierShape">
        <g id="id20">
         <rect class="BoundingBox" stroke="none" fill="none" x="15279" y="7060" width="578" height="571"/>
         <path fill="rgb(0,102,179)" stroke="none" d="M 15567,7061 C 15730,7061 15854,7184 15854,7345 15854,7505 15730,7629 15567,7629 15404,7629 15280,7505 15280,7345 15280,7184 15404,7061 15567,7061 Z M 15280,7061 L 15280,7061 Z M 15855,7629 L 15855,7629 Z"/>
         <path fill="none" stroke="rgb(0,0,0)" d="M 15567,7061 C 15730,7061 15854,7184 15854,7345 15854,7505 15730,7629 15567,7629 15404,7629 15280,7505 15280,7345 15280,7184 15404,7061 15567,7061 Z"/>
         <path fill="none" stroke="rgb(0,0,0)" d="M 15280,7061 L 15280,7061 Z"/>
         <path fill="none" stroke="rgb(0,0,0)" d="M 15855,7629 L 15855,7629 Z"/>
        </g>
       </g>
       <g class="com.sun.star.drawing.ClosedBezierShape">
        <g id="id21">
         <rect class="BoundingBox" stroke="none" fill="none" x="15853" y="7060" width="578" height="571"/>
         <path fill="rgb(0,102,179)" stroke="none" d="M 16141,7061 C 16304,7061 16429,7184 16429,7345 16429,7505 16304,7629 16141,7629 15978,7629 15854,7505 15854,7345 15854,7184 15978,7061 16141,7061 Z M 15854,7061 L 15854,7061 Z M 16429,7629 L 16429,7629 Z"/>
         <path fill="none" stroke="rgb(0,0,0)" d="M 16141,7061 C 16304,7061 16429,7184 16429,7345 16429,7505 16304,7629 16141,7629 15978,7629 15854,7505 15854,7345 15854,7184 15978,7061 16141,7061 Z"/>
         <path fill="none" stroke="rgb(0,0,0)" d="M 15854,7061 L 15854,7061 Z"/>
         <path fill="none" stroke="rgb(0,0,0)" d="M 16429,7629 L 16429,7629 Z"/>
        </g>
       </g>
       <g class="com.sun.star.drawing.ClosedBezierShape">
        <g id="id22">
         <rect class="BoundingBox" stroke="none" fill="none" x="17002" y="7060" width="578" height="571"/>
         <path fill="rgb(0,102,179)" stroke="none" d="M 17290,7061 C 17453,7061 17577,7184 17577,7345 17577,7505 17453,7629 17290,7629 17127,7629 17003,7505 17003,7345 17003,7184 17127,7061 17290,7061 Z M 17003,7061 L 17003,7061 Z M 17578,7629 L 17578,7629 Z"/>
         <path fill="none" stroke="rgb(0,0,0)" d="M 17290,7061 C 17453,7061 17577,7184 17577,7345 17577,7505 17453,7629 17290,7629 17127,7629 17003,7505 17003,7345 17003,7184 17127,7061 17290,7061 Z"/>
         <path fill="none" stroke="rgb(0,0,0)" d="M 17003,7061 L 17003,7061 Z"/>
         <path fill="none" stroke="rgb(0,0,0)" d="M 17578,7629 L 17578,7629 Z"/>
        </g>
       </g>
       <g class="Group">
        <g class="com.sun.star.drawing.ClosedBezierShape">
         <g id="id23">
          <rect class="BoundingBox" stroke="none" fill="none" x="16428" y="5357" width="578" height="571"/>
          <path fill="rgb(0,102,179)" stroke="none" d="M 16716,5358 C 16879,5358 17003,5481 17003,5642 17003,5802 16879,5925 16716,5925 16553,5925 16429,5802 16429,5642 16429,5481 16553,5358 16716,5358 Z M 16429,5358 L 16429,5358 Z M 17004,5926 L 17004,5926 Z"/>
          <path fill="none" stroke="rgb(0,0,0)" d="M 16716,5358 C 16879,5358 17003,5481 17003,5642 17003,5802 16879,5925 16716,5925 16553,5925 16429,5802 16429,5642 16429,5481 16553,5358 16716,5358 Z"/>
          <path fill="none" stroke="rgb(0,0,0)" d="M 16429,5358 L 16429,5358 Z"/>
          <path fill="none" stroke="rgb(0,0,0)" d="M 17004,5926 L 17004,5926 Z"/>
         </g>
        </g>
        <g class="com.sun.star.drawing.ClosedBezierShape">
         <g id="id24">
          <rect class="BoundingBox" stroke="none" fill="none" x="16638" y="5514" width="155" height="252"/>
          <path fill="rgb(255,255,255)" stroke="none" d="M 16638,5764 L 16638,5730 C 16644,5716 16652,5702 16662,5689 16673,5675 16686,5661 16702,5647 16718,5633 16728,5621 16735,5612 16741,5603 16744,5594 16744,5585 16744,5564 16734,5553 16715,5553 16706,5553 16699,5556 16694,5562 16689,5567 16685,5576 16684,5587 L 16640,5584 C 16642,5561 16650,5544 16663,5532 16675,5520 16693,5514 16715,5514 16738,5514 16757,5520 16769,5532 16782,5544 16788,5561 16788,5583 16788,5595 16786,5605 16782,5615 16778,5624 16773,5633 16767,5640 16760,5648 16753,5656 16745,5663 16738,5669 16730,5676 16723,5683 16716,5689 16709,5696 16703,5702 16697,5709 16693,5716 16690,5724 L 16792,5724 16792,5764 16638,5764 Z"/>
         </g>
        </g>
       </g>
       <g class="com.sun.star.drawing.ClosedBezierShape">
        <g id="id25">
         <rect class="BoundingBox" stroke="none" fill="none" x="16428" y="5926" width="578" height="571"/>
         <path fill="rgb(0,102,179)" stroke="none" d="M 16716,5927 C 16879,5927 17003,6050 17003,6211 17003,6371 16879,6494 16716,6494 16553,6494 16429,6371 16429,6211 16429,6050 16553,5927 16716,5927 Z M 16429,5927 L 16429,5927 Z M 17004,6495 L 17004,6495 Z"/>
         <path fill="none" stroke="rgb(0,0,0)" d="M 16716,5927 C 16879,5927 17003,6050 17003,6211 17003,6371 16879,6494 16716,6494 16553,6494 16429,6371 16429,6211 16429,6050 16553,5927 16716,5927 Z"/>
         <path fill="none" stroke="rgb(0,0,0)" d="M 16429,5927 L 16429,5927 Z"/>
         <path fill="none" stroke="rgb(0,0,0)" d="M 17004,6495 L 17004,6495 Z"/>
        </g>
       </g>
      </g>
      <g class="com.sun.star.drawing.OpenBezierShape">
       <g id="id26">
        <rect class="BoundingBox" stroke="none" fill="none" x="14073" y="6399" width="576" height="301"/>
        <path fill="none" stroke="rgb(0,0,0)" d="M 14074,6549 L 14218,6549"/>
        <path fill="rgb(0,0,0)" stroke="none" d="M 14648,6549 L 14198,6399 14198,6699 14648,6549 Z"/>
       </g>
      </g>
     </g>
    </g>
   </g>
  </g>
 </g>
</svg>