<?xml version="1.0" encoding="UTF-8"?>
<!DOCTYPE svg PUBLIC "-//W3C//DTD SVG 1.1//EN" "http://www.w3.org/Graphics/SVG/1.1/DTD/svg11.dtd">
<svg version="1.2" width="280mm" height="157.5mm" viewBox="0 0 28000 15750" preserveAspectRatio="xMidYMid" fill-rule="evenodd" stroke-width="28.222" stroke-linejoin="round" xmlns="http://www.w3.org/2000/svg" xmlns:ooo="http://xml.openoffice.org/svg/export" xmlns:xlink="http://www.w3.org/1999/xlink" xmlns:presentation="http://sun.com/xmlns/staroffice/presentation" xmlns:smil="http://www.w3.org/2001/SMIL20/" xmlns:anim="urn:oasis:names:tc:opendocument:xmlns:animation:1.0" xml:space="preserve">
 <defs class="ClipPathGroup">
  <clipPath id="presentation_clip_path" clipPathUnits="userSpaceOnUse">
   <rect x="0" y="0" width="28000" height="15750"/>
  </clipPath>
  <clipPath id="presentation_clip_path_shrink" clipPathUnits="userSpaceOnUse">
   <rect x="28" y="15" width="27944" height="15719"/>
  </clipPath>
 </defs>
 <defs class="TextShapeIndex">
  <g ooo:slide="id1" ooo:id-list="id3 id4 id5 id6 id7 id8 id9 id10 id11 id12 id13 id14 id15 id16 id17 id18 id19 id20 id21 id22 id23 id24 id25 id26 id27 id28 id29 id30 id31 id32 id33 id34 id35 id36 id37 id38 id39 id40 id41 id42 id43 id44 id45 id46 id47 id48 id49 id50 id51"/>
 </defs>
 <defs class="EmbeddedBulletChars">
  <g id="bullet-char-template-57356" transform="scale(0.00048828125,-0.00048828125)">
   <path d="M 580,1141 L 1163,571 580,0 -4,571 580,1141 Z"/>
  </g>
  <g id="bullet-char-template-57354" transform="scale(0.00048828125,-0.00048828125)">
   <path d="M 8,1128 L 1137,1128 1137,0 8,0 8,1128 Z"/>
  </g>
  <g id="bullet-char-template-10146" transform="scale(0.00048828125,-0.00048828125)">
   <path d="M 174,0 L 602,739 174,1481 1456,739 174,0 Z M 1358,739 L 309,1346 659,739 1358,739 Z"/>
  </g>
  <g id="bullet-char-template-10132" transform="scale(0.00048828125,-0.00048828125)">
   <path d="M 2015,739 L 1276,0 717,0 1260,543 174,543 174,936 1260,936 717,1481 1274,1481 2015,739 Z"/>
  </g>
  <g id="bullet-char-template-10007" transform="scale(0.00048828125,-0.00048828125)">
   <path d="M 0,-2 C -7,14 -16,27 -25,37 L 356,567 C 262,823 215,952 215,954 215,979 228,992 255,992 264,992 276,990 289,987 310,991 331,999 354,1012 L 381,999 492,748 772,1049 836,1024 860,1049 C 881,1039 901,1025 922,1006 886,937 835,863 770,784 769,783 710,716 594,584 L 774,223 C 774,196 753,168 711,139 L 727,119 C 717,90 699,76 672,76 641,76 570,178 457,381 L 164,-76 C 142,-110 111,-127 72,-127 30,-127 9,-110 8,-76 1,-67 -2,-52 -2,-32 -2,-23 -1,-13 0,-2 Z"/>
  </g>
  <g id="bullet-char-template-10004" transform="scale(0.00048828125,-0.00048828125)">
   <path d="M 285,-33 C 182,-33 111,30 74,156 52,228 41,333 41,471 41,549 55,616 82,672 116,743 169,778 240,778 293,778 328,747 346,684 L 369,508 C 377,444 397,411 428,410 L 1163,1116 C 1174,1127 1196,1133 1229,1133 1271,1133 1292,1118 1292,1087 L 1292,965 C 1292,929 1282,901 1262,881 L 442,47 C 390,-6 338,-33 285,-33 Z"/>
  </g>
  <g id="bullet-char-template-9679" transform="scale(0.00048828125,-0.00048828125)">
   <path d="M 813,0 C 632,0 489,54 383,161 276,268 223,411 223,592 223,773 276,916 383,1023 489,1130 632,1184 813,1184 992,1184 1136,1130 1245,1023 1353,916 1407,772 1407,592 1407,412 1353,268 1245,161 1136,54 992,0 813,0 Z"/>
  </g>
  <g id="bullet-char-template-8226" transform="scale(0.00048828125,-0.00048828125)">
   <path d="M 346,457 C 273,457 209,483 155,535 101,586 74,649 74,723 74,796 101,859 155,911 209,963 273,989 346,989 419,989 480,963 531,910 582,859 608,796 608,723 608,648 583,586 532,535 482,483 420,457 346,457 Z"/>
  </g>
  <g id="bullet-char-template-8211" transform="scale(0.00048828125,-0.00048828125)">
   <path d="M -4,459 L 1135,459 1135,606 -4,606 -4,459 Z"/>
  </g>
  <g id="bullet-char-template-61548" transform="scale(0.00048828125,-0.00048828125)">
   <path d="M 173,740 C 173,903 231,1043 346,1159 462,1274 601,1332 765,1332 928,1332 1067,1274 1183,1159 1299,1043 1357,903 1357,740 1357,577 1299,437 1183,322 1067,206 928,148 765,148 601,148 462,206 346,322 231,437 173,577 173,740 Z"/>
  </g>
 </defs>
 <g>
  <g id="id2" class="Master_Slide">
   <g id="bg-id2" class="Background"/>
   <g id="bo-id2" class="BackgroundObjects"/>
  </g>
 </g>
 <g class="SlideGroup">
  <g>
   <g id="container-id1">
    <g id="id1" class="Slide" clip-path="url(#presentation_clip_path)">
     <g class="Page">
      <g class="Group">
       <g class="com.sun.star.drawing.ClosedBezierShape">
        <g id="id3">
         <rect class="BoundingBox" stroke="none" fill="none" x="6829" y="8845" width="4535" height="1501"/>
         <path fill="rgb(255,255,255)" stroke="none" d="M 6927,8860 C 6927,8913 6927,8967 6927,9020 6927,9060 6927,9100 6927,9140 6927,9180 6927,9221 6927,9261 6927,9315 6927,9370 6927,9424 6927,9464 6927,9504 6927,9545 6927,9585 6927,9625 6927,9665 6927,9718 6927,9772 6927,9825 7172,9825 7417,9825 7662,9825 7389,9994 7116,10162 6843,10331 7483,10162 8123,9994 8763,9825 9013,9825 9263,9825 9512,9825 9696,9825 9880,9825 10063,9825 10247,9825 10430,9825 10614,9825 10859,9825 11104,9825 11349,9825 11349,9772 11349,9718 11349,9665 11349,9625 11349,9585 11349,9545 11349,9504 11349,9464 11349,9424 11349,9370 11349,9315 11349,9261 11349,9221 11349,9180 11349,9140 11349,9100 11349,9060 11349,9020 11349,8967 11349,8913 11349,8860 11104,8860 10859,8860 10614,8860 10430,8860 10247,8860 10063,8860 9880,8860 9696,8860 9512,8860 9263,8860 9013,8860 8763,8860 8580,8860 8396,8860 8212,8860 8029,8860 7845,8860 7662,8860 7417,8860 7172,8860 6927,8860 Z M 6927,8860 L 6927,8860 Z M 11349,9825 L 11349,9825 Z"/>
         <path fill="none" stroke="rgb(0,0,0)" stroke-width="28" stroke-linejoin="round" d="M 6927,8860 L 6927,9020 6927,9140 6927,9261 6927,9424 6927,9545 6927,9665 6927,9825 7662,9825 C 7389,9994 7116,10162 6843,10331 7483,10162 8123,9994 8763,9825 L 9512,9825 10063,9825 10614,9825 11349,9825 11349,9665 11349,9545 11349,9424 11349,9261 11349,9140 11349,9020 11349,8860 10614,8860 10063,8860 9512,8860 8763,8860 8212,8860 7662,8860 6927,8860 Z"/>
        </g>
       </g>
       <g class="com.sun.star.drawing.ClosedBezierShape">
        <g id="id4">
         <rect class="BoundingBox" stroke="none" fill="none" x="7061" y="9085" width="87" height="190"/>
         <path fill="rgb(0,0,0)" stroke="none" d="M 7062,9274 L 7062,9266 7069,9266 C 7080,9266 7086,9265 7088,9263 7091,9261 7092,9258 7092,9253 L 7092,9107 C 7092,9102 7091,9099 7088,9097 7086,9095 7080,9095 7069,9095 L 7062,9095 7062,9086 C 7069,9087 7083,9087 7105,9087 7126,9087 7140,9087 7147,9086 L 7147,9095 7140,9095 C 7129,9095 7123,9095 7120,9097 7118,9099 7117,9102 7117,9107 L 7117,9253 C 7117,9258 7118,9261 7120,9263 7123,9265 7129,9266 7140,9266 L 7147,9266 7147,9274 C 7140,9274 7126,9273 7104,9273 7083,9273 7069,9274 7062,9274 Z"/>
        </g>
       </g>
       <g class="com.sun.star.drawing.ClosedBezierShape">
        <g id="id5">
         <rect class="BoundingBox" stroke="none" fill="none" x="7164" y="9152" width="141" height="123"/>
         <path fill="rgb(0,0,0)" stroke="none" d="M 7164,9274 L 7164,9265 C 7174,9265 7180,9265 7182,9264 7185,9262 7186,9259 7186,9253 L 7186,9179 C 7186,9172 7185,9168 7182,9166 7180,9164 7174,9164 7164,9164 L 7164,9155 7203,9152 7203,9181 C 7212,9162 7226,9152 7244,9152 7258,9152 7268,9155 7274,9162 7278,9167 7280,9172 7281,9177 7282,9182 7282,9191 7282,9204 L 7282,9257 C 7283,9261 7284,9263 7287,9264 7290,9265 7296,9265 7304,9265 L 7304,9274 C 7285,9274 7275,9274 7273,9274 7271,9274 7261,9274 7241,9274 L 7241,9265 C 7251,9265 7257,9265 7260,9264 7262,9262 7263,9259 7263,9253 L 7263,9189 C 7263,9179 7262,9172 7259,9166 7256,9161 7251,9158 7243,9158 7233,9158 7224,9162 7216,9170 7209,9178 7205,9189 7205,9202 L 7205,9253 C 7205,9259 7206,9262 7208,9264 7211,9265 7217,9265 7227,9265 L 7227,9274 C 7208,9274 7197,9274 7195,9274 7194,9274 7183,9274 7164,9274 Z"/>
        </g>
       </g>
       <g class="com.sun.star.drawing.ClosedBezierShape">
        <g id="id6">
         <rect class="BoundingBox" stroke="none" fill="none" x="7407" y="9104" width="88" height="174"/>
         <path fill="rgb(0,0,0)" stroke="none" d="M 7407,9163 L 7407,9157 C 7416,9157 7423,9154 7428,9148 7434,9142 7438,9135 7440,9128 7442,9120 7443,9113 7443,9104 L 7450,9104 7450,9155 7490,9155 7490,9163 7450,9163 7450,9240 C 7450,9260 7456,9270 7469,9270 7474,9270 7478,9267 7482,9262 7485,9256 7487,9249 7487,9239 L 7487,9224 7494,9224 7494,9239 C 7494,9249 7492,9258 7487,9265 7483,9273 7476,9277 7467,9277 7463,9277 7460,9276 7457,9275 7453,9274 7449,9273 7445,9271 7441,9269 7437,9265 7435,9259 7432,9254 7431,9247 7431,9239 L 7431,9163 7407,9163 Z"/>
        </g>
       </g>
       <g class="com.sun.star.drawing.ClosedBezierShape">
        <g id="id7">
         <rect class="BoundingBox" stroke="none" fill="none" x="7517" y="9083" width="142" height="192"/>
         <path fill="rgb(0,0,0)" stroke="none" d="M 7518,9274 L 7518,9266 C 7528,9266 7534,9265 7536,9264 7539,9263 7540,9259 7540,9253 L 7540,9110 C 7540,9103 7539,9099 7536,9097 7534,9095 7528,9095 7518,9095 L 7518,9086 7558,9083 7558,9179 C 7561,9172 7566,9166 7573,9160 7580,9155 7588,9152 7598,9152 7612,9152 7622,9156 7628,9162 7632,9167 7634,9172 7635,9177 7636,9182 7636,9191 7636,9205 L 7636,9257 C 7637,9261 7638,9263 7641,9264 7644,9265 7650,9266 7658,9266 L 7658,9274 C 7639,9274 7629,9274 7627,9274 7625,9274 7615,9274 7595,9274 L 7595,9266 C 7605,9266 7611,9265 7614,9264 7616,9263 7617,9259 7617,9253 L 7617,9189 C 7617,9179 7616,9172 7613,9166 7610,9161 7605,9158 7597,9158 7587,9158 7578,9162 7570,9170 7563,9178 7559,9189 7559,9202 L 7559,9253 C 7559,9259 7560,9263 7562,9264 7565,9265 7571,9266 7581,9266 L 7581,9274 C 7562,9274 7551,9274 7549,9274 7548,9274 7537,9274 7518,9274 Z"/>
        </g>
       </g>
       <g class="com.sun.star.drawing.ClosedBezierShape">
        <g id="id8">
         <rect class="BoundingBox" stroke="none" fill="none" x="7670" y="9151" width="109" height="127"/>
         <path fill="rgb(0,0,0)" stroke="none" d="M 7670,9214 C 7670,9196 7676,9182 7687,9169 7698,9157 7712,9151 7728,9151 7744,9151 7757,9156 7765,9167 7774,9177 7778,9190 7778,9205 7778,9207 7777,9209 7777,9210 7776,9210 7774,9210 7771,9210 L 7693,9210 C 7693,9229 7696,9243 7701,9252 7709,9264 7720,9270 7733,9270 7735,9270 7737,9270 7739,9270 7741,9269 7744,9268 7749,9267 7753,9265 7757,9262 7761,9258 7765,9254 7768,9248 7771,9242 7771,9239 7772,9238 7774,9238 7777,9238 7778,9239 7778,9241 7778,9243 7777,9246 7775,9249 7773,9253 7771,9257 7767,9261 7764,9265 7759,9269 7753,9272 7746,9276 7739,9277 7731,9277 7715,9277 7701,9271 7688,9259 7676,9247 7670,9232 7670,9214 Z M 7693,9205 L 7759,9205 C 7759,9201 7759,9197 7758,9192 7758,9188 7756,9183 7755,9177 7753,9171 7749,9166 7745,9163 7740,9159 7735,9157 7728,9157 7725,9157 7722,9158 7719,9159 7715,9160 7712,9162 7708,9165 7704,9168 7701,9173 7698,9180 7695,9187 7694,9195 7693,9205 Z"/>
        </g>
       </g>
       <g class="com.sun.star.drawing.ClosedBezierShape">
        <g id="id9">
         <rect class="BoundingBox" stroke="none" fill="none" x="7887" y="9152" width="139" height="176"/>
         <path fill="rgb(0,0,0)" stroke="none" d="M 7888,9319 C 7898,9319 7904,9318 7906,9317 7909,9316 7910,9312 7910,9306 L 7910,9177 C 7910,9171 7909,9167 7906,9166 7904,9164 7898,9164 7888,9164 L 7888,9155 7928,9152 7928,9170 C 7939,9158 7952,9152 7967,9152 7983,9152 7997,9158 8008,9170 8020,9182 8025,9197 8025,9214 8025,9232 8019,9246 8007,9259 7995,9271 7980,9277 7963,9277 7954,9277 7946,9274 7940,9270 7934,9265 7930,9261 7929,9257 L 7929,9260 7929,9306 C 7929,9312 7930,9316 7932,9317 7935,9318 7941,9319 7951,9319 L 7951,9327 C 7931,9327 7921,9327 7919,9327 7917,9327 7907,9327 7888,9327 L 7888,9319 Z M 7929,9242 C 7929,9245 7929,9247 7930,9248 7930,9249 7931,9251 7933,9254 7940,9265 7950,9271 7962,9271 7973,9271 7982,9265 7990,9255 7998,9244 8002,9230 8002,9214 8002,9199 7999,9186 7991,9175 7984,9164 7975,9159 7965,9159 7958,9159 7951,9161 7945,9165 7938,9169 7933,9174 7929,9181 L 7929,9242 Z"/>
        </g>
       </g>
       <g class="com.sun.star.drawing.ClosedBezierShape">
        <g id="id10">
         <rect class="BoundingBox" stroke="none" fill="none" x="8040" y="9152" width="95" height="123"/>
         <path fill="rgb(0,0,0)" stroke="none" d="M 8040,9274 L 8040,9265 C 8050,9265 8056,9265 8058,9264 8061,9262 8062,9259 8062,9253 L 8062,9179 C 8062,9172 8061,9168 8058,9166 8056,9164 8050,9164 8040,9164 L 8040,9155 8079,9152 8079,9182 C 8081,9174 8085,9167 8091,9161 8097,9155 8104,9152 8113,9152 8119,9152 8124,9154 8128,9157 8132,9160 8134,9164 8134,9169 8134,9173 8132,9176 8130,9178 8127,9180 8125,9181 8122,9181 8118,9181 8115,9180 8113,9178 8111,9176 8110,9173 8110,9169 8110,9167 8110,9165 8111,9163 8112,9161 8113,9160 8114,9160 8115,9159 8115,9159 8116,9158 8116,9158 8115,9158 8113,9158 8103,9158 8095,9163 8089,9173 8083,9183 8080,9196 8080,9210 L 8080,9252 C 8080,9258 8081,9261 8083,9263 8086,9265 8092,9265 8101,9265 L 8107,9265 8107,9274 C 8100,9274 8088,9274 8072,9274 8070,9274 8067,9274 8063,9274 8060,9274 8056,9274 8051,9274 8046,9274 8043,9274 8040,9274 Z"/>
        </g>
       </g>
       <g class="com.sun.star.drawing.ClosedBezierShape">
        <g id="id11">
         <rect class="BoundingBox" stroke="none" fill="none" x="8148" y="9151" width="109" height="127"/>
         <path fill="rgb(0,0,0)" stroke="none" d="M 8148,9214 C 8148,9196 8154,9182 8165,9169 8176,9157 8190,9151 8206,9151 8222,9151 8235,9156 8243,9167 8252,9177 8256,9190 8256,9205 8256,9207 8255,9209 8255,9210 8254,9210 8252,9210 8249,9210 L 8171,9210 C 8171,9229 8174,9243 8179,9252 8187,9264 8198,9270 8211,9270 8213,9270 8215,9270 8217,9270 8219,9269 8222,9268 8227,9267 8231,9265 8235,9262 8239,9258 8243,9254 8246,9248 8249,9242 8249,9239 8250,9238 8252,9238 8255,9238 8256,9239 8256,9241 8256,9243 8255,9246 8253,9249 8251,9253 8249,9257 8245,9261 8242,9265 8237,9269 8231,9272 8224,9276 8217,9277 8209,9277 8193,9277 8179,9271 8166,9259 8154,9247 8148,9232 8148,9214 Z M 8171,9205 L 8237,9205 C 8237,9201 8237,9197 8236,9192 8236,9188 8234,9183 8233,9177 8231,9171 8227,9166 8223,9163 8218,9159 8213,9157 8206,9157 8203,9157 8200,9158 8197,9159 8193,9160 8190,9162 8186,9165 8182,9168 8179,9173 8176,9180 8173,9187 8172,9195 8171,9205 Z"/>
        </g>
       </g>
       <g class="com.sun.star.drawing.ClosedBezierShape">
        <g id="id12">
         <rect class="BoundingBox" stroke="none" fill="none" x="8270" y="9155" width="137" height="124"/>
         <path fill="rgb(0,0,0)" stroke="none" d="M 8270,9164 L 8270,9156 C 8278,9156 8287,9156 8297,9156 8301,9156 8311,9156 8327,9156 L 8327,9164 C 8317,9164 8312,9166 8312,9171 8312,9172 8312,9173 8313,9175 L 8344,9252 8373,9182 C 8374,9179 8374,9177 8374,9175 8374,9172 8373,9170 8371,9167 8369,9165 8366,9164 8361,9164 L 8361,9156 C 8371,9156 8379,9156 8385,9156 8393,9156 8400,9155 8406,9155 L 8406,9164 C 8401,9164 8396,9165 8392,9167 8388,9170 8386,9172 8384,9174 8383,9176 8382,9179 8381,9182 L 8344,9271 C 8343,9275 8341,9277 8338,9277 8337,9277 8335,9276 8335,9276 8334,9275 8333,9274 8332,9271 L 8292,9174 C 8290,9169 8288,9166 8286,9165 8284,9164 8278,9164 8270,9164 Z"/>
        </g>
       </g>
       <g class="com.sun.star.drawing.ClosedBezierShape">
        <g id="id13">
         <rect class="BoundingBox" stroke="none" fill="none" x="8420" y="9090" width="61" height="185"/>
         <path fill="rgb(0,0,0)" stroke="none" d="M 8420,9274 L 8420,9266 C 8430,9266 8436,9265 8438,9264 8441,9263 8442,9259 8442,9253 L 8442,9179 C 8442,9172 8441,9168 8438,9167 8436,9165 8430,9164 8421,9164 L 8421,9156 8460,9152 8460,9253 C 8460,9259 8461,9262 8463,9264 8465,9265 8471,9266 8480,9266 L 8480,9274 C 8461,9274 8451,9274 8451,9274 8448,9274 8438,9274 8420,9274 Z M 8432,9105 C 8432,9101 8433,9098 8436,9095 8439,9092 8442,9090 8446,9090 8451,9090 8454,9091 8457,9094 8460,9097 8461,9100 8461,9105 8461,9109 8460,9112 8457,9115 8454,9118 8451,9119 8446,9119 8442,9119 8439,9118 8436,9115 8433,9112 8432,9108 8432,9105 Z"/>
        </g>
       </g>
       <g class="com.sun.star.drawing.ClosedBezierShape">
        <g id="id14">
         <rect class="BoundingBox" stroke="none" fill="none" x="8495" y="9151" width="124" height="127"/>
         <path fill="rgb(0,0,0)" stroke="none" d="M 8513,9259 C 8501,9247 8495,9233 8495,9215 8495,9198 8501,9183 8513,9170 8525,9157 8540,9151 8557,9151 8574,9151 8588,9157 8600,9170 8612,9183 8618,9198 8618,9215 8618,9233 8612,9247 8600,9259 8588,9271 8573,9277 8557,9277 8540,9277 8526,9271 8513,9259 Z M 8518,9213 C 8518,9231 8520,9244 8525,9252 8532,9264 8543,9270 8557,9270 8564,9270 8570,9268 8576,9265 8582,9261 8586,9256 8589,9250 8593,9242 8595,9230 8595,9213 8595,9196 8593,9183 8588,9175 8581,9163 8570,9157 8557,9157 8551,9157 8545,9159 8539,9162 8533,9165 8528,9169 8525,9175 8520,9184 8518,9196 8518,9213 Z"/>
        </g>
       </g>
       <g class="com.sun.star.drawing.ClosedBezierShape">
        <g id="id15">
         <rect class="BoundingBox" stroke="none" fill="none" x="8635" y="9152" width="141" height="126"/>
         <path fill="rgb(0,0,0)" stroke="none" d="M 8635,9164 L 8635,9155 8676,9152 8676,9244 C 8676,9248 8676,9251 8676,9254 8677,9257 8678,9259 8679,9262 8681,9265 8683,9267 8687,9269 8690,9270 8695,9271 8700,9271 8710,9271 8719,9267 8725,9259 8731,9250 8734,9240 8734,9228 L 8734,9179 C 8734,9172 8733,9168 8731,9166 8728,9164 8722,9164 8712,9164 L 8712,9155 8753,9152 8753,9250 C 8753,9257 8755,9261 8757,9263 8759,9265 8765,9265 8775,9265 L 8775,9274 8735,9277 8735,9252 C 8727,9269 8715,9277 8699,9277 8691,9277 8684,9276 8678,9274 8673,9272 8669,9270 8666,9267 8663,9264 8661,9261 8660,9256 8658,9251 8657,9247 8657,9244 8657,9241 8657,9236 8657,9230 L 8657,9189 C 8657,9176 8656,9169 8654,9167 8652,9165 8646,9164 8635,9164 Z"/>
        </g>
       </g>
       <g class="com.sun.star.drawing.ClosedBezierShape">
        <g id="id16">
         <rect class="BoundingBox" stroke="none" fill="none" x="8788" y="9150" width="92" height="127"/>
         <path fill="rgb(0,0,0)" stroke="none" d="M 8788,9270 L 8788,9233 C 8788,9231 8788,9230 8788,9229 8788,9229 8789,9228 8789,9227 8790,9227 8791,9227 8792,9227 8793,9227 8794,9227 8794,9227 8795,9228 8795,9229 8796,9231 8798,9244 8803,9254 8809,9260 8815,9267 8823,9270 8834,9270 8845,9270 8852,9268 8858,9264 8863,9259 8866,9253 8866,9245 8866,9232 8856,9223 8837,9220 8826,9218 8818,9216 8813,9214 8808,9213 8804,9211 8800,9207 8792,9201 8788,9193 8788,9184 8788,9175 8792,9167 8799,9160 8806,9153 8817,9150 8833,9150 8843,9150 8852,9153 8859,9158 8861,9156 8862,9155 8863,9153 8866,9151 8868,9150 8869,9150 8871,9150 8871,9150 8872,9151 8872,9152 8872,9154 8872,9157 L 8872,9184 C 8872,9186 8872,9188 8872,9189 8872,9189 8872,9190 8871,9190 8870,9191 8870,9191 8868,9191 8866,9191 8865,9190 8865,9189 8864,9166 8853,9155 8833,9155 8822,9155 8814,9157 8809,9161 8804,9166 8801,9170 8801,9176 8801,9179 8802,9182 8804,9184 8805,9187 8807,9189 8809,9190 8811,9191 8813,9193 8817,9194 8821,9195 8824,9196 8826,9197 8828,9197 8831,9198 8836,9199 8850,9202 8861,9206 8867,9212 8875,9220 8879,9228 8879,9238 8879,9249 8875,9258 8868,9265 8861,9273 8849,9276 8834,9276 8822,9276 8812,9273 8804,9265 8802,9266 8802,9267 8801,9268 8800,9269 8799,9269 8799,9270 L 8798,9270 C 8798,9271 8798,9271 8798,9271 8794,9275 8792,9276 8791,9276 8790,9276 8789,9276 8788,9275 8788,9274 8788,9272 8788,9270 Z"/>
        </g>
       </g>
       <g class="com.sun.star.drawing.ClosedBezierShape">
        <g id="id17">
         <rect class="BoundingBox" stroke="none" fill="none" x="8992" y="9150" width="93" height="127"/>
         <path fill="rgb(0,0,0)" stroke="none" d="M 8992,9270 L 8992,9233 C 8992,9231 8992,9230 8992,9229 8992,9229 8993,9228 8993,9227 8994,9227 8995,9227 8996,9227 8997,9227 8998,9227 8998,9227 8999,9228 8999,9229 9000,9231 9002,9244 9007,9254 9013,9260 9019,9267 9027,9270 9038,9270 9049,9270 9056,9268 9062,9264 9067,9259 9070,9253 9070,9245 9070,9232 9060,9223 9041,9220 9030,9218 9022,9216 9017,9214 9012,9213 9008,9211 9004,9207 8996,9201 8992,9193 8992,9184 8992,9175 8996,9167 9003,9160 9010,9153 9021,9150 9037,9150 9047,9150 9056,9153 9063,9158 9065,9156 9066,9155 9067,9153 9070,9151 9072,9150 9073,9150 9075,9150 9075,9150 9076,9151 9076,9152 9076,9154 9076,9157 L 9076,9184 C 9076,9186 9076,9188 9076,9189 9076,9189 9076,9190 9075,9190 9074,9191 9074,9191 9072,9191 9070,9191 9069,9190 9069,9189 9068,9166 9057,9155 9037,9155 9026,9155 9018,9157 9013,9161 9008,9166 9005,9170 9005,9176 9005,9179 9006,9182 9008,9184 9009,9187 9011,9189 9013,9190 9015,9191 9017,9193 9021,9194 9025,9195 9028,9196 9030,9197 9032,9197 9035,9198 9040,9199 9054,9202 9065,9206 9071,9212 9079,9220 9083,9228 9083,9238 9083,9249 9079,9258 9072,9265 9065,9273 9053,9276 9038,9276 9026,9276 9016,9273 9008,9265 9006,9266 9006,9267 9005,9268 9004,9269 9003,9269 9003,9270 L 9002,9270 C 9002,9271 9002,9271 9002,9271 8998,9275 8996,9276 8995,9276 8994,9276 8993,9276 8992,9275 8992,9274 8992,9272 8992,9270 Z"/>
        </g>
       </g>
       <g class="com.sun.star.drawing.ClosedBezierShape">
        <g id="id18">
         <rect class="BoundingBox" stroke="none" fill="none" x="9097" y="9104" width="89" height="174"/>
         <path fill="rgb(0,0,0)" stroke="none" d="M 9098,9163 L 9098,9157 C 9107,9157 9114,9154 9119,9148 9125,9142 9129,9135 9131,9128 9133,9120 9134,9113 9134,9104 L 9141,9104 9141,9155 9181,9155 9181,9163 9141,9163 9141,9240 C 9141,9260 9147,9270 9160,9270 9165,9270 9169,9267 9173,9262 9176,9256 9178,9249 9178,9239 L 9178,9224 9185,9224 9185,9239 C 9185,9249 9183,9258 9178,9265 9174,9273 9167,9277 9158,9277 9154,9277 9151,9276 9148,9275 9144,9274 9140,9273 9136,9271 9132,9269 9128,9265 9126,9259 9123,9254 9122,9247 9122,9239 L 9122,9163 9098,9163 Z"/>
        </g>
       </g>
       <g class="com.sun.star.drawing.ClosedBezierShape">
        <g id="id19">
         <rect class="BoundingBox" stroke="none" fill="none" x="9212" y="9151" width="127" height="127"/>
         <path fill="rgb(0,0,0)" stroke="none" d="M 9212,9248 C 9212,9232 9221,9221 9240,9212 9251,9207 9268,9204 9291,9202 L 9291,9192 C 9291,9181 9288,9172 9282,9166 9276,9160 9269,9157 9262,9157 9248,9157 9238,9161 9231,9170 9237,9170 9241,9171 9243,9174 9245,9177 9246,9180 9246,9182 9246,9186 9245,9189 9242,9191 9240,9194 9237,9195 9233,9195 9229,9195 9226,9194 9224,9192 9221,9189 9220,9186 9220,9182 9220,9173 9224,9166 9232,9160 9241,9154 9250,9151 9262,9151 9277,9151 9290,9156 9300,9166 9303,9169 9306,9173 9307,9177 9309,9181 9310,9184 9310,9187 9310,9189 9310,9193 9310,9199 L 9310,9253 C 9310,9255 9311,9256 9311,9258 9311,9259 9312,9261 9314,9264 9316,9266 9318,9267 9321,9267 9327,9267 9331,9261 9331,9250 L 9331,9234 9338,9234 9338,9250 C 9338,9259 9335,9266 9330,9270 9325,9274 9320,9276 9315,9276 9309,9276 9304,9273 9300,9269 9296,9264 9294,9259 9293,9253 9290,9260 9286,9266 9279,9270 9273,9275 9265,9277 9257,9277 9250,9277 9243,9276 9237,9275 9231,9273 9225,9270 9220,9265 9215,9261 9212,9255 9212,9248 Z M 9233,9248 C 9233,9255 9236,9260 9241,9265 9246,9269 9252,9271 9259,9271 9266,9271 9274,9268 9281,9262 9288,9256 9291,9247 9291,9236 L 9291,9208 C 9270,9209 9256,9213 9247,9221 9238,9229 9233,9238 9233,9248 Z"/>
        </g>
       </g>
       <g class="com.sun.star.drawing.ClosedBezierShape">
        <g id="id20">
         <rect class="BoundingBox" stroke="none" fill="none" x="9344" y="9104" width="88" height="174"/>
         <path fill="rgb(0,0,0)" stroke="none" d="M 9344,9163 L 9344,9157 C 9353,9157 9360,9154 9365,9148 9371,9142 9375,9135 9377,9128 9379,9120 9380,9113 9380,9104 L 9387,9104 9387,9155 9427,9155 9427,9163 9387,9163 9387,9240 C 9387,9260 9393,9270 9406,9270 9411,9270 9415,9267 9419,9262 9422,9256 9424,9249 9424,9239 L 9424,9224 9431,9224 9431,9239 C 9431,9249 9429,9258 9424,9265 9420,9273 9413,9277 9404,9277 9400,9277 9397,9276 9394,9275 9390,9274 9386,9273 9382,9271 9378,9269 9374,9265 9372,9259 9369,9254 9368,9247 9368,9239 L 9368,9163 9344,9163 Z"/>
        </g>
       </g>
       <g class="com.sun.star.drawing.ClosedBezierShape">
        <g id="id21">
         <rect class="BoundingBox" stroke="none" fill="none" x="9453" y="9151" width="110" height="127"/>
         <path fill="rgb(0,0,0)" stroke="none" d="M 9454,9214 C 9454,9196 9460,9182 9471,9169 9482,9157 9496,9151 9512,9151 9528,9151 9541,9156 9549,9167 9558,9177 9562,9190 9562,9205 9562,9207 9561,9209 9561,9210 9560,9210 9558,9210 9555,9210 L 9477,9210 C 9477,9229 9480,9243 9485,9252 9493,9264 9504,9270 9517,9270 9519,9270 9521,9270 9523,9270 9525,9269 9528,9268 9533,9267 9537,9265 9541,9262 9545,9258 9549,9254 9552,9248 9555,9242 9555,9239 9556,9238 9558,9238 9561,9238 9562,9239 9562,9241 9562,9243 9561,9246 9559,9249 9557,9253 9555,9257 9551,9261 9548,9265 9543,9269 9537,9272 9530,9276 9523,9277 9515,9277 9499,9277 9485,9271 9472,9259 9460,9247 9454,9232 9454,9214 Z M 9477,9205 L 9543,9205 C 9543,9201 9543,9197 9542,9192 9542,9188 9540,9183 9539,9177 9537,9171 9533,9166 9529,9163 9524,9159 9519,9157 9512,9157 9509,9157 9506,9158 9503,9159 9499,9160 9496,9162 9492,9165 9488,9168 9485,9173 9482,9180 9479,9187 9478,9195 9477,9205 Z"/>
        </g>
       </g>
       <g class="com.sun.star.drawing.ClosedBezierShape">
        <g id="id22">
         <rect class="BoundingBox" stroke="none" fill="none" x="9594" y="9245" width="34" height="83"/>
         <path fill="rgb(0,0,0)" stroke="none" d="M 9598,9270 C 9595,9267 9594,9263 9594,9260 9594,9256 9595,9252 9598,9249 9601,9246 9604,9245 9609,9245 9614,9245 9619,9248 9622,9253 9625,9258 9627,9265 9627,9274 9627,9283 9625,9293 9621,9301 9617,9310 9613,9317 9609,9321 9605,9325 9603,9327 9601,9327 9599,9327 9598,9326 9598,9324 9598,9323 9599,9322 9600,9321 9614,9307 9620,9291 9620,9274 9620,9271 9620,9270 9620,9270 L 9619,9270 C 9616,9273 9613,9274 9609,9274 9604,9274 9601,9273 9598,9270 Z"/>
        </g>
       </g>
       <g class="com.sun.star.drawing.ClosedBezierShape">
        <g id="id23">
         <rect class="BoundingBox" stroke="none" fill="none" x="9750" y="9150" width="107" height="127"/>
         <path fill="rgb(0,0,0)" stroke="none" d="M 9768,9258 C 9756,9246 9750,9231 9750,9214 9750,9196 9756,9181 9767,9169 9779,9156 9793,9150 9810,9150 9822,9150 9832,9153 9840,9158 9849,9163 9853,9171 9853,9180 9853,9184 9852,9187 9849,9189 9847,9191 9844,9193 9840,9193 9836,9193 9833,9191 9831,9189 9829,9187 9827,9184 9827,9180 9827,9178 9828,9177 9828,9175 9829,9174 9830,9172 9832,9170 9834,9168 9837,9167 9841,9167 9834,9160 9824,9157 9811,9157 9801,9157 9793,9161 9785,9170 9777,9179 9773,9193 9773,9213 9773,9224 9774,9233 9777,9241 9780,9248 9783,9254 9787,9258 9792,9262 9796,9265 9800,9267 9804,9269 9808,9269 9812,9269 9831,9269 9843,9260 9849,9241 9849,9239 9851,9238 9852,9238 9855,9238 9856,9239 9856,9241 9856,9242 9856,9243 9855,9245 9854,9248 9853,9251 9851,9254 9848,9258 9846,9261 9842,9265 9839,9268 9835,9271 9829,9273 9823,9275 9817,9276 9810,9276 9794,9276 9779,9270 9768,9258 Z"/>
        </g>
       </g>
       <g class="com.sun.star.drawing.ClosedBezierShape">
        <g id="id24">
         <rect class="BoundingBox" stroke="none" fill="none" x="9873" y="9151" width="125" height="127"/>
         <path fill="rgb(0,0,0)" stroke="none" d="M 9891,9259 C 9879,9247 9873,9233 9873,9215 9873,9198 9879,9183 9891,9170 9903,9157 9918,9151 9935,9151 9952,9151 9966,9157 9978,9170 9990,9183 9996,9198 9996,9215 9996,9233 9990,9247 9978,9259 9966,9271 9951,9277 9935,9277 9918,9277 9904,9271 9891,9259 Z M 9896,9213 C 9896,9231 9898,9244 9903,9252 9910,9264 9921,9270 9935,9270 9942,9270 9948,9268 9954,9265 9960,9261 9964,9256 9967,9250 9971,9242 9973,9230 9973,9213 9973,9196 9971,9183 9966,9175 9959,9163 9948,9157 9935,9157 9929,9157 9923,9159 9917,9162 9911,9165 9906,9169 9903,9175 9898,9184 9896,9196 9896,9213 Z"/>
        </g>
       </g>
       <g class="com.sun.star.drawing.ClosedBezierShape">
        <g id="id25">
         <rect class="BoundingBox" stroke="none" fill="none" x="10012" y="9152" width="142" height="126"/>
         <path fill="rgb(0,0,0)" stroke="none" d="M 10013,9164 L 10013,9155 10054,9152 10054,9244 C 10054,9248 10054,9251 10054,9254 10055,9257 10056,9259 10057,9262 10059,9265 10061,9267 10065,9269 10068,9270 10073,9271 10078,9271 10088,9271 10097,9267 10103,9259 10109,9250 10112,9240 10112,9228 L 10112,9179 C 10112,9172 10111,9168 10109,9166 10106,9164 10100,9164 10090,9164 L 10090,9155 10131,9152 10131,9250 C 10131,9257 10133,9261 10135,9263 10137,9265 10143,9265 10153,9265 L 10153,9274 10113,9277 10113,9252 C 10105,9269 10093,9277 10077,9277 10069,9277 10062,9276 10056,9274 10051,9272 10047,9270 10044,9267 10041,9264 10039,9261 10038,9256 10036,9251 10035,9247 10035,9244 10035,9241 10035,9236 10035,9230 L 10035,9189 C 10035,9176 10034,9169 10032,9167 10030,9165 10024,9164 10013,9164 Z"/>
        </g>
       </g>
       <g class="com.sun.star.drawing.ClosedBezierShape">
        <g id="id26">
         <rect class="BoundingBox" stroke="none" fill="none" x="10166" y="9083" width="63" height="192"/>
         <path fill="rgb(0,0,0)" stroke="none" d="M 10166,9274 L 10166,9266 C 10176,9266 10182,9265 10184,9264 10187,9263 10188,9259 10188,9253 L 10188,9110 C 10188,9103 10187,9099 10184,9097 10182,9095 10176,9095 10166,9095 L 10166,9086 10206,9083 10206,9253 C 10206,9259 10207,9263 10210,9264 10212,9265 10218,9266 10228,9266 L 10228,9274 C 10226,9274 10222,9274 10217,9274 10213,9274 10209,9274 10205,9274 10202,9274 10199,9274 10197,9274 10195,9274 10184,9274 10166,9274 Z"/>
        </g>
       </g>
       <g class="com.sun.star.drawing.ClosedBezierShape">
        <g id="id27">
         <rect class="BoundingBox" stroke="none" fill="none" x="10243" y="9083" width="138" height="195"/>
         <path fill="rgb(0,0,0)" stroke="none" d="M 10243,9215 C 10243,9197 10249,9183 10262,9170 10274,9158 10288,9152 10305,9152 10319,9152 10331,9158 10340,9169 L 10340,9110 C 10340,9103 10339,9099 10337,9097 10334,9095 10328,9095 10318,9095 L 10318,9086 10359,9083 10359,9250 C 10359,9257 10360,9261 10362,9263 10365,9265 10371,9266 10380,9266 L 10380,9274 10339,9277 10339,9259 C 10330,9271 10317,9277 10302,9277 10286,9277 10272,9271 10261,9259 10249,9247 10243,9232 10243,9215 Z M 10266,9215 C 10266,9232 10269,9245 10274,9253 10282,9265 10291,9271 10303,9271 10317,9271 10328,9265 10336,9252 10338,9249 10339,9245 10339,9242 L 10339,9185 C 10339,9181 10338,9178 10336,9175 10329,9164 10319,9158 10306,9158 10293,9158 10283,9164 10275,9176 10269,9185 10266,9198 10266,9215 Z"/>
        </g>
       </g>
       <g class="com.sun.star.drawing.ClosedBezierShape">
        <g id="id28">
         <rect class="BoundingBox" stroke="none" fill="none" x="10487" y="9085" width="87" height="190"/>
         <path fill="rgb(0,0,0)" stroke="none" d="M 10487,9274 L 10487,9266 10494,9266 C 10505,9266 10511,9265 10513,9263 10516,9261 10517,9258 10517,9253 L 10517,9107 C 10517,9102 10516,9099 10513,9097 10511,9095 10505,9095 10494,9095 L 10487,9095 10487,9086 C 10494,9087 10508,9087 10530,9087 10551,9087 10565,9087 10572,9086 L 10572,9095 10565,9095 C 10554,9095 10548,9095 10545,9097 10543,9099 10542,9102 10542,9107 L 10542,9253 C 10542,9258 10543,9261 10545,9263 10548,9265 10554,9266 10565,9266 L 10572,9266 10572,9274 C 10565,9274 10551,9273 10529,9273 10508,9273 10494,9274 10487,9274 Z"/>
        </g>
       </g>
       <g class="com.sun.star.drawing.ClosedBezierShape">
        <g id="id29">
         <rect class="BoundingBox" stroke="none" fill="none" x="10682" y="9083" width="141" height="192"/>
         <path fill="rgb(0,0,0)" stroke="none" d="M 10682,9274 L 10682,9266 C 10692,9266 10698,9265 10700,9264 10703,9263 10704,9259 10704,9253 L 10704,9110 C 10704,9103 10703,9099 10700,9097 10698,9095 10692,9095 10682,9095 L 10682,9086 10722,9083 10722,9179 C 10725,9172 10730,9166 10737,9160 10744,9155 10752,9152 10762,9152 10776,9152 10786,9156 10792,9162 10796,9167 10798,9172 10799,9177 10800,9182 10800,9191 10800,9205 L 10800,9257 C 10801,9261 10802,9263 10805,9264 10808,9265 10814,9266 10822,9266 L 10822,9274 C 10803,9274 10793,9274 10791,9274 10789,9274 10779,9274 10759,9274 L 10759,9266 C 10769,9266 10775,9265 10778,9264 10780,9263 10781,9259 10781,9253 L 10781,9189 C 10781,9179 10780,9172 10777,9166 10774,9161 10769,9158 10761,9158 10751,9158 10742,9162 10734,9170 10727,9178 10723,9189 10723,9202 L 10723,9253 C 10723,9259 10724,9263 10726,9264 10729,9265 10735,9266 10745,9266 L 10745,9274 C 10726,9274 10715,9274 10713,9274 10712,9274 10701,9274 10682,9274 Z"/>
        </g>
       </g>
       <g class="com.sun.star.drawing.ClosedBezierShape">
        <g id="id30">
         <rect class="BoundingBox" stroke="none" fill="none" x="10838" y="9151" width="127" height="127"/>
         <path fill="rgb(0,0,0)" stroke="none" d="M 10838,9248 C 10838,9232 10847,9221 10866,9212 10877,9207 10894,9204 10917,9202 L 10917,9192 C 10917,9181 10914,9172 10908,9166 10902,9160 10895,9157 10888,9157 10874,9157 10864,9161 10857,9170 10863,9170 10867,9171 10869,9174 10871,9177 10872,9180 10872,9182 10872,9186 10871,9189 10868,9191 10866,9194 10863,9195 10859,9195 10855,9195 10852,9194 10850,9192 10847,9189 10846,9186 10846,9182 10846,9173 10850,9166 10858,9160 10867,9154 10876,9151 10888,9151 10903,9151 10916,9156 10926,9166 10929,9169 10932,9173 10933,9177 10935,9181 10936,9184 10936,9187 10936,9189 10936,9193 10936,9199 L 10936,9253 C 10936,9255 10937,9256 10937,9258 10937,9259 10938,9261 10940,9264 10942,9266 10944,9267 10947,9267 10953,9267 10957,9261 10957,9250 L 10957,9234 10964,9234 10964,9250 C 10964,9259 10961,9266 10956,9270 10951,9274 10946,9276 10941,9276 10935,9276 10930,9273 10926,9269 10922,9264 10920,9259 10919,9253 10916,9260 10912,9266 10905,9270 10899,9275 10891,9277 10883,9277 10876,9277 10869,9276 10863,9275 10857,9273 10851,9270 10846,9265 10841,9261 10838,9255 10838,9248 Z M 10859,9248 C 10859,9255 10862,9260 10867,9265 10872,9269 10878,9271 10885,9271 10892,9271 10900,9268 10907,9262 10914,9256 10917,9247 10917,9236 L 10917,9208 C 10896,9209 10882,9213 10873,9221 10864,9229 10859,9238 10859,9248 Z"/>
        </g>
       </g>
       <g class="com.sun.star.drawing.ClosedBezierShape">
        <g id="id31">
         <rect class="BoundingBox" stroke="none" fill="none" x="10963" y="9155" width="137" height="124"/>
         <path fill="rgb(0,0,0)" stroke="none" d="M 10963,9164 L 10963,9156 C 10971,9156 10980,9156 10990,9156 10994,9156 11004,9156 11020,9156 L 11020,9164 C 11010,9164 11005,9166 11005,9171 11005,9172 11005,9173 11006,9175 L 11037,9252 11066,9182 C 11067,9179 11067,9177 11067,9175 11067,9172 11066,9170 11064,9167 11062,9165 11059,9164 11054,9164 L 11054,9156 C 11064,9156 11072,9156 11078,9156 11086,9156 11093,9155 11099,9155 L 11099,9164 C 11094,9164 11089,9165 11085,9167 11081,9170 11079,9172 11077,9174 11076,9176 11075,9179 11074,9182 L 11037,9271 C 11036,9275 11034,9277 11031,9277 11030,9277 11028,9276 11028,9276 11027,9275 11026,9274 11025,9271 L 10985,9174 C 10983,9169 10981,9166 10979,9165 10977,9164 10971,9164 10963,9164 Z"/>
        </g>
       </g>
       <g class="com.sun.star.drawing.ClosedBezierShape">
        <g id="id32">
         <rect class="BoundingBox" stroke="none" fill="none" x="11104" y="9151" width="109" height="127"/>
         <path fill="rgb(0,0,0)" stroke="none" d="M 11104,9214 C 11104,9196 11110,9182 11121,9169 11132,9157 11146,9151 11162,9151 11178,9151 11191,9156 11199,9167 11208,9177 11212,9190 11212,9205 11212,9207 11211,9209 11211,9210 11210,9210 11208,9210 11205,9210 L 11127,9210 C 11127,9229 11130,9243 11135,9252 11143,9264 11154,9270 11167,9270 11169,9270 11171,9270 11173,9270 11175,9269 11178,9268 11183,9267 11187,9265 11191,9262 11195,9258 11199,9254 11202,9248 11205,9242 11205,9239 11206,9238 11208,9238 11211,9238 11212,9239 11212,9241 11212,9243 11211,9246 11209,9249 11207,9253 11205,9257 11201,9261 11198,9265 11193,9269 11187,9272 11180,9276 11173,9277 11165,9277 11149,9277 11135,9271 11122,9259 11110,9247 11104,9232 11104,9214 Z M 11127,9205 L 11193,9205 C 11193,9201 11193,9197 11192,9192 11192,9188 11190,9183 11189,9177 11187,9171 11183,9166 11179,9163 11174,9159 11169,9157 11162,9157 11159,9157 11156,9158 11153,9159 11149,9160 11146,9162 11142,9165 11138,9168 11135,9173 11132,9180 11129,9187 11128,9195 11127,9205 Z"/>
        </g>
       </g>
       <g class="com.sun.star.drawing.ClosedBezierShape">
        <g id="id33">
         <rect class="BoundingBox" stroke="none" fill="none" x="7708" y="9476" width="219" height="124"/>
         <path fill="rgb(0,0,0)" stroke="none" d="M 7708,9598 L 7708,9589 C 7718,9589 7724,9589 7726,9588 7729,9586 7730,9583 7730,9577 L 7730,9503 C 7730,9496 7729,9492 7726,9490 7724,9488 7718,9488 7708,9488 L 7708,9479 7747,9476 7747,9505 C 7756,9486 7770,9476 7788,9476 7810,9476 7823,9485 7826,9503 7829,9496 7834,9490 7840,9484 7847,9479 7856,9476 7866,9476 7880,9476 7890,9479 7895,9486 7899,9491 7902,9496 7903,9501 7903,9506 7904,9515 7904,9528 L 7904,9581 C 7904,9585 7906,9587 7909,9588 7912,9589 7917,9589 7926,9589 L 7926,9598 C 7907,9598 7896,9598 7894,9598 7893,9598 7882,9598 7863,9598 L 7863,9589 C 7873,9589 7879,9589 7881,9588 7883,9586 7885,9583 7885,9577 L 7885,9513 C 7885,9503 7883,9496 7880,9490 7877,9485 7872,9482 7864,9482 7854,9482 7846,9486 7838,9494 7830,9502 7826,9513 7826,9526 L 7826,9577 C 7826,9583 7828,9586 7830,9588 7832,9589 7838,9589 7848,9589 L 7848,9598 C 7829,9598 7819,9598 7817,9598 7815,9598 7805,9598 7785,9598 L 7785,9589 C 7795,9589 7801,9589 7804,9588 7806,9586 7807,9583 7807,9577 L 7807,9513 C 7807,9503 7806,9496 7803,9490 7800,9485 7795,9482 7787,9482 7777,9482 7768,9486 7760,9494 7753,9502 7749,9513 7749,9526 L 7749,9577 C 7749,9583 7750,9586 7752,9588 7755,9589 7761,9589 7771,9589 L 7771,9598 C 7752,9598 7741,9598 7739,9598 7738,9598 7727,9598 7708,9598 Z"/>
        </g>
       </g>
       <g class="com.sun.star.drawing.ClosedBezierShape">
        <g id="id34">
         <rect class="BoundingBox" stroke="none" fill="none" x="7939" y="9475" width="124" height="127"/>
         <path fill="rgb(0,0,0)" stroke="none" d="M 7957,9583 C 7945,9571 7939,9557 7939,9539 7939,9522 7945,9507 7957,9494 7969,9481 7984,9475 8001,9475 8018,9475 8032,9481 8044,9494 8056,9507 8062,9522 8062,9539 8062,9557 8056,9571 8044,9583 8032,9595 8017,9601 8001,9601 7984,9601 7970,9595 7957,9583 Z M 7962,9537 C 7962,9555 7964,9568 7969,9576 7976,9588 7987,9594 8001,9594 8008,9594 8014,9592 8020,9589 8026,9585 8030,9580 8033,9574 8037,9566 8039,9554 8039,9537 8039,9520 8037,9507 8032,9499 8025,9487 8014,9481 8001,9481 7995,9481 7989,9483 7983,9486 7977,9489 7972,9493 7969,9499 7964,9508 7962,9520 7962,9537 Z"/>
        </g>
       </g>
       <g class="com.sun.star.drawing.ClosedBezierShape">
        <g id="id35">
         <rect class="BoundingBox" stroke="none" fill="none" x="8067" y="9479" width="138" height="123"/>
         <path fill="rgb(0,0,0)" stroke="none" d="M 8068,9488 L 8068,9480 C 8076,9480 8085,9480 8095,9480 8099,9480 8109,9480 8125,9480 L 8125,9488 C 8115,9488 8110,9490 8110,9495 8110,9496 8110,9497 8111,9499 L 8142,9576 8171,9506 C 8172,9503 8172,9501 8172,9499 8172,9496 8171,9494 8169,9491 8167,9489 8164,9488 8159,9488 L 8159,9480 C 8169,9480 8177,9480 8183,9480 8191,9480 8198,9479 8204,9479 L 8204,9488 C 8199,9488 8194,9489 8190,9491 8186,9494 8184,9496 8182,9498 8181,9500 8180,9503 8179,9506 L 8142,9595 C 8141,9599 8139,9601 8136,9601 8135,9601 8133,9600 8133,9600 8132,9599 8131,9598 8130,9595 L 8090,9498 C 8088,9493 8086,9490 8084,9489 8082,9488 8076,9488 8068,9488 Z"/>
        </g>
       </g>
       <g class="com.sun.star.drawing.ClosedBezierShape">
        <g id="id36">
         <rect class="BoundingBox" stroke="none" fill="none" x="8209" y="9475" width="109" height="127"/>
         <path fill="rgb(0,0,0)" stroke="none" d="M 8209,9538 C 8209,9520 8215,9506 8226,9493 8237,9481 8251,9475 8267,9475 8283,9475 8296,9480 8304,9491 8313,9501 8317,9514 8317,9529 8317,9531 8316,9533 8316,9534 8315,9534 8313,9534 8310,9534 L 8232,9534 C 8232,9553 8235,9567 8240,9576 8248,9588 8259,9594 8272,9594 8274,9594 8276,9594 8278,9594 8280,9593 8283,9592 8288,9591 8292,9589 8296,9586 8300,9582 8304,9578 8307,9572 8310,9566 8310,9563 8311,9562 8313,9562 8316,9562 8317,9563 8317,9565 8317,9567 8316,9570 8314,9573 8312,9577 8310,9581 8306,9585 8303,9589 8298,9593 8292,9596 8285,9600 8278,9601 8270,9601 8254,9601 8240,9595 8227,9583 8215,9571 8209,9556 8209,9538 Z M 8232,9529 L 8298,9529 C 8298,9525 8298,9521 8297,9516 8297,9512 8295,9507 8294,9501 8292,9495 8288,9490 8284,9487 8279,9483 8274,9481 8267,9481 8264,9481 8261,9482 8258,9483 8254,9484 8251,9486 8247,9489 8243,9492 8240,9497 8237,9504 8234,9511 8233,9519 8232,9529 Z"/>
        </g>
       </g>
       <g class="com.sun.star.drawing.ClosedBezierShape">
        <g id="id37">
         <rect class="BoundingBox" stroke="none" fill="none" x="8335" y="9407" width="138" height="195"/>
         <path fill="rgb(0,0,0)" stroke="none" d="M 8335,9539 C 8335,9521 8341,9507 8354,9494 8366,9482 8380,9476 8397,9476 8411,9476 8423,9482 8432,9493 L 8432,9434 C 8432,9427 8431,9423 8429,9421 8426,9419 8420,9419 8410,9419 L 8410,9410 8451,9407 8451,9574 C 8451,9581 8452,9585 8454,9587 8457,9589 8463,9590 8472,9590 L 8472,9598 8431,9601 8431,9583 C 8422,9595 8409,9601 8394,9601 8378,9601 8364,9595 8353,9583 8341,9571 8335,9556 8335,9539 Z M 8358,9539 C 8358,9556 8361,9569 8366,9577 8374,9589 8383,9595 8395,9595 8409,9595 8420,9589 8428,9576 8430,9573 8431,9569 8431,9566 L 8431,9509 C 8431,9505 8430,9502 8428,9499 8421,9488 8411,9482 8398,9482 8385,9482 8375,9488 8367,9500 8361,9509 8358,9522 8358,9539 Z"/>
        </g>
       </g>
       <g class="com.sun.star.drawing.ClosedBezierShape">
        <g id="id38">
         <rect class="BoundingBox" stroke="none" fill="none" x="8586" y="9415" width="112" height="184"/>
         <path fill="rgb(0,0,0)" stroke="none" d="M 8586,9598 C 8586,9595 8586,9593 8586,9592 8587,9591 8588,9590 8589,9588 L 8643,9529 C 8662,9508 8672,9487 8672,9468 8672,9456 8669,9446 8662,9437 8656,9428 8646,9424 8634,9424 8626,9424 8619,9426 8612,9431 8605,9436 8600,9443 8597,9451 8597,9451 8599,9451 8600,9451 8605,9451 8609,9452 8611,9455 8614,9458 8615,9461 8615,9465 8615,9470 8614,9474 8610,9476 8607,9479 8604,9480 8601,9480 8599,9480 8598,9480 8596,9480 8595,9479 8592,9478 8590,9475 8587,9473 8586,9469 8586,9465 8586,9452 8591,9440 8601,9430 8611,9420 8623,9415 8638,9415 8655,9415 8669,9420 8680,9430 8692,9440 8697,9453 8697,9468 8697,9474 8696,9479 8695,9484 8693,9489 8691,9493 8689,9497 8687,9501 8682,9506 8677,9512 8671,9518 8665,9524 8660,9528 8656,9533 8648,9539 8637,9549 L 8607,9577 8658,9577 C 8674,9577 8683,9576 8684,9575 8686,9572 8688,9564 8690,9550 L 8697,9550 8689,9598 8586,9598 Z"/>
        </g>
       </g>
       <g class="com.sun.star.drawing.ClosedBezierShape">
        <g id="id39">
         <rect class="BoundingBox" stroke="none" fill="none" x="8814" y="9407" width="138" height="195"/>
         <path fill="rgb(0,0,0)" stroke="none" d="M 8814,9539 C 8814,9521 8820,9507 8833,9494 8845,9482 8859,9476 8876,9476 8890,9476 8902,9482 8911,9493 L 8911,9434 C 8911,9427 8910,9423 8908,9421 8905,9419 8899,9419 8889,9419 L 8889,9410 8930,9407 8930,9574 C 8930,9581 8931,9585 8933,9587 8936,9589 8942,9590 8951,9590 L 8951,9598 8910,9601 8910,9583 C 8901,9595 8888,9601 8873,9601 8857,9601 8843,9595 8832,9583 8820,9571 8814,9556 8814,9539 Z M 8837,9539 C 8837,9556 8840,9569 8845,9577 8853,9589 8862,9595 8874,9595 8888,9595 8899,9589 8907,9576 8909,9573 8910,9569 8910,9566 L 8910,9509 C 8910,9505 8909,9502 8907,9499 8900,9488 8890,9482 8877,9482 8864,9482 8854,9488 8846,9500 8840,9509 8837,9522 8837,9539 Z"/>
        </g>
       </g>
       <g class="com.sun.star.drawing.ClosedBezierShape">
        <g id="id40">
         <rect class="BoundingBox" stroke="none" fill="none" x="8967" y="9413" width="61" height="185"/>
         <path fill="rgb(0,0,0)" stroke="none" d="M 8967,9597 L 8967,9589 C 8977,9589 8983,9588 8985,9587 8988,9586 8989,9582 8989,9576 L 8989,9502 C 8989,9495 8988,9491 8985,9490 8983,9488 8977,9487 8968,9487 L 8968,9479 9007,9475 9007,9576 C 9007,9582 9008,9585 9010,9587 9012,9588 9018,9589 9027,9589 L 9027,9597 C 9008,9597 8998,9597 8998,9597 8995,9597 8985,9597 8967,9597 Z M 8979,9428 C 8979,9424 8980,9421 8983,9418 8986,9415 8989,9413 8993,9413 8998,9413 9001,9414 9004,9417 9007,9420 9008,9423 9008,9428 9008,9432 9007,9435 9004,9438 9001,9441 8998,9442 8993,9442 8989,9442 8986,9441 8983,9438 8980,9435 8979,9431 8979,9428 Z"/>
        </g>
       </g>
       <g class="com.sun.star.drawing.ClosedBezierShape">
        <g id="id41">
         <rect class="BoundingBox" stroke="none" fill="none" x="9042" y="9476" width="95" height="124"/>
         <path fill="rgb(0,0,0)" stroke="none" d="M 9042,9598 L 9042,9589 C 9052,9589 9058,9589 9060,9588 9063,9586 9064,9583 9064,9577 L 9064,9503 C 9064,9496 9063,9492 9060,9490 9058,9488 9052,9488 9042,9488 L 9042,9479 9081,9476 9081,9506 C 9083,9498 9087,9491 9093,9485 9099,9479 9106,9476 9115,9476 9121,9476 9126,9478 9130,9481 9134,9484 9136,9488 9136,9493 9136,9497 9134,9500 9132,9502 9129,9504 9127,9505 9124,9505 9120,9505 9117,9504 9115,9502 9113,9500 9112,9497 9112,9493 9112,9491 9112,9489 9113,9487 9114,9485 9115,9484 9116,9484 9117,9483 9117,9483 9118,9482 9118,9482 9117,9482 9115,9482 9105,9482 9097,9487 9091,9497 9085,9507 9082,9520 9082,9534 L 9082,9576 C 9082,9582 9083,9585 9085,9587 9088,9589 9094,9589 9103,9589 L 9109,9589 9109,9598 C 9102,9598 9090,9598 9074,9598 9072,9598 9069,9598 9065,9598 9062,9598 9058,9598 9053,9598 9048,9598 9045,9598 9042,9598 Z"/>
        </g>
       </g>
       <g class="com.sun.star.drawing.ClosedBezierShape">
        <g id="id42">
         <rect class="BoundingBox" stroke="none" fill="none" x="9149" y="9475" width="109" height="127"/>
         <path fill="rgb(0,0,0)" stroke="none" d="M 9149,9538 C 9149,9520 9155,9506 9166,9493 9177,9481 9191,9475 9207,9475 9223,9475 9236,9480 9244,9491 9253,9501 9257,9514 9257,9529 9257,9531 9256,9533 9256,9534 9255,9534 9253,9534 9250,9534 L 9172,9534 C 9172,9553 9175,9567 9180,9576 9188,9588 9199,9594 9212,9594 9214,9594 9216,9594 9218,9594 9220,9593 9223,9592 9228,9591 9232,9589 9236,9586 9240,9582 9244,9578 9247,9572 9250,9566 9250,9563 9251,9562 9253,9562 9256,9562 9257,9563 9257,9565 9257,9567 9256,9570 9254,9573 9252,9577 9250,9581 9246,9585 9243,9589 9238,9593 9232,9596 9225,9600 9218,9601 9210,9601 9194,9601 9180,9595 9167,9583 9155,9571 9149,9556 9149,9538 Z M 9172,9529 L 9238,9529 C 9238,9525 9238,9521 9237,9516 9237,9512 9235,9507 9234,9501 9232,9495 9228,9490 9224,9487 9219,9483 9214,9481 9207,9481 9204,9481 9201,9482 9198,9483 9194,9484 9191,9486 9187,9489 9183,9492 9180,9497 9177,9504 9174,9511 9173,9519 9172,9529 Z"/>
        </g>
       </g>
       <g class="com.sun.star.drawing.ClosedBezierShape">
        <g id="id43">
         <rect class="BoundingBox" stroke="none" fill="none" x="9274" y="9474" width="108" height="127"/>
         <path fill="rgb(0,0,0)" stroke="none" d="M 9293,9582 C 9281,9570 9275,9555 9275,9538 9275,9520 9281,9505 9292,9493 9304,9480 9318,9474 9335,9474 9347,9474 9357,9477 9365,9482 9374,9487 9378,9495 9378,9504 9378,9508 9377,9511 9374,9513 9372,9515 9369,9517 9365,9517 9361,9517 9358,9515 9356,9513 9354,9511 9352,9508 9352,9504 9352,9502 9353,9501 9353,9499 9354,9498 9355,9496 9357,9494 9359,9492 9362,9491 9366,9491 9359,9484 9349,9481 9336,9481 9326,9481 9318,9485 9310,9494 9302,9503 9298,9517 9298,9537 9298,9548 9299,9557 9302,9565 9305,9572 9308,9578 9312,9582 9317,9586 9321,9589 9325,9591 9329,9593 9333,9593 9337,9593 9356,9593 9368,9584 9374,9565 9374,9563 9376,9562 9377,9562 9380,9562 9381,9563 9381,9565 9381,9566 9381,9567 9380,9569 9379,9572 9378,9575 9376,9578 9373,9582 9371,9585 9367,9589 9364,9592 9360,9595 9354,9597 9348,9599 9342,9600 9335,9600 9319,9600 9304,9594 9293,9582 Z"/>
        </g>
       </g>
       <g class="com.sun.star.drawing.ClosedBezierShape">
        <g id="id44">
         <rect class="BoundingBox" stroke="none" fill="none" x="9396" y="9428" width="88" height="174"/>
         <path fill="rgb(0,0,0)" stroke="none" d="M 9396,9487 L 9396,9481 C 9405,9481 9412,9478 9417,9472 9423,9466 9427,9459 9429,9452 9431,9444 9432,9437 9432,9428 L 9439,9428 9439,9479 9479,9479 9479,9487 9439,9487 9439,9564 C 9439,9584 9445,9594 9458,9594 9463,9594 9467,9591 9471,9586 9474,9580 9476,9573 9476,9563 L 9476,9548 9483,9548 9483,9563 C 9483,9573 9481,9582 9476,9589 9472,9597 9465,9601 9456,9601 9452,9601 9449,9600 9446,9599 9442,9598 9438,9597 9434,9595 9430,9593 9426,9589 9424,9583 9421,9578 9420,9571 9420,9563 L 9420,9487 9396,9487 Z"/>
        </g>
       </g>
       <g class="com.sun.star.drawing.ClosedBezierShape">
        <g id="id45">
         <rect class="BoundingBox" stroke="none" fill="none" x="9507" y="9407" width="63" height="193"/>
         <path fill="rgb(0,0,0)" stroke="none" d="M 9507,9598 L 9507,9590 C 9517,9590 9523,9589 9525,9588 9528,9587 9529,9583 9529,9577 L 9529,9434 C 9529,9427 9528,9423 9525,9421 9523,9419 9517,9419 9507,9419 L 9507,9410 9547,9407 9547,9577 C 9547,9583 9548,9587 9551,9588 9553,9589 9559,9590 9569,9590 L 9569,9598 C 9567,9598 9563,9598 9558,9598 9554,9598 9550,9598 9546,9598 9543,9598 9540,9598 9538,9598 9536,9598 9525,9598 9507,9598 Z"/>
        </g>
       </g>
       <g class="com.sun.star.drawing.ClosedBezierShape">
        <g id="id46">
         <rect class="BoundingBox" stroke="none" fill="none" x="9580" y="9479" width="137" height="176"/>
         <path fill="rgb(0,0,0)" stroke="none" d="M 9580,9632 C 9580,9628 9581,9625 9583,9623 9586,9621 9589,9620 9592,9620 9595,9620 9598,9621 9600,9623 9602,9625 9603,9628 9603,9632 9603,9638 9600,9642 9593,9643 9596,9646 9600,9648 9606,9648 9611,9648 9616,9646 9621,9642 9625,9638 9628,9634 9630,9630 9632,9626 9635,9621 9637,9614 9640,9608 9642,9603 9644,9598 L 9603,9497 C 9601,9493 9598,9490 9596,9489 9593,9488 9588,9488 9580,9488 L 9580,9480 C 9588,9480 9597,9480 9607,9480 9613,9480 9623,9480 9637,9480 L 9637,9488 C 9627,9488 9622,9490 9622,9495 9622,9495 9622,9497 9623,9500 L 9654,9574 9683,9506 C 9684,9503 9684,9501 9684,9499 9684,9492 9680,9488 9671,9488 L 9671,9480 C 9683,9480 9691,9480 9695,9480 9703,9480 9710,9479 9716,9479 L 9716,9488 C 9704,9488 9695,9493 9690,9505 L 9641,9623 C 9632,9644 9620,9654 9606,9654 9599,9654 9593,9652 9588,9648 9583,9643 9580,9638 9580,9632 Z"/>
        </g>
       </g>
       <g class="com.sun.star.drawing.ClosedBezierShape">
        <g id="id47">
         <rect class="BoundingBox" stroke="none" fill="none" x="9819" y="9428" width="88" height="174"/>
         <path fill="rgb(0,0,0)" stroke="none" d="M 9819,9487 L 9819,9481 C 9828,9481 9835,9478 9840,9472 9846,9466 9850,9459 9852,9452 9854,9444 9855,9437 9855,9428 L 9862,9428 9862,9479 9902,9479 9902,9487 9862,9487 9862,9564 C 9862,9584 9868,9594 9881,9594 9886,9594 9890,9591 9894,9586 9897,9580 9899,9573 9899,9563 L 9899,9548 9906,9548 9906,9563 C 9906,9573 9904,9582 9899,9589 9895,9597 9888,9601 9879,9601 9875,9601 9872,9600 9869,9599 9865,9598 9861,9597 9857,9595 9853,9593 9849,9589 9847,9583 9844,9578 9843,9571 9843,9563 L 9843,9487 9819,9487 Z"/>
        </g>
       </g>
       <g class="com.sun.star.drawing.ClosedBezierShape">
        <g id="id48">
         <rect class="BoundingBox" stroke="none" fill="none" x="9929" y="9475" width="125" height="127"/>
         <path fill="rgb(0,0,0)" stroke="none" d="M 9947,9583 C 9935,9571 9929,9557 9929,9539 9929,9522 9935,9507 9947,9494 9959,9481 9974,9475 9991,9475 10008,9475 10022,9481 10034,9494 10046,9507 10052,9522 10052,9539 10052,9557 10046,9571 10034,9583 10022,9595 10007,9601 9991,9601 9974,9601 9960,9595 9947,9583 Z M 9952,9537 C 9952,9555 9954,9568 9959,9576 9966,9588 9977,9594 9991,9594 9998,9594 10004,9592 10010,9589 10016,9585 10020,9580 10023,9574 10027,9566 10029,9554 10029,9537 10029,9520 10027,9507 10022,9499 10015,9487 10004,9481 9991,9481 9985,9481 9979,9483 9973,9486 9967,9489 9962,9493 9959,9499 9954,9508 9952,9520 9952,9537 Z"/>
        </g>
       </g>
       <g class="com.sun.star.drawing.ClosedBezierShape">
        <g id="id49">
         <rect class="BoundingBox" stroke="none" fill="none" x="10162" y="9407" width="138" height="195"/>
         <path fill="rgb(0,0,0)" stroke="none" d="M 10162,9539 C 10162,9521 10168,9507 10181,9494 10193,9482 10207,9476 10224,9476 10238,9476 10250,9482 10259,9493 L 10259,9434 C 10259,9427 10258,9423 10256,9421 10253,9419 10247,9419 10237,9419 L 10237,9410 10278,9407 10278,9574 C 10278,9581 10279,9585 10281,9587 10284,9589 10290,9590 10299,9590 L 10299,9598 10258,9601 10258,9583 C 10249,9595 10236,9601 10221,9601 10205,9601 10191,9595 10180,9583 10168,9571 10162,9556 10162,9539 Z M 10185,9539 C 10185,9556 10188,9569 10193,9577 10201,9589 10210,9595 10222,9595 10236,9595 10247,9589 10255,9576 10257,9573 10258,9569 10258,9566 L 10258,9509 C 10258,9505 10257,9502 10255,9499 10248,9488 10238,9482 10225,9482 10212,9482 10202,9488 10194,9500 10188,9509 10185,9522 10185,9539 Z"/>
        </g>
       </g>
       <g class="com.sun.star.drawing.ClosedBezierShape">
        <g id="id50">
         <rect class="BoundingBox" stroke="none" fill="none" x="10314" y="9412" width="125" height="187"/>
         <path fill="rgb(0,0,0)" stroke="none" d="M 10314,9553 L 10314,9544 10400,9415 C 10401,9413 10403,9412 10405,9412 10407,9412 10408,9412 10409,9413 10409,9414 10410,9416 10410,9419 L 10410,9544 10437,9544 10437,9553 10410,9553 10410,9577 C 10410,9582 10411,9586 10413,9587 10415,9589 10421,9590 10431,9590 L 10437,9590 10437,9598 C 10429,9598 10416,9598 10399,9598 10381,9598 10369,9598 10361,9598 L 10361,9590 10367,9590 C 10377,9590 10383,9589 10385,9587 10387,9586 10388,9582 10388,9577 L 10388,9553 10314,9553 Z M 10322,9544 L 10390,9544 10390,9442 10322,9544 Z"/>
        </g>
       </g>
       <g class="com.sun.star.drawing.ClosedBezierShape">
        <g id="id51">
         <rect class="BoundingBox" stroke="none" fill="none" x="10461" y="9404" width="101" height="195"/>
         <path fill="rgb(0,0,0)" stroke="none" d="M 10461,9441 C 10461,9431 10465,9423 10474,9415 10483,9408 10494,9404 10508,9404 10527,9404 10541,9408 10549,9415 10557,9423 10561,9431 10561,9441 10561,9453 10557,9462 10548,9468 10523,9486 10511,9507 10511,9530 L 10511,9539 C 10511,9541 10511,9543 10511,9544 10511,9544 10510,9545 10510,9546 10509,9546 10508,9547 10507,9547 10506,9547 10505,9546 10504,9546 10504,9545 10504,9543 10504,9540 L 10504,9528 C 10504,9518 10506,9508 10510,9496 10514,9485 10520,9475 10528,9466 10530,9464 10532,9462 10533,9460 10534,9459 10535,9456 10536,9453 10537,9449 10538,9445 10538,9440 10538,9436 10538,9434 10538,9432 10538,9430 10537,9428 10536,9425 10535,9422 10533,9419 10531,9417 10529,9415 10526,9414 10522,9412 10518,9411 10513,9410 10508,9410 10491,9410 10478,9416 10471,9429 10481,9429 10487,9433 10487,9441 10487,9445 10485,9448 10483,9451 10481,9453 10478,9454 10474,9454 10470,9454 10467,9453 10465,9451 10462,9449 10461,9445 10461,9441 Z M 10497,9594 C 10494,9591 10492,9588 10492,9584 10492,9580 10494,9576 10497,9573 10500,9570 10503,9569 10507,9569 10511,9569 10515,9570 10518,9573 10521,9576 10522,9580 10522,9584 10522,9588 10521,9591 10518,9594 10515,9597 10511,9598 10507,9598 10503,9598 10500,9597 10497,9594 Z"/>
        </g>
       </g>
      </g>
     </g>
    </g>
   </g>
  </g>
 </g>
</svg>