<?xml version="1.0" encoding="UTF-8"?>
<!DOCTYPE svg PUBLIC "-//W3C//DTD SVG 1.1//EN" "http://www.w3.org/Graphics/SVG/1.1/DTD/svg11.dtd">
<svg version="1.2" width="280mm" height="157.5mm" viewBox="0 0 28000 15750" preserveAspectRatio="xMidYMid" fill-rule="evenodd" stroke-width="28.222" stroke-linejoin="round" xmlns="http://www.w3.org/2000/svg" xmlns:ooo="http://xml.openoffice.org/svg/export" xmlns:xlink="http://www.w3.org/1999/xlink" xmlns:presentation="http://sun.com/xmlns/staroffice/presentation" xmlns:smil="http://www.w3.org/2001/SMIL20/" xmlns:anim="urn:oasis:names:tc:opendocument:xmlns:animation:1.0" xml:space="preserve">
 <defs class="ClipPathGroup">
  <clipPath id="presentation_clip_path" clipPathUnits="userSpaceOnUse">
   <rect x="0" y="0" width="28000" height="15750"/>
  </clipPath>
  <clipPath id="presentation_clip_path_shrink" clipPathUnits="userSpaceOnUse">
   <rect x="28" y="15" width="27944" height="15719"/>
  </clipPath>
 </defs>
 <defs class="TextShapeIndex">
  <g ooo:slide="id1" ooo:id-list="id3 id4 id5"/>
 </defs>
 <defs class="EmbeddedBulletChars">
  <g id="bullet-char-template-57356" transform="scale(0.00048828125,-0.00048828125)">
   <path d="M 580,1141 L 1163,571 580,0 -4,571 580,1141 Z"/>
  </g>
  <g id="bullet-char-template-57354" transform="scale(0.00048828125,-0.00048828125)">
   <path d="M 8,1128 L 1137,1128 1137,0 8,0 8,1128 Z"/>
  </g>
  <g id="bullet-char-template-10146" transform="scale(0.00048828125,-0.00048828125)">
   <path d="M 174,0 L 602,739 174,1481 1456,739 174,0 Z M 1358,739 L 309,1346 659,739 1358,739 Z"/>
  </g>
  <g id="bullet-char-template-10132" transform="scale(0.00048828125,-0.00048828125)">
   <path d="M 2015,739 L 1276,0 717,0 1260,543 174,543 174,936 1260,936 717,1481 1274,1481 2015,739 Z"/>
  </g>
  <g id="bullet-char-template-10007" transform="scale(0.00048828125,-0.00048828125)">
   <path d="M 0,-2 C -7,14 -16,27 -25,37 L 356,567 C 262,823 215,952 215,954 215,979 228,992 255,992 264,992 276,990 289,987 310,991 331,999 354,1012 L 381,999 492,748 772,1049 836,1024 860,1049 C 881,1039 901,1025 922,1006 886,937 835,863 770,784 769,783 710,716 594,584 L 774,223 C 774,196 753,168 711,139 L 727,119 C 717,90 699,76 672,76 641,76 570,178 457,381 L 164,-76 C 142,-110 111,-127 72,-127 30,-127 9,-110 8,-76 1,-67 -2,-52 -2,-32 -2,-23 -1,-13 0,-2 Z"/>
  </g>
  <g id="bullet-char-template-10004" transform="scale(0.00048828125,-0.00048828125)">
   <path d="M 285,-33 C 182,-33 111,30 74,156 52,228 41,333 41,471 41,549 55,616 82,672 116,743 169,778 240,778 293,778 328,747 346,684 L 369,508 C 377,444 397,411 428,410 L 1163,1116 C 1174,1127 1196,1133 1229,1133 1271,1133 1292,1118 1292,1087 L 1292,965 C 1292,929 1282,901 1262,881 L 442,47 C 390,-6 338,-33 285,-33 Z"/>
  </g>
  <g id="bullet-char-template-9679" transform="scale(0.00048828125,-0.00048828125)">
   <path d="M 813,0 C 632,0 489,54 383,161 276,268 223,411 223,592 223,773 276,916 383,1023 489,1130 632,1184 813,1184 992,1184 1136,1130 1245,1023 1353,916 1407,772 1407,592 1407,412 1353,268 1245,161 1136,54 992,0 813,0 Z"/>
  </g>
  <g id="bullet-char-template-8226" transform="scale(0.00048828125,-0.00048828125)">
   <path d="M 346,457 C 273,457 209,483 155,535 101,586 74,649 74,723 74,796 101,859 155,911 209,963 273,989 346,989 419,989 480,963 531,910 582,859 608,796 608,723 608,648 583,586 532,535 482,483 420,457 346,457 Z"/>
  </g>
  <g id="bullet-char-template-8211" transform="scale(0.00048828125,-0.00048828125)">
   <path d="M -4,459 L 1135,459 1135,606 -4,606 -4,459 Z"/>
  </g>
  <g id="bullet-char-template-61548" transform="scale(0.00048828125,-0.00048828125)">
   <path d="M 173,740 C 173,903 231,1043 346,1159 462,1274 601,1332 765,1332 928,1332 1067,1274 1183,1159 1299,1043 1357,903 1357,740 1357,577 1299,437 1183,322 1067,206 928,148 765,148 601,148 462,206 346,322 231,437 173,577 173,740 Z"/>
  </g>
 </defs>
 <g>
  <g id="id2" class="Master_Slide">
   <g id="bg-id2" class="Background"/>
   <g id="bo-id2" class="BackgroundObjects"/>
  </g>
 </g>
 <g class="SlideGroup">
  <g>
   <g id="container-id1">
    <g id="id1" class="Slide" clip-path="url(#presentation_clip_path)">
     <g class="Page">
      <g class="Group">
       <g class="com.sun.star.drawing.ClosedBezierShape">
        <g id="id3">
         <rect class="BoundingBox" stroke="none" fill="none" x="8973" y="9939" width="1114" height="1328"/>
         <path fill="rgb(255,255,255)" stroke="none" d="M 8987,9953 C 8987,10006 8987,10060 8987,10113 8987,10153 8987,10193 8987,10233 8987,10273 8987,10313 8987,10353 8987,10408 8987,10462 8987,10517 8987,10557 8987,10597 8987,10637 8987,10677 8987,10717 8987,10757 8987,10811 8987,10864 8987,10918 9035,10918 9082,10918 9130,10918 9166,10918 9201,10918 9237,10918 9273,10918 9309,10918 9345,10918 9393,10918 9442,10918 9490,10918 9684,11029 9878,11140 10072,11252 9950,11140 9827,11029 9705,10918 9753,10918 9800,10918 9848,10918 9848,10864 9848,10811 9848,10757 9848,10717 9848,10677 9848,10637 9848,10597 9848,10557 9848,10517 9848,10462 9848,10408 9848,10353 9848,10313 9848,10273 9848,10233 9848,10193 9848,10153 9848,10113 9848,10060 9848,10006 9848,9953 9800,9953 9753,9953 9705,9953 9669,9953 9633,9953 9598,9953 9562,9953 9526,9953 9490,9953 9442,9953 9393,9953 9345,9953 9309,9953 9273,9953 9237,9953 9201,9953 9166,9953 9130,9953 9082,9953 9035,9953 8987,9953 Z M 8987,9953 L 8987,9953 Z M 9849,10918 L 9849,10918 Z"/>
         <path fill="none" stroke="rgb(0,0,0)" stroke-width="28" stroke-linejoin="round" d="M 8987,9953 L 8987,10113 8987,10233 8987,10353 8987,10517 8987,10637 8987,10757 8987,10918 9130,10918 9237,10918 9345,10918 9490,10918 C 9684,11029 9878,11140 10072,11252 9950,11140 9827,11029 9705,10918 L 9848,10918 9848,10757 9848,10637 9848,10517 9848,10353 9848,10233 9848,10113 9848,9953 9705,9953 9598,9953 9490,9953 9345,9953 9237,9953 9130,9953 8987,9953 Z"/>
        </g>
       </g>
       <g class="com.sun.star.drawing.ClosedBezierShape">
        <g id="id4">
         <rect class="BoundingBox" stroke="none" fill="none" x="9253" y="10340" width="191" height="189"/>
         <path fill="rgb(0,0,0)" stroke="none" d="M 9253,10528 L 9253,10520 C 9260,10520 9265,10519 9269,10518 9274,10517 9277,10515 9278,10512 9280,10510 9281,10508 9281,10506 9282,10504 9282,10502 9282,10499 L 9282,10355 C 9282,10353 9281,10351 9281,10350 9280,10350 9278,10349 9275,10349 9269,10349 9265,10349 9261,10349 L 9253,10349 9253,10340 9300,10340 C 9303,10340 9305,10340 9305,10341 9306,10341 9307,10342 9308,10344 L 9407,10487 9407,10369 C 9407,10366 9407,10364 9406,10362 9406,10361 9405,10359 9403,10356 9402,10354 9399,10352 9394,10350 9390,10349 9385,10349 9378,10349 L 9378,10341 C 9398,10341 9408,10341 9411,10341 9413,10341 9424,10341 9443,10341 L 9443,10349 C 9437,10349 9431,10349 9427,10350 9423,10352 9420,10354 9418,10356 9416,10359 9415,10361 9415,10362 9415,10364 9415,10366 9415,10369 L 9415,10521 C 9415,10524 9414,10526 9414,10527 9414,10528 9413,10528 9411,10528 9409,10528 9408,10527 9406,10524 L 9292,10359 C 9292,10358 9291,10357 9289,10356 L 9289,10499 C 9289,10502 9290,10504 9290,10506 9290,10508 9291,10510 9293,10512 9295,10515 9297,10517 9302,10518 9306,10519 9311,10520 9318,10520 L 9318,10528 C 9299,10528 9288,10528 9286,10528 9283,10528 9272,10528 9253,10528 Z"/>
        </g>
       </g>
       <g class="com.sun.star.drawing.ClosedBezierShape">
        <g id="id5">
         <rect class="BoundingBox" stroke="none" fill="none" x="9459" y="10405" width="125" height="127"/>
         <path fill="rgb(0,0,0)" stroke="none" d="M 9477,10513 C 9465,10501 9459,10487 9459,10469 9459,10452 9465,10437 9477,10424 9489,10411 9504,10405 9521,10405 9538,10405 9552,10411 9564,10424 9576,10437 9582,10452 9582,10469 9582,10487 9576,10501 9564,10513 9552,10525 9537,10531 9521,10531 9504,10531 9490,10525 9477,10513 Z M 9482,10467 C 9482,10485 9484,10498 9489,10506 9496,10518 9507,10524 9521,10524 9528,10524 9534,10522 9540,10519 9546,10515 9550,10510 9553,10504 9557,10496 9559,10484 9559,10467 9559,10450 9557,10437 9552,10429 9545,10417 9534,10411 9521,10411 9515,10411 9509,10413 9503,10416 9497,10419 9492,10423 9489,10429 9484,10438 9482,10450 9482,10467 Z"/>
        </g>
       </g>
      </g>
     </g>
    </g>
   </g>
  </g>
 </g>
</svg>