<?xml version="1.0" encoding="UTF-8"?>
<!DOCTYPE svg PUBLIC "-//W3C//DTD SVG 1.1//EN" "http://www.w3.org/Graphics/SVG/1.1/DTD/svg11.dtd">
<svg version="1.2" width="254mm" height="142.88mm" viewBox="0 0 25400 14288" preserveAspectRatio="xMidYMid" fill-rule="evenodd" stroke-width="28.222" stroke-linejoin="round" xmlns="http://www.w3.org/2000/svg" xmlns:ooo="http://xml.openoffice.org/svg/export" xmlns:xlink="http://www.w3.org/1999/xlink" xmlns:presentation="http://sun.com/xmlns/staroffice/presentation" xmlns:smil="http://www.w3.org/2001/SMIL20/" xmlns:anim="urn:oasis:names:tc:opendocument:xmlns:animation:1.0" xml:space="preserve">
 <defs class="ClipPathGroup">
  <clipPath id="presentation_clip_path" clipPathUnits="userSpaceOnUse">
   <rect x="0" y="0" width="25400" height="14288"/>
  </clipPath>
  <clipPath id="presentation_clip_path_shrink" clipPathUnits="userSpaceOnUse">
   <rect x="25" y="14" width="25350" height="14260"/>
  </clipPath>
 </defs>
 <defs class="TextShapeIndex">
  <g ooo:slide="id1" ooo:id-list="id3 id4 id5 id6 id7 id8 id9 id10 id11 id12 id13 id14 id15 id16 id17 id18 id19 id20 id21 id22 id23 id24 id25 id26 id27"/>
 </defs>
 <defs class="EmbeddedBulletChars">
  <g id="bullet-char-template-57356" transform="scale(0.00048828125,-0.00048828125)">
   <path d="M 580,1141 L 1163,571 580,0 -4,571 580,1141 Z"/>
  </g>
  <g id="bullet-char-template-57354" transform="scale(0.00048828125,-0.00048828125)">
   <path d="M 8,1128 L 1137,1128 1137,0 8,0 8,1128 Z"/>
  </g>
  <g id="bullet-char-template-10146" transform="scale(0.00048828125,-0.00048828125)">
   <path d="M 174,0 L 602,739 174,1481 1456,739 174,0 Z M 1358,739 L 309,1346 659,739 1358,739 Z"/>
  </g>
  <g id="bullet-char-template-10132" transform="scale(0.00048828125,-0.00048828125)">
   <path d="M 2015,739 L 1276,0 717,0 1260,543 174,543 174,936 1260,936 717,1481 1274,1481 2015,739 Z"/>
  </g>
  <g id="bullet-char-template-10007" transform="scale(0.00048828125,-0.00048828125)">
   <path d="M 0,-2 C -7,14 -16,27 -25,37 L 356,567 C 262,823 215,952 215,954 215,979 228,992 255,992 264,992 276,990 289,987 310,991 331,999 354,1012 L 381,999 492,748 772,1049 836,1024 860,1049 C 881,1039 901,1025 922,1006 886,937 835,863 770,784 769,783 710,716 594,584 L 774,223 C 774,196 753,168 711,139 L 727,119 C 717,90 699,76 672,76 641,76 570,178 457,381 L 164,-76 C 142,-110 111,-127 72,-127 30,-127 9,-110 8,-76 1,-67 -2,-52 -2,-32 -2,-23 -1,-13 0,-2 Z"/>
  </g>
  <g id="bullet-char-template-10004" transform="scale(0.00048828125,-0.00048828125)">
   <path d="M 285,-33 C 182,-33 111,30 74,156 52,228 41,333 41,471 41,549 55,616 82,672 116,743 169,778 240,778 293,778 328,747 346,684 L 369,508 C 377,444 397,411 428,410 L 1163,1116 C 1174,1127 1196,1133 1229,1133 1271,1133 1292,1118 1292,1087 L 1292,965 C 1292,929 1282,901 1262,881 L 442,47 C 390,-6 338,-33 285,-33 Z"/>
  </g>
  <g id="bullet-char-template-9679" transform="scale(0.00048828125,-0.00048828125)">
   <path d="M 813,0 C 632,0 489,54 383,161 276,268 223,411 223,592 223,773 276,916 383,1023 489,1130 632,1184 813,1184 992,1184 1136,1130 1245,1023 1353,916 1407,772 1407,592 1407,412 1353,268 1245,161 1136,54 992,0 813,0 Z"/>
  </g>
  <g id="bullet-char-template-8226" transform="scale(0.00048828125,-0.00048828125)">
   <path d="M 346,457 C 273,457 209,483 155,535 101,586 74,649 74,723 74,796 101,859 155,911 209,963 273,989 346,989 419,989 480,963 531,910 582,859 608,796 608,723 608,648 583,586 532,535 482,483 420,457 346,457 Z"/>
  </g>
  <g id="bullet-char-template-8211" transform="scale(0.00048828125,-0.00048828125)">
   <path d="M -4,459 L 1135,459 1135,606 -4,606 -4,459 Z"/>
  </g>
  <g id="bullet-char-template-61548" transform="scale(0.00048828125,-0.00048828125)">
   <path d="M 173,740 C 173,903 231,1043 346,1159 462,1274 601,1332 765,1332 928,1332 1067,1274 1183,1159 1299,1043 1357,903 1357,740 1357,577 1299,437 1183,322 1067,206 928,148 765,148 601,148 462,206 346,322 231,437 173,577 173,740 Z"/>
  </g>
 </defs>
 <g>
  <g id="id2" class="Master_Slide">
   <g id="bg-id2" class="Background"/>
   <g id="bo-id2" class="BackgroundObjects"/>
  </g>
 </g>
 <g class="SlideGroup">
  <g>
   <g id="container-id1">
    <g id="id1" class="Slide" clip-path="url(#presentation_clip_path)">
     <g class="Page">
      <g class="Group">
       <g class="com.sun.star.drawing.ClosedBezierShape">
        <g id="id3">
         <rect class="BoundingBox" stroke="none" fill="none" x="4371" y="2340" width="2874" height="2273"/>
         <path fill="rgb(0,0,0)" stroke="none" d="M 4372,4611 C 4372,3854 4372,3098 4372,2341 5329,2341 6286,2341 7243,2341 7243,3098 7243,3854 7243,4611 6286,4611 5329,4611 4372,4611 Z"/>
         <path fill="none" stroke="rgb(0,0,0)" d="M 4372,4611 L 4372,2341 7243,2341 7243,4611 4372,4611 Z"/>
        </g>
       </g>
       <g class="com.sun.star.drawing.ClosedBezierShape">
        <g id="id4">
         <rect class="BoundingBox" stroke="none" fill="none" x="4371" y="2340" width="578" height="571"/>
         <path fill="rgb(255,255,255)" stroke="none" d="M 4659,2341 C 4822,2341 4946,2464 4946,2625 4946,2785 4822,2908 4659,2908 4496,2908 4372,2785 4372,2625 4372,2464 4496,2341 4659,2341 Z M 4372,2341 L 4372,2341 Z M 4947,2909 L 4947,2909 Z"/>
         <path fill="none" stroke="rgb(0,0,0)" d="M 4659,2341 C 4822,2341 4946,2464 4946,2625 4946,2785 4822,2908 4659,2908 4496,2908 4372,2785 4372,2625 4372,2464 4496,2341 4659,2341 Z"/>
         <path fill="none" stroke="rgb(0,0,0)" d="M 4372,2341 L 4372,2341 Z"/>
         <path fill="none" stroke="rgb(0,0,0)" d="M 4947,2909 L 4947,2909 Z"/>
        </g>
       </g>
       <g class="com.sun.star.drawing.ClosedBezierShape">
        <g id="id5">
         <rect class="BoundingBox" stroke="none" fill="none" x="4945" y="2340" width="578" height="571"/>
         <path fill="rgb(255,255,255)" stroke="none" d="M 5233,2341 C 5396,2341 5520,2464 5520,2625 5520,2785 5396,2908 5233,2908 5070,2908 4946,2785 4946,2625 4946,2464 5070,2341 5233,2341 Z M 4946,2341 L 4946,2341 Z M 5521,2909 L 5521,2909 Z"/>
         <path fill="none" stroke="rgb(0,0,0)" d="M 5233,2341 C 5396,2341 5520,2464 5520,2625 5520,2785 5396,2908 5233,2908 5070,2908 4946,2785 4946,2625 4946,2464 5070,2341 5233,2341 Z"/>
         <path fill="none" stroke="rgb(0,0,0)" d="M 4946,2341 L 4946,2341 Z"/>
         <path fill="none" stroke="rgb(0,0,0)" d="M 5521,2909 L 5521,2909 Z"/>
        </g>
       </g>
       <g class="com.sun.star.drawing.ClosedBezierShape">
        <g id="id6">
         <rect class="BoundingBox" stroke="none" fill="none" x="5519" y="2340" width="578" height="571"/>
         <path fill="rgb(255,255,255)" stroke="none" d="M 5807,2341 C 5970,2341 6095,2464 6095,2625 6095,2785 5970,2908 5807,2908 5644,2908 5520,2785 5520,2625 5520,2464 5644,2341 5807,2341 Z M 5520,2341 L 5520,2341 Z M 6095,2909 L 6095,2909 Z"/>
         <path fill="none" stroke="rgb(0,0,0)" d="M 5807,2341 C 5970,2341 6095,2464 6095,2625 6095,2785 5970,2908 5807,2908 5644,2908 5520,2785 5520,2625 5520,2464 5644,2341 5807,2341 Z"/>
         <path fill="none" stroke="rgb(0,0,0)" d="M 5520,2341 L 5520,2341 Z"/>
         <path fill="none" stroke="rgb(0,0,0)" d="M 6095,2909 L 6095,2909 Z"/>
        </g>
       </g>
       <g class="com.sun.star.drawing.ClosedBezierShape">
        <g id="id7">
         <rect class="BoundingBox" stroke="none" fill="none" x="6094" y="2340" width="578" height="571"/>
         <path fill="rgb(255,255,255)" stroke="none" d="M 6382,2341 C 6545,2341 6669,2464 6669,2625 6669,2785 6545,2908 6382,2908 6219,2908 6095,2785 6095,2625 6095,2464 6219,2341 6382,2341 Z M 6095,2341 L 6095,2341 Z M 6670,2909 L 6670,2909 Z"/>
         <path fill="none" stroke="rgb(0,0,0)" d="M 6382,2341 C 6545,2341 6669,2464 6669,2625 6669,2785 6545,2908 6382,2908 6219,2908 6095,2785 6095,2625 6095,2464 6219,2341 6382,2341 Z"/>
         <path fill="none" stroke="rgb(0,0,0)" d="M 6095,2341 L 6095,2341 Z"/>
         <path fill="none" stroke="rgb(0,0,0)" d="M 6670,2909 L 6670,2909 Z"/>
        </g>
       </g>
       <g class="com.sun.star.drawing.ClosedBezierShape">
        <g id="id8">
         <rect class="BoundingBox" stroke="none" fill="none" x="6668" y="2340" width="578" height="571"/>
         <path fill="rgb(255,255,255)" stroke="none" d="M 6956,2341 C 7119,2341 7243,2464 7243,2625 7243,2785 7119,2908 6956,2908 6793,2908 6669,2785 6669,2625 6669,2464 6793,2341 6956,2341 Z M 6669,2341 L 6669,2341 Z M 7244,2909 L 7244,2909 Z"/>
         <path fill="none" stroke="rgb(0,0,0)" d="M 6956,2341 C 7119,2341 7243,2464 7243,2625 7243,2785 7119,2908 6956,2908 6793,2908 6669,2785 6669,2625 6669,2464 6793,2341 6956,2341 Z"/>
         <path fill="none" stroke="rgb(0,0,0)" d="M 6669,2341 L 6669,2341 Z"/>
         <path fill="none" stroke="rgb(0,0,0)" d="M 7244,2909 L 7244,2909 Z"/>
        </g>
       </g>
       <g class="Group">
        <g class="com.sun.star.drawing.ClosedBezierShape">
         <g id="id9">
          <rect class="BoundingBox" stroke="none" fill="none" x="6094" y="2907" width="578" height="571"/>
          <path fill="rgb(0,102,179)" stroke="none" d="M 6382,2908 C 6545,2908 6669,3031 6669,3192 6669,3352 6545,3476 6382,3476 6219,3476 6095,3352 6095,3192 6095,3031 6219,2908 6382,2908 Z M 6095,2908 L 6095,2908 Z M 6670,3476 L 6670,3476 Z"/>
          <path fill="none" stroke="rgb(0,0,0)" d="M 6382,2908 C 6545,2908 6669,3031 6669,3192 6669,3352 6545,3476 6382,3476 6219,3476 6095,3352 6095,3192 6095,3031 6219,2908 6382,2908 Z"/>
          <path fill="none" stroke="rgb(0,0,0)" d="M 6095,2908 L 6095,2908 Z"/>
          <path fill="none" stroke="rgb(0,0,0)" d="M 6670,3476 L 6670,3476 Z"/>
         </g>
        </g>
        <g class="com.sun.star.drawing.ClosedBezierShape">
         <g id="id10">
          <rect class="BoundingBox" stroke="none" fill="none" x="6313" y="3069" width="150" height="248"/>
          <path fill="rgb(255,255,255)" stroke="none" d="M 6313,3315 C 6313,3303 6313,3291 6313,3279 6331,3279 6349,3279 6367,3279 6367,3223 6367,3167 6367,3111 6350,3123 6332,3135 6315,3148 6315,3135 6315,3122 6315,3109 6333,3096 6351,3082 6370,3069 6384,3069 6397,3069 6411,3069 6411,3139 6411,3209 6411,3279 6428,3279 6445,3279 6462,3279 6462,3291 6462,3303 6462,3315 6412,3315 6363,3315 6313,3315 Z"/>
         </g>
        </g>
       </g>
       <g class="com.sun.star.drawing.ClosedBezierShape">
        <g id="id11">
         <rect class="BoundingBox" stroke="none" fill="none" x="4945" y="2907" width="578" height="571"/>
         <path fill="rgb(0,102,179)" stroke="none" d="M 5233,2908 C 5396,2908 5520,3031 5520,3192 5520,3352 5396,3476 5233,3476 5070,3476 4946,3352 4946,3192 4946,3031 5070,2908 5233,2908 Z M 4946,2908 L 4946,2908 Z M 5521,3476 L 5521,3476 Z"/>
         <path fill="none" stroke="rgb(0,0,0)" d="M 5233,2908 C 5396,2908 5520,3031 5520,3192 5520,3352 5396,3476 5233,3476 5070,3476 4946,3352 4946,3192 4946,3031 5070,2908 5233,2908 Z"/>
         <path fill="none" stroke="rgb(0,0,0)" d="M 4946,2908 L 4946,2908 Z"/>
         <path fill="none" stroke="rgb(0,0,0)" d="M 5521,3476 L 5521,3476 Z"/>
        </g>
       </g>
       <g class="com.sun.star.drawing.ClosedBezierShape">
        <g id="id12">
         <rect class="BoundingBox" stroke="none" fill="none" x="5519" y="2907" width="578" height="571"/>
         <path fill="rgb(0,102,179)" stroke="none" d="M 5807,2908 C 5970,2908 6095,3031 6095,3192 6095,3352 5970,3476 5807,3476 5644,3476 5520,3352 5520,3192 5520,3031 5644,2908 5807,2908 Z M 5520,2908 L 5520,2908 Z M 6095,3476 L 6095,3476 Z"/>
         <path fill="none" stroke="rgb(0,0,0)" d="M 5807,2908 C 5970,2908 6095,3031 6095,3192 6095,3352 5970,3476 5807,3476 5644,3476 5520,3352 5520,3192 5520,3031 5644,2908 5807,2908 Z"/>
         <path fill="none" stroke="rgb(0,0,0)" d="M 5520,2908 L 5520,2908 Z"/>
         <path fill="none" stroke="rgb(0,0,0)" d="M 6095,3476 L 6095,3476 Z"/>
        </g>
       </g>
       <g class="com.sun.star.drawing.ClosedBezierShape">
        <g id="id13">
         <rect class="BoundingBox" stroke="none" fill="none" x="4371" y="2907" width="578" height="571"/>
         <path fill="rgb(0,102,179)" stroke="none" d="M 4659,2908 C 4822,2908 4946,3031 4946,3192 4946,3352 4822,3476 4659,3476 4496,3476 4372,3352 4372,3192 4372,3031 4496,2908 4659,2908 Z M 4372,2908 L 4372,2908 Z M 4947,3476 L 4947,3476 Z"/>
         <path fill="none" stroke="rgb(0,0,0)" d="M 4659,2908 C 4822,2908 4946,3031 4946,3192 4946,3352 4822,3476 4659,3476 4496,3476 4372,3352 4372,3192 4372,3031 4496,2908 4659,2908 Z"/>
         <path fill="none" stroke="rgb(0,0,0)" d="M 4372,2908 L 4372,2908 Z"/>
         <path fill="none" stroke="rgb(0,0,0)" d="M 4947,3476 L 4947,3476 Z"/>
        </g>
       </g>
       <g class="com.sun.star.drawing.ClosedBezierShape">
        <g id="id14">
         <rect class="BoundingBox" stroke="none" fill="none" x="6668" y="2907" width="578" height="571"/>
         <path fill="rgb(0,102,179)" stroke="none" d="M 6956,2908 C 7119,2908 7243,3031 7243,3192 7243,3352 7119,3476 6956,3476 6793,3476 6669,3352 6669,3192 6669,3031 6793,2908 6956,2908 Z M 6669,2908 L 6669,2908 Z M 7244,3476 L 7244,3476 Z"/>
         <path fill="none" stroke="rgb(0,0,0)" d="M 6956,2908 C 7119,2908 7243,3031 7243,3192 7243,3352 7119,3476 6956,3476 6793,3476 6669,3352 6669,3192 6669,3031 6793,2908 6956,2908 Z"/>
         <path fill="none" stroke="rgb(0,0,0)" d="M 6669,2908 L 6669,2908 Z"/>
         <path fill="none" stroke="rgb(0,0,0)" d="M 7244,3476 L 7244,3476 Z"/>
        </g>
       </g>
       <g class="com.sun.star.drawing.ClosedBezierShape">
        <g id="id15">
         <rect class="BoundingBox" stroke="none" fill="none" x="4371" y="3475" width="578" height="571"/>
         <path fill="rgb(0,102,179)" stroke="none" d="M 4659,3476 C 4822,3476 4946,3599 4946,3760 4946,3920 4822,4043 4659,4043 4496,4043 4372,3920 4372,3760 4372,3599 4496,3476 4659,3476 Z M 4372,3476 L 4372,3476 Z M 4947,4044 L 4947,4044 Z"/>
         <path fill="none" stroke="rgb(0,0,0)" d="M 4659,3476 C 4822,3476 4946,3599 4946,3760 4946,3920 4822,4043 4659,4043 4496,4043 4372,3920 4372,3760 4372,3599 4496,3476 4659,3476 Z"/>
         <path fill="none" stroke="rgb(0,0,0)" d="M 4372,3476 L 4372,3476 Z"/>
         <path fill="none" stroke="rgb(0,0,0)" d="M 4947,4044 L 4947,4044 Z"/>
        </g>
       </g>
       <g class="com.sun.star.drawing.ClosedBezierShape">
        <g id="id16">
         <rect class="BoundingBox" stroke="none" fill="none" x="4945" y="3475" width="578" height="571"/>
         <path fill="rgb(0,102,179)" stroke="none" d="M 5233,3476 C 5396,3476 5520,3599 5520,3760 5520,3920 5396,4043 5233,4043 5070,4043 4946,3920 4946,3760 4946,3599 5070,3476 5233,3476 Z M 4946,3476 L 4946,3476 Z M 5521,4044 L 5521,4044 Z"/>
         <path fill="none" stroke="rgb(0,0,0)" d="M 5233,3476 C 5396,3476 5520,3599 5520,3760 5520,3920 5396,4043 5233,4043 5070,4043 4946,3920 4946,3760 4946,3599 5070,3476 5233,3476 Z"/>
         <path fill="none" stroke="rgb(0,0,0)" d="M 4946,3476 L 4946,3476 Z"/>
         <path fill="none" stroke="rgb(0,0,0)" d="M 5521,4044 L 5521,4044 Z"/>
        </g>
       </g>
       <g class="com.sun.star.drawing.ClosedBezierShape">
        <g id="id17">
         <rect class="BoundingBox" stroke="none" fill="none" x="5519" y="3475" width="578" height="571"/>
         <path fill="rgb(0,102,179)" stroke="none" d="M 5807,3476 C 5970,3476 6095,3599 6095,3760 6095,3920 5970,4043 5807,4043 5644,4043 5520,3920 5520,3760 5520,3599 5644,3476 5807,3476 Z M 5520,3476 L 5520,3476 Z M 6095,4044 L 6095,4044 Z"/>
         <path fill="none" stroke="rgb(0,0,0)" d="M 5807,3476 C 5970,3476 6095,3599 6095,3760 6095,3920 5970,4043 5807,4043 5644,4043 5520,3920 5520,3760 5520,3599 5644,3476 5807,3476 Z"/>
         <path fill="none" stroke="rgb(0,0,0)" d="M 5520,3476 L 5520,3476 Z"/>
         <path fill="none" stroke="rgb(0,0,0)" d="M 6095,4044 L 6095,4044 Z"/>
        </g>
       </g>
       <g class="com.sun.star.drawing.ClosedBezierShape">
        <g id="id18">
         <rect class="BoundingBox" stroke="none" fill="none" x="6094" y="3487" width="578" height="571"/>
         <path fill="rgb(0,102,179)" stroke="none" d="M 6382,3488 C 6545,3488 6669,3611 6669,3772 6669,3932 6545,4056 6382,4056 6219,4056 6095,3932 6095,3772 6095,3611 6219,3488 6382,3488 Z M 6095,3488 L 6095,3488 Z M 6670,4056 L 6670,4056 Z"/>
         <path fill="none" stroke="rgb(0,0,0)" d="M 6382,3488 C 6545,3488 6669,3611 6669,3772 6669,3932 6545,4056 6382,4056 6219,4056 6095,3932 6095,3772 6095,3611 6219,3488 6382,3488 Z"/>
         <path fill="none" stroke="rgb(0,0,0)" d="M 6095,3488 L 6095,3488 Z"/>
         <path fill="none" stroke="rgb(0,0,0)" d="M 6670,4056 L 6670,4056 Z"/>
        </g>
       </g>
       <g class="com.sun.star.drawing.ClosedBezierShape">
        <g id="id19">
         <rect class="BoundingBox" stroke="none" fill="none" x="6668" y="3475" width="578" height="571"/>
         <path fill="rgb(0,102,179)" stroke="none" d="M 6956,3476 C 7119,3476 7243,3599 7243,3760 7243,3920 7119,4043 6956,4043 6793,4043 6669,3920 6669,3760 6669,3599 6793,3476 6956,3476 Z M 6669,3476 L 6669,3476 Z M 7244,4044 L 7244,4044 Z"/>
         <path fill="none" stroke="rgb(0,0,0)" d="M 6956,3476 C 7119,3476 7243,3599 7243,3760 7243,3920 7119,4043 6956,4043 6793,4043 6669,3920 6669,3760 6669,3599 6793,3476 6956,3476 Z"/>
         <path fill="none" stroke="rgb(0,0,0)" d="M 6669,3476 L 6669,3476 Z"/>
         <path fill="none" stroke="rgb(0,0,0)" d="M 7244,4044 L 7244,4044 Z"/>
        </g>
       </g>
       <g class="com.sun.star.drawing.ClosedBezierShape">
        <g id="id20">
         <rect class="BoundingBox" stroke="none" fill="none" x="4371" y="4043" width="578" height="571"/>
         <path fill="rgb(0,102,179)" stroke="none" d="M 4659,4044 C 4822,4044 4946,4167 4946,4328 4946,4488 4822,4611 4659,4611 4496,4611 4372,4488 4372,4328 4372,4167 4496,4044 4659,4044 Z M 4372,4044 L 4372,4044 Z M 4947,4612 L 4947,4612 Z"/>
         <path fill="none" stroke="rgb(0,0,0)" d="M 4659,4044 C 4822,4044 4946,4167 4946,4328 4946,4488 4822,4611 4659,4611 4496,4611 4372,4488 4372,4328 4372,4167 4496,4044 4659,4044 Z"/>
         <path fill="none" stroke="rgb(0,0,0)" d="M 4372,4044 L 4372,4044 Z"/>
         <path fill="none" stroke="rgb(0,0,0)" d="M 4947,4612 L 4947,4612 Z"/>
        </g>
       </g>
       <g class="com.sun.star.drawing.ClosedBezierShape">
        <g id="id21">
         <rect class="BoundingBox" stroke="none" fill="none" x="4945" y="4043" width="578" height="571"/>
         <path fill="rgb(0,102,179)" stroke="none" d="M 5233,4044 C 5396,4044 5520,4167 5520,4328 5520,4488 5396,4611 5233,4611 5070,4611 4946,4488 4946,4328 4946,4167 5070,4044 5233,4044 Z M 4946,4044 L 4946,4044 Z M 5521,4612 L 5521,4612 Z"/>
         <path fill="none" stroke="rgb(0,0,0)" d="M 5233,4044 C 5396,4044 5520,4167 5520,4328 5520,4488 5396,4611 5233,4611 5070,4611 4946,4488 4946,4328 4946,4167 5070,4044 5233,4044 Z"/>
         <path fill="none" stroke="rgb(0,0,0)" d="M 4946,4044 L 4946,4044 Z"/>
         <path fill="none" stroke="rgb(0,0,0)" d="M 5521,4612 L 5521,4612 Z"/>
        </g>
       </g>
       <g class="com.sun.star.drawing.ClosedBezierShape">
        <g id="id22">
         <rect class="BoundingBox" stroke="none" fill="none" x="5519" y="4043" width="578" height="571"/>
         <path fill="rgb(0,102,179)" stroke="none" d="M 5807,4044 C 5970,4044 6095,4167 6095,4328 6095,4488 5970,4611 5807,4611 5644,4611 5520,4488 5520,4328 5520,4167 5644,4044 5807,4044 Z M 5520,4044 L 5520,4044 Z M 6095,4612 L 6095,4612 Z"/>
         <path fill="none" stroke="rgb(0,0,0)" d="M 5807,4044 C 5970,4044 6095,4167 6095,4328 6095,4488 5970,4611 5807,4611 5644,4611 5520,4488 5520,4328 5520,4167 5644,4044 5807,4044 Z"/>
         <path fill="none" stroke="rgb(0,0,0)" d="M 5520,4044 L 5520,4044 Z"/>
         <path fill="none" stroke="rgb(0,0,0)" d="M 6095,4612 L 6095,4612 Z"/>
        </g>
       </g>
       <g class="com.sun.star.drawing.ClosedBezierShape">
        <g id="id23">
         <rect class="BoundingBox" stroke="none" fill="none" x="6094" y="4043" width="578" height="571"/>
         <path fill="rgb(0,102,179)" stroke="none" d="M 6382,4044 C 6545,4044 6669,4167 6669,4328 6669,4488 6545,4611 6382,4611 6219,4611 6095,4488 6095,4328 6095,4167 6219,4044 6382,4044 Z M 6095,4044 L 6095,4044 Z M 6670,4612 L 6670,4612 Z"/>
         <path fill="none" stroke="rgb(0,0,0)" d="M 6382,4044 C 6545,4044 6669,4167 6669,4328 6669,4488 6545,4611 6382,4611 6219,4611 6095,4488 6095,4328 6095,4167 6219,4044 6382,4044 Z"/>
         <path fill="none" stroke="rgb(0,0,0)" d="M 6095,4044 L 6095,4044 Z"/>
         <path fill="none" stroke="rgb(0,0,0)" d="M 6670,4612 L 6670,4612 Z"/>
        </g>
       </g>
       <g class="Group">
        <g class="com.sun.star.drawing.ClosedBezierShape">
         <g id="id24">
          <rect class="BoundingBox" stroke="none" fill="none" x="6668" y="4043" width="578" height="571"/>
          <path fill="rgb(0,102,179)" stroke="none" d="M 6956,4044 C 7119,4044 7243,4167 7243,4328 7243,4488 7119,4611 6956,4611 6793,4611 6669,4488 6669,4328 6669,4167 6793,4044 6956,4044 Z M 6669,4044 L 6669,4044 Z M 7244,4612 L 7244,4612 Z"/>
          <path fill="none" stroke="rgb(0,0,0)" d="M 6956,4044 C 7119,4044 7243,4167 7243,4328 7243,4488 7119,4611 6956,4611 6793,4611 6669,4488 6669,4328 6669,4167 6793,4044 6956,4044 Z"/>
          <path fill="none" stroke="rgb(0,0,0)" d="M 6669,4044 L 6669,4044 Z"/>
          <path fill="none" stroke="rgb(0,0,0)" d="M 7244,4612 L 7244,4612 Z"/>
         </g>
        </g>
        <g class="com.sun.star.drawing.ClosedBezierShape">
         <g id="id25">
          <rect class="BoundingBox" stroke="none" fill="none" x="6878" y="4200" width="155" height="252"/>
          <path fill="rgb(255,255,255)" stroke="none" d="M 6878,4450 L 6878,4416 C 6884,4402 6892,4388 6902,4375 6913,4361 6926,4347 6942,4333 6958,4319 6968,4307 6975,4298 6981,4289 6984,4280 6984,4271 6984,4250 6974,4239 6955,4239 6946,4239 6939,4242 6934,4248 6929,4253 6925,4262 6924,4273 L 6880,4270 C 6882,4247 6890,4230 6903,4218 6915,4206 6933,4200 6955,4200 6978,4200 6997,4206 7009,4218 7022,4230 7028,4247 7028,4269 7028,4281 7026,4291 7022,4301 7018,4310 7013,4319 7007,4326 7000,4334 6993,4342 6985,4349 6978,4355 6970,4362 6963,4369 6956,4375 6949,4382 6943,4388 6937,4395 6933,4402 6930,4410 L 7032,4410 7032,4450 6878,4450 Z"/>
         </g>
        </g>
       </g>
      </g>
      <g class="Group">
       <g class="com.sun.star.drawing.ClosedBezierShape">
        <g id="id26">
         <rect class="BoundingBox" stroke="none" fill="none" x="3921" y="3295" width="204" height="280"/>
         <path fill="rgb(0,0,0)" stroke="none" d="M 3921,3563 L 3921,3491 C 3921,3486 3921,3483 3922,3482 3923,3481 3926,3480 3931,3480 3933,3480 3934,3480 3936,3480 3937,3481 3938,3481 3938,3482 3939,3483 3939,3484 3940,3484 3940,3485 3940,3487 3940,3489 3941,3503 3944,3514 3951,3524 3958,3533 3967,3540 3977,3545 3988,3549 3997,3552 4006,3553 4015,3555 4025,3556 4034,3556 4052,3556 4066,3551 4074,3541 4082,3532 4086,3521 4086,3510 4086,3497 4080,3486 4070,3475 4066,3471 4061,3468 4056,3467 4050,3465 4038,3462 4019,3458 3995,3453 3978,3449 3969,3445 3961,3442 3952,3436 3943,3427 3928,3412 3921,3394 3921,3374 3921,3352 3929,3333 3944,3318 3960,3303 3982,3295 4010,3295 4037,3295 4060,3302 4079,3317 L 4096,3299 C 4100,3296 4102,3295 4104,3295 4108,3295 4110,3296 4110,3297 4111,3299 4112,3302 4112,3306 L 4112,3378 C 4112,3383 4111,3386 4110,3387 4109,3389 4107,3389 4102,3389 4098,3389 4096,3389 4095,3388 4094,3387 4093,3384 4092,3379 4089,3362 4083,3349 4074,3338 4064,3327 4055,3321 4044,3317 4034,3314 4023,3312 4011,3312 3993,3312 3980,3316 3972,3325 3964,3333 3960,3343 3960,3353 3960,3364 3964,3373 3972,3381 3980,3388 3988,3392 3998,3394 L 4056,3407 C 4075,3411 4091,3420 4104,3435 4118,3451 4124,3469 4124,3490 4124,3512 4117,3532 4102,3549 4087,3566 4064,3574 4034,3574 4000,3574 3974,3567 3954,3552 L 3936,3571 C 3933,3573 3931,3574 3928,3574 3925,3574 3923,3573 3922,3572 3921,3571 3921,3568 3921,3563 Z"/>
        </g>
       </g>
       <g class="com.sun.star.drawing.ClosedBezierShape">
        <g id="id27">
         <rect class="BoundingBox" stroke="none" fill="none" x="4171" y="3496" width="96" height="150"/>
         <path fill="rgb(0,0,0)" stroke="none" d="M 4171,3521 L 4171,3511 4176,3511 C 4195,3511 4210,3506 4222,3498 4223,3497 4225,3496 4227,3496 4230,3496 4232,3496 4232,3497 4233,3498 4233,3500 4233,3503 L 4233,3635 4266,3635 4266,3645 C 4259,3645 4243,3645 4220,3645 4196,3645 4180,3645 4174,3645 L 4174,3635 4206,3635 4206,3517 C 4196,3520 4186,3521 4176,3521 L 4171,3521 Z"/>
        </g>
       </g>
      </g>
     </g>
    </g>
   </g>
  </g>
 </g>
</svg>