<?xml version="1.0" encoding="UTF-8"?>
<!DOCTYPE svg PUBLIC "-//W3C//DTD SVG 1.1//EN" "http://www.w3.org/Graphics/SVG/1.1/DTD/svg11.dtd">
<svg version="1.2" width="254mm" height="142.88mm" viewBox="0 0 25400 14288" preserveAspectRatio="xMidYMid" fill-rule="evenodd" stroke-width="28.222" stroke-linejoin="round" xmlns="http://www.w3.org/2000/svg" xmlns:ooo="http://xml.openoffice.org/svg/export" xmlns:xlink="http://www.w3.org/1999/xlink" xmlns:presentation="http://sun.com/xmlns/staroffice/presentation" xmlns:smil="http://www.w3.org/2001/SMIL20/" xmlns:anim="urn:oasis:names:tc:opendocument:xmlns:animation:1.0" xml:space="preserve">
 <defs class="ClipPathGroup">
  <clipPath id="presentation_clip_path" clipPathUnits="userSpaceOnUse">
   <rect x="0" y="0" width="25400" height="14288"/>
  </clipPath>
  <clipPath id="presentation_clip_path_shrink" clipPathUnits="userSpaceOnUse">
   <rect x="25" y="14" width="25350" height="14260"/>
  </clipPath>
 </defs>
 <defs class="TextShapeIndex">
  <g ooo:slide="id1" ooo:id-list="id3 id4 id5 id6 id7 id8 id9 id10 id11 id12 id13 id14 id15 id16 id17 id18 id19 id20 id21 id22 id23 id24 id25 id26 id27 id28 id29 id30 id31 id32 id33 id34 id35"/>
 </defs>
 <defs class="EmbeddedBulletChars">
  <g id="bullet-char-template-57356" transform="scale(0.00048828125,-0.00048828125)">
   <path d="M 580,1141 L 1163,571 580,0 -4,571 580,1141 Z"/>
  </g>
  <g id="bullet-char-template-57354" transform="scale(0.00048828125,-0.00048828125)">
   <path d="M 8,1128 L 1137,1128 1137,0 8,0 8,1128 Z"/>
  </g>
  <g id="bullet-char-template-10146" transform="scale(0.00048828125,-0.00048828125)">
   <path d="M 174,0 L 602,739 174,1481 1456,739 174,0 Z M 1358,739 L 309,1346 659,739 1358,739 Z"/>
  </g>
  <g id="bullet-char-template-10132" transform="scale(0.00048828125,-0.00048828125)">
   <path d="M 2015,739 L 1276,0 717,0 1260,543 174,543 174,936 1260,936 717,1481 1274,1481 2015,739 Z"/>
  </g>
  <g id="bullet-char-template-10007" transform="scale(0.00048828125,-0.00048828125)">
   <path d="M 0,-2 C -7,14 -16,27 -25,37 L 356,567 C 262,823 215,952 215,954 215,979 228,992 255,992 264,992 276,990 289,987 310,991 331,999 354,1012 L 381,999 492,748 772,1049 836,1024 860,1049 C 881,1039 901,1025 922,1006 886,937 835,863 770,784 769,783 710,716 594,584 L 774,223 C 774,196 753,168 711,139 L 727,119 C 717,90 699,76 672,76 641,76 570,178 457,381 L 164,-76 C 142,-110 111,-127 72,-127 30,-127 9,-110 8,-76 1,-67 -2,-52 -2,-32 -2,-23 -1,-13 0,-2 Z"/>
  </g>
  <g id="bullet-char-template-10004" transform="scale(0.00048828125,-0.00048828125)">
   <path d="M 285,-33 C 182,-33 111,30 74,156 52,228 41,333 41,471 41,549 55,616 82,672 116,743 169,778 240,778 293,778 328,747 346,684 L 369,508 C 377,444 397,411 428,410 L 1163,1116 C 1174,1127 1196,1133 1229,1133 1271,1133 1292,1118 1292,1087 L 1292,965 C 1292,929 1282,901 1262,881 L 442,47 C 390,-6 338,-33 285,-33 Z"/>
  </g>
  <g id="bullet-char-template-9679" transform="scale(0.00048828125,-0.00048828125)">
   <path d="M 813,0 C 632,0 489,54 383,161 276,268 223,411 223,592 223,773 276,916 383,1023 489,1130 632,1184 813,1184 992,1184 1136,1130 1245,1023 1353,916 1407,772 1407,592 1407,412 1353,268 1245,161 1136,54 992,0 813,0 Z"/>
  </g>
  <g id="bullet-char-template-8226" transform="scale(0.00048828125,-0.00048828125)">
   <path d="M 346,457 C 273,457 209,483 155,535 101,586 74,649 74,723 74,796 101,859 155,911 209,963 273,989 346,989 419,989 480,963 531,910 582,859 608,796 608,723 608,648 583,586 532,535 482,483 420,457 346,457 Z"/>
  </g>
  <g id="bullet-char-template-8211" transform="scale(0.00048828125,-0.00048828125)">
   <path d="M -4,459 L 1135,459 1135,606 -4,606 -4,459 Z"/>
  </g>
  <g id="bullet-char-template-61548" transform="scale(0.00048828125,-0.00048828125)">
   <path d="M 173,740 C 173,903 231,1043 346,1159 462,1274 601,1332 765,1332 928,1332 1067,1274 1183,1159 1299,1043 1357,903 1357,740 1357,577 1299,437 1183,322 1067,206 928,148 765,148 601,148 462,206 346,322 231,437 173,577 173,740 Z"/>
  </g>
 </defs>
 <g>
  <g id="id2" class="Master_Slide">
   <g id="bg-id2" class="Background"/>
   <g id="bo-id2" class="BackgroundObjects"/>
  </g>
 </g>
 <g class="SlideGroup">
  <g>
   <g id="container-id1">
    <g id="id1" class="Slide" clip-path="url(#presentation_clip_path)">
     <g class="Page">
      <g class="Group">
       <g class="com.sun.star.drawing.ClosedBezierShape">
        <g id="id3">
         <rect class="BoundingBox" stroke="none" fill="none" x="4371" y="5355" width="2874" height="2273"/>
         <path fill="rgb(0,0,0)" stroke="none" d="M 4372,7626 C 4372,6869 4372,6113 4372,5356 5329,5356 6286,5356 7243,5356 7243,6113 7243,6869 7243,7626 6286,7626 5329,7626 4372,7626 Z"/>
         <path fill="none" stroke="rgb(0,0,0)" d="M 4372,7626 L 4372,5356 7243,5356 7243,7626 4372,7626 Z"/>
        </g>
       </g>
       <g class="com.sun.star.drawing.ClosedBezierShape">
        <g id="id4">
         <rect class="BoundingBox" stroke="none" fill="none" x="4371" y="5355" width="578" height="571"/>
         <path fill="rgb(255,255,255)" stroke="none" d="M 4659,5356 C 4822,5356 4946,5479 4946,5640 4946,5800 4822,5923 4659,5923 4496,5923 4372,5800 4372,5640 4372,5479 4496,5356 4659,5356 Z M 4372,5356 L 4372,5356 Z M 4947,5924 L 4947,5924 Z"/>
         <path fill="none" stroke="rgb(0,0,0)" d="M 4659,5356 C 4822,5356 4946,5479 4946,5640 4946,5800 4822,5923 4659,5923 4496,5923 4372,5800 4372,5640 4372,5479 4496,5356 4659,5356 Z"/>
         <path fill="none" stroke="rgb(0,0,0)" d="M 4372,5356 L 4372,5356 Z"/>
         <path fill="none" stroke="rgb(0,0,0)" d="M 4947,5924 L 4947,5924 Z"/>
        </g>
       </g>
       <g class="com.sun.star.drawing.ClosedBezierShape">
        <g id="id5">
         <rect class="BoundingBox" stroke="none" fill="none" x="4945" y="5355" width="578" height="571"/>
         <path fill="rgb(255,255,255)" stroke="none" d="M 5233,5356 C 5396,5356 5520,5479 5520,5640 5520,5800 5396,5923 5233,5923 5070,5923 4946,5800 4946,5640 4946,5479 5070,5356 5233,5356 Z M 4946,5356 L 4946,5356 Z M 5521,5924 L 5521,5924 Z"/>
         <path fill="none" stroke="rgb(0,0,0)" d="M 5233,5356 C 5396,5356 5520,5479 5520,5640 5520,5800 5396,5923 5233,5923 5070,5923 4946,5800 4946,5640 4946,5479 5070,5356 5233,5356 Z"/>
         <path fill="none" stroke="rgb(0,0,0)" d="M 4946,5356 L 4946,5356 Z"/>
         <path fill="none" stroke="rgb(0,0,0)" d="M 5521,5924 L 5521,5924 Z"/>
        </g>
       </g>
       <g class="com.sun.star.drawing.ClosedBezierShape">
        <g id="id6">
         <rect class="BoundingBox" stroke="none" fill="none" x="5519" y="5355" width="578" height="571"/>
         <path fill="rgb(255,255,255)" stroke="none" d="M 5807,5356 C 5970,5356 6095,5479 6095,5640 6095,5800 5970,5923 5807,5923 5644,5923 5520,5800 5520,5640 5520,5479 5644,5356 5807,5356 Z M 5520,5356 L 5520,5356 Z M 6095,5924 L 6095,5924 Z"/>
         <path fill="none" stroke="rgb(0,0,0)" d="M 5807,5356 C 5970,5356 6095,5479 6095,5640 6095,5800 5970,5923 5807,5923 5644,5923 5520,5800 5520,5640 5520,5479 5644,5356 5807,5356 Z"/>
         <path fill="none" stroke="rgb(0,0,0)" d="M 5520,5356 L 5520,5356 Z"/>
         <path fill="none" stroke="rgb(0,0,0)" d="M 6095,5924 L 6095,5924 Z"/>
        </g>
       </g>
       <g class="com.sun.star.drawing.ClosedBezierShape">
        <g id="id7">
         <rect class="BoundingBox" stroke="none" fill="none" x="6094" y="5355" width="578" height="571"/>
         <path fill="rgb(255,255,255)" stroke="none" d="M 6382,5356 C 6545,5356 6669,5479 6669,5640 6669,5800 6545,5923 6382,5923 6219,5923 6095,5800 6095,5640 6095,5479 6219,5356 6382,5356 Z M 6095,5356 L 6095,5356 Z M 6670,5924 L 6670,5924 Z"/>
         <path fill="none" stroke="rgb(0,0,0)" d="M 6382,5356 C 6545,5356 6669,5479 6669,5640 6669,5800 6545,5923 6382,5923 6219,5923 6095,5800 6095,5640 6095,5479 6219,5356 6382,5356 Z"/>
         <path fill="none" stroke="rgb(0,0,0)" d="M 6095,5356 L 6095,5356 Z"/>
         <path fill="none" stroke="rgb(0,0,0)" d="M 6670,5924 L 6670,5924 Z"/>
        </g>
       </g>
       <g class="com.sun.star.drawing.ClosedBezierShape">
        <g id="id8">
         <rect class="BoundingBox" stroke="none" fill="none" x="6668" y="5355" width="578" height="571"/>
         <path fill="rgb(255,255,255)" stroke="none" d="M 6956,5356 C 7119,5356 7243,5479 7243,5640 7243,5800 7119,5923 6956,5923 6793,5923 6669,5800 6669,5640 6669,5479 6793,5356 6956,5356 Z M 6669,5356 L 6669,5356 Z M 7244,5924 L 7244,5924 Z"/>
         <path fill="none" stroke="rgb(0,0,0)" d="M 6956,5356 C 7119,5356 7243,5479 7243,5640 7243,5800 7119,5923 6956,5923 6793,5923 6669,5800 6669,5640 6669,5479 6793,5356 6956,5356 Z"/>
         <path fill="none" stroke="rgb(0,0,0)" d="M 6669,5356 L 6669,5356 Z"/>
         <path fill="none" stroke="rgb(0,0,0)" d="M 7244,5924 L 7244,5924 Z"/>
        </g>
       </g>
       <g class="Group">
        <g class="com.sun.star.drawing.ClosedBezierShape">
         <g id="id9">
          <rect class="BoundingBox" stroke="none" fill="none" x="5519" y="6491" width="578" height="571"/>
          <path fill="rgb(0,102,179)" stroke="none" d="M 5807,6492 C 5970,6492 6095,6615 6095,6776 6095,6936 5970,7059 5807,7059 5644,7059 5520,6936 5520,6776 5520,6615 5644,6492 5807,6492 Z M 5520,6492 L 5520,6492 Z M 6095,7060 L 6095,7060 Z"/>
          <path fill="none" stroke="rgb(0,0,0)" d="M 5807,6492 C 5970,6492 6095,6615 6095,6776 6095,6936 5970,7059 5807,7059 5644,7059 5520,6936 5520,6776 5520,6615 5644,6492 5807,6492 Z"/>
          <path fill="none" stroke="rgb(0,0,0)" d="M 5520,6492 L 5520,6492 Z"/>
          <path fill="none" stroke="rgb(0,0,0)" d="M 6095,7060 L 6095,7060 Z"/>
         </g>
        </g>
        <g class="com.sun.star.drawing.ClosedBezierShape">
         <g id="id10">
          <rect class="BoundingBox" stroke="none" fill="none" x="5739" y="6652" width="150" height="248"/>
          <path fill="rgb(255,255,255)" stroke="none" d="M 5739,6898 C 5739,6886 5739,6874 5739,6862 5757,6862 5775,6862 5793,6862 5793,6806 5793,6750 5793,6694 5776,6706 5758,6718 5741,6731 5741,6718 5741,6705 5741,6692 5759,6679 5777,6665 5796,6652 5810,6652 5823,6652 5837,6652 5837,6722 5837,6792 5837,6862 5854,6862 5871,6862 5888,6862 5888,6874 5888,6886 5888,6898 5838,6898 5789,6898 5739,6898 Z"/>
         </g>
        </g>
       </g>
       <g class="com.sun.star.drawing.ClosedBezierShape">
        <g id="id11">
         <rect class="BoundingBox" stroke="none" fill="none" x="4945" y="5922" width="578" height="571"/>
         <path fill="rgb(0,102,179)" stroke="none" d="M 5233,5923 C 5396,5923 5520,6046 5520,6207 5520,6367 5396,6491 5233,6491 5070,6491 4946,6367 4946,6207 4946,6046 5070,5923 5233,5923 Z M 4946,5923 L 4946,5923 Z M 5521,6491 L 5521,6491 Z"/>
         <path fill="none" stroke="rgb(0,0,0)" d="M 5233,5923 C 5396,5923 5520,6046 5520,6207 5520,6367 5396,6491 5233,6491 5070,6491 4946,6367 4946,6207 4946,6046 5070,5923 5233,5923 Z"/>
         <path fill="none" stroke="rgb(0,0,0)" d="M 4946,5923 L 4946,5923 Z"/>
         <path fill="none" stroke="rgb(0,0,0)" d="M 5521,6491 L 5521,6491 Z"/>
        </g>
       </g>
       <g class="com.sun.star.drawing.ClosedBezierShape">
        <g id="id12">
         <rect class="BoundingBox" stroke="none" fill="none" x="5519" y="5922" width="578" height="571"/>
         <path fill="rgb(0,102,179)" stroke="none" d="M 5807,5923 C 5970,5923 6095,6046 6095,6207 6095,6367 5970,6491 5807,6491 5644,6491 5520,6367 5520,6207 5520,6046 5644,5923 5807,5923 Z M 5520,5923 L 5520,5923 Z M 6095,6491 L 6095,6491 Z"/>
         <path fill="none" stroke="rgb(0,0,0)" d="M 5807,5923 C 5970,5923 6095,6046 6095,6207 6095,6367 5970,6491 5807,6491 5644,6491 5520,6367 5520,6207 5520,6046 5644,5923 5807,5923 Z"/>
         <path fill="none" stroke="rgb(0,0,0)" d="M 5520,5923 L 5520,5923 Z"/>
         <path fill="none" stroke="rgb(0,0,0)" d="M 6095,6491 L 6095,6491 Z"/>
        </g>
       </g>
       <g class="com.sun.star.drawing.ClosedBezierShape">
        <g id="id13">
         <rect class="BoundingBox" stroke="none" fill="none" x="6094" y="5922" width="578" height="571"/>
         <path fill="rgb(0,102,179)" stroke="none" d="M 6382,5923 C 6545,5923 6669,6046 6669,6207 6669,6367 6545,6491 6382,6491 6219,6491 6095,6367 6095,6207 6095,6046 6219,5923 6382,5923 Z M 6095,5923 L 6095,5923 Z M 6670,6491 L 6670,6491 Z"/>
         <path fill="none" stroke="rgb(0,0,0)" d="M 6382,5923 C 6545,5923 6669,6046 6669,6207 6669,6367 6545,6491 6382,6491 6219,6491 6095,6367 6095,6207 6095,6046 6219,5923 6382,5923 Z"/>
         <path fill="none" stroke="rgb(0,0,0)" d="M 6095,5923 L 6095,5923 Z"/>
         <path fill="none" stroke="rgb(0,0,0)" d="M 6670,6491 L 6670,6491 Z"/>
        </g>
       </g>
       <g class="com.sun.star.drawing.ClosedBezierShape">
        <g id="id14">
         <rect class="BoundingBox" stroke="none" fill="none" x="6668" y="5922" width="578" height="571"/>
         <path fill="rgb(0,102,179)" stroke="none" d="M 6956,5923 C 7119,5923 7243,6046 7243,6207 7243,6367 7119,6491 6956,6491 6793,6491 6669,6367 6669,6207 6669,6046 6793,5923 6956,5923 Z M 6669,5923 L 6669,5923 Z M 7244,6491 L 7244,6491 Z"/>
         <path fill="none" stroke="rgb(0,0,0)" d="M 6956,5923 C 7119,5923 7243,6046 7243,6207 7243,6367 7119,6491 6956,6491 6793,6491 6669,6367 6669,6207 6669,6046 6793,5923 6956,5923 Z"/>
         <path fill="none" stroke="rgb(0,0,0)" d="M 6669,5923 L 6669,5923 Z"/>
         <path fill="none" stroke="rgb(0,0,0)" d="M 7244,6491 L 7244,6491 Z"/>
        </g>
       </g>
       <g class="com.sun.star.drawing.ClosedBezierShape">
        <g id="id15">
         <rect class="BoundingBox" stroke="none" fill="none" x="4371" y="6491" width="578" height="571"/>
         <path fill="rgb(0,102,179)" stroke="none" d="M 4659,6492 C 4822,6492 4946,6615 4946,6776 4946,6936 4822,7059 4659,7059 4496,7059 4372,6936 4372,6776 4372,6615 4496,6492 4659,6492 Z M 4372,6492 L 4372,6492 Z M 4947,7060 L 4947,7060 Z"/>
         <path fill="none" stroke="rgb(0,0,0)" d="M 4659,6492 C 4822,6492 4946,6615 4946,6776 4946,6936 4822,7059 4659,7059 4496,7059 4372,6936 4372,6776 4372,6615 4496,6492 4659,6492 Z"/>
         <path fill="none" stroke="rgb(0,0,0)" d="M 4372,6492 L 4372,6492 Z"/>
         <path fill="none" stroke="rgb(0,0,0)" d="M 4947,7060 L 4947,7060 Z"/>
        </g>
       </g>
       <g class="com.sun.star.drawing.ClosedBezierShape">
        <g id="id16">
         <rect class="BoundingBox" stroke="none" fill="none" x="4945" y="6491" width="578" height="571"/>
         <path fill="rgb(0,102,179)" stroke="none" d="M 5233,6492 C 5396,6492 5520,6615 5520,6776 5520,6936 5396,7059 5233,7059 5070,7059 4946,6936 4946,6776 4946,6615 5070,6492 5233,6492 Z M 4946,6492 L 4946,6492 Z M 5521,7060 L 5521,7060 Z"/>
         <path fill="none" stroke="rgb(0,0,0)" d="M 5233,6492 C 5396,6492 5520,6615 5520,6776 5520,6936 5396,7059 5233,7059 5070,7059 4946,6936 4946,6776 4946,6615 5070,6492 5233,6492 Z"/>
         <path fill="none" stroke="rgb(0,0,0)" d="M 4946,6492 L 4946,6492 Z"/>
         <path fill="none" stroke="rgb(0,0,0)" d="M 5521,7060 L 5521,7060 Z"/>
        </g>
       </g>
       <g class="com.sun.star.drawing.ClosedBezierShape">
        <g id="id17">
         <rect class="BoundingBox" stroke="none" fill="none" x="4371" y="5922" width="578" height="571"/>
         <path fill="rgb(0,102,179)" stroke="none" d="M 4659,5923 C 4822,5923 4946,6046 4946,6207 4946,6367 4822,6491 4659,6491 4496,6491 4372,6367 4372,6207 4372,6046 4496,5923 4659,5923 Z M 4372,5923 L 4372,5923 Z M 4947,6491 L 4947,6491 Z"/>
         <path fill="none" stroke="rgb(0,0,0)" d="M 4659,5923 C 4822,5923 4946,6046 4946,6207 4946,6367 4822,6491 4659,6491 4496,6491 4372,6367 4372,6207 4372,6046 4496,5923 4659,5923 Z"/>
         <path fill="none" stroke="rgb(0,0,0)" d="M 4372,5923 L 4372,5923 Z"/>
         <path fill="none" stroke="rgb(0,0,0)" d="M 4947,6491 L 4947,6491 Z"/>
        </g>
       </g>
       <g class="com.sun.star.drawing.ClosedBezierShape">
        <g id="id18">
         <rect class="BoundingBox" stroke="none" fill="none" x="6094" y="7058" width="578" height="571"/>
         <path fill="rgb(0,102,179)" stroke="none" d="M 6382,7059 C 6545,7059 6669,7182 6669,7343 6669,7503 6545,7626 6382,7626 6219,7626 6095,7503 6095,7343 6095,7182 6219,7059 6382,7059 Z M 6095,7059 L 6095,7059 Z M 6670,7627 L 6670,7627 Z"/>
         <path fill="none" stroke="rgb(0,0,0)" d="M 6382,7059 C 6545,7059 6669,7182 6669,7343 6669,7503 6545,7626 6382,7626 6219,7626 6095,7503 6095,7343 6095,7182 6219,7059 6382,7059 Z"/>
         <path fill="none" stroke="rgb(0,0,0)" d="M 6095,7059 L 6095,7059 Z"/>
         <path fill="none" stroke="rgb(0,0,0)" d="M 6670,7627 L 6670,7627 Z"/>
        </g>
       </g>
       <g class="com.sun.star.drawing.ClosedBezierShape">
        <g id="id19">
         <rect class="BoundingBox" stroke="none" fill="none" x="6668" y="6491" width="578" height="571"/>
         <path fill="rgb(0,102,179)" stroke="none" d="M 6956,6492 C 7119,6492 7243,6615 7243,6776 7243,6936 7119,7059 6956,7059 6793,7059 6669,6936 6669,6776 6669,6615 6793,6492 6956,6492 Z M 6669,6492 L 6669,6492 Z M 7244,7060 L 7244,7060 Z"/>
         <path fill="none" stroke="rgb(0,0,0)" d="M 6956,6492 C 7119,6492 7243,6615 7243,6776 7243,6936 7119,7059 6956,7059 6793,7059 6669,6936 6669,6776 6669,6615 6793,6492 6956,6492 Z"/>
         <path fill="none" stroke="rgb(0,0,0)" d="M 6669,6492 L 6669,6492 Z"/>
         <path fill="none" stroke="rgb(0,0,0)" d="M 7244,7060 L 7244,7060 Z"/>
        </g>
       </g>
       <g class="com.sun.star.drawing.ClosedBezierShape">
        <g id="id20">
         <rect class="BoundingBox" stroke="none" fill="none" x="4371" y="7058" width="578" height="571"/>
         <path fill="rgb(0,102,179)" stroke="none" d="M 4659,7059 C 4822,7059 4946,7182 4946,7343 4946,7503 4822,7626 4659,7626 4496,7626 4372,7503 4372,7343 4372,7182 4496,7059 4659,7059 Z M 4372,7059 L 4372,7059 Z M 4947,7627 L 4947,7627 Z"/>
         <path fill="none" stroke="rgb(0,0,0)" d="M 4659,7059 C 4822,7059 4946,7182 4946,7343 4946,7503 4822,7626 4659,7626 4496,7626 4372,7503 4372,7343 4372,7182 4496,7059 4659,7059 Z"/>
         <path fill="none" stroke="rgb(0,0,0)" d="M 4372,7059 L 4372,7059 Z"/>
         <path fill="none" stroke="rgb(0,0,0)" d="M 4947,7627 L 4947,7627 Z"/>
        </g>
       </g>
       <g class="com.sun.star.drawing.ClosedBezierShape">
        <g id="id21">
         <rect class="BoundingBox" stroke="none" fill="none" x="4945" y="7058" width="578" height="571"/>
         <path fill="rgb(0,102,179)" stroke="none" d="M 5233,7059 C 5396,7059 5520,7182 5520,7343 5520,7503 5396,7626 5233,7626 5070,7626 4946,7503 4946,7343 4946,7182 5070,7059 5233,7059 Z M 4946,7059 L 4946,7059 Z M 5521,7627 L 5521,7627 Z"/>
         <path fill="none" stroke="rgb(0,0,0)" d="M 5233,7059 C 5396,7059 5520,7182 5520,7343 5520,7503 5396,7626 5233,7626 5070,7626 4946,7503 4946,7343 4946,7182 5070,7059 5233,7059 Z"/>
         <path fill="none" stroke="rgb(0,0,0)" d="M 4946,7059 L 4946,7059 Z"/>
         <path fill="none" stroke="rgb(0,0,0)" d="M 5521,7627 L 5521,7627 Z"/>
        </g>
       </g>
       <g class="com.sun.star.drawing.ClosedBezierShape">
        <g id="id22">
         <rect class="BoundingBox" stroke="none" fill="none" x="5519" y="7058" width="578" height="571"/>
         <path fill="rgb(0,102,179)" stroke="none" d="M 5807,7059 C 5970,7059 6095,7182 6095,7343 6095,7503 5970,7626 5807,7626 5644,7626 5520,7503 5520,7343 5520,7182 5644,7059 5807,7059 Z M 5520,7059 L 5520,7059 Z M 6095,7627 L 6095,7627 Z"/>
         <path fill="none" stroke="rgb(0,0,0)" d="M 5807,7059 C 5970,7059 6095,7182 6095,7343 6095,7503 5970,7626 5807,7626 5644,7626 5520,7503 5520,7343 5520,7182 5644,7059 5807,7059 Z"/>
         <path fill="none" stroke="rgb(0,0,0)" d="M 5520,7059 L 5520,7059 Z"/>
         <path fill="none" stroke="rgb(0,0,0)" d="M 6095,7627 L 6095,7627 Z"/>
        </g>
       </g>
       <g class="com.sun.star.drawing.ClosedBezierShape">
        <g id="id23">
         <rect class="BoundingBox" stroke="none" fill="none" x="6668" y="7058" width="578" height="571"/>
         <path fill="rgb(0,102,179)" stroke="none" d="M 6956,7059 C 7119,7059 7243,7182 7243,7343 7243,7503 7119,7626 6956,7626 6793,7626 6669,7503 6669,7343 6669,7182 6793,7059 6956,7059 Z M 6669,7059 L 6669,7059 Z M 7244,7627 L 7244,7627 Z"/>
         <path fill="none" stroke="rgb(0,0,0)" d="M 6956,7059 C 7119,7059 7243,7182 7243,7343 7243,7503 7119,7626 6956,7626 6793,7626 6669,7503 6669,7343 6669,7182 6793,7059 6956,7059 Z"/>
         <path fill="none" stroke="rgb(0,0,0)" d="M 6669,7059 L 6669,7059 Z"/>
         <path fill="none" stroke="rgb(0,0,0)" d="M 7244,7627 L 7244,7627 Z"/>
        </g>
       </g>
       <g class="Group">
        <g class="com.sun.star.drawing.ClosedBezierShape">
         <g id="id24">
          <rect class="BoundingBox" stroke="none" fill="none" x="6094" y="6491" width="578" height="571"/>
          <path fill="rgb(0,102,179)" stroke="none" d="M 6382,6492 C 6545,6492 6669,6615 6669,6776 6669,6936 6545,7059 6382,7059 6219,7059 6095,6936 6095,6776 6095,6615 6219,6492 6382,6492 Z M 6095,6492 L 6095,6492 Z M 6670,7060 L 6670,7060 Z"/>
          <path fill="none" stroke="rgb(0,0,0)" d="M 6382,6492 C 6545,6492 6669,6615 6669,6776 6669,6936 6545,7059 6382,7059 6219,7059 6095,6936 6095,6776 6095,6615 6219,6492 6382,6492 Z"/>
          <path fill="none" stroke="rgb(0,0,0)" d="M 6095,6492 L 6095,6492 Z"/>
          <path fill="none" stroke="rgb(0,0,0)" d="M 6670,7060 L 6670,7060 Z"/>
         </g>
        </g>
        <g class="com.sun.star.drawing.ClosedBezierShape">
         <g id="id25">
          <rect class="BoundingBox" stroke="none" fill="none" x="6304" y="6648" width="156" height="251"/>
          <path fill="rgb(255,255,255)" stroke="none" d="M 6304,6898 L 6304,6864 C 6310,6850 6318,6836 6328,6823 6339,6809 6352,6795 6368,6781 6384,6767 6394,6755 6401,6746 6407,6737 6410,6728 6410,6719 6410,6698 6400,6687 6381,6687 6372,6687 6365,6690 6360,6696 6355,6701 6351,6710 6350,6721 L 6306,6718 C 6308,6695 6316,6678 6329,6666 6341,6654 6359,6648 6381,6648 6404,6648 6423,6654 6435,6666 6448,6678 6454,6695 6454,6717 6454,6729 6452,6739 6448,6749 6444,6758 6439,6767 6433,6774 6426,6782 6419,6790 6411,6797 6404,6803 6396,6810 6389,6817 6382,6823 6375,6830 6369,6836 6363,6843 6359,6850 6356,6858 L 6458,6858 6458,6898 6304,6898 Z"/>
         </g>
        </g>
       </g>
      </g>
      <g class="com.sun.star.drawing.OpenBezierShape">
       <g id="id26">
        <rect class="BoundingBox" stroke="none" fill="none" x="5807" y="4554" width="13726" height="811"/>
        <path fill="none" stroke="rgb(0,0,0)" d="M 19531,4555 L 6237,5215"/>
        <path fill="rgb(0,0,0)" stroke="none" d="M 5807,5236 L 6264,5363 6249,5064 5807,5236 Z"/>
       </g>
      </g>
      <g class="Group">
       <g class="com.sun.star.drawing.ClosedBezierShape">
        <g id="id27">
         <rect class="BoundingBox" stroke="none" fill="none" x="12528" y="4974" width="233" height="196"/>
         <path fill="rgb(0,0,0)" stroke="none" d="M 12528,5166 L 12528,5153 12559,5153 12559,4987 12528,4987 12528,4974 12636,4974 C 12661,4974 12682,4979 12697,4989 12712,4999 12720,5011 12720,5026 12720,5036 12716,5045 12708,5053 12700,5061 12688,5067 12673,5071 12691,5078 12701,5088 12704,5104 12704,5104 12705,5108 12706,5115 12707,5122 12707,5126 12707,5127 12708,5131 12709,5135 12709,5137 12710,5140 12711,5143 12712,5147 12714,5151 12716,5154 12718,5156 12721,5158 12724,5159 12728,5159 12733,5159 12737,5157 12740,5154 12744,5150 12746,5146 12747,5140 12747,5138 12747,5137 12747,5136 12747,5135 12748,5135 12749,5134 12750,5133 12751,5133 12753,5133 12758,5133 12760,5135 12760,5139 12760,5141 12760,5142 12759,5144 12759,5146 12758,5149 12757,5152 12755,5155 12753,5157 12751,5160 12749,5162 12745,5164 12741,5166 12737,5168 12732,5169 12726,5169 12708,5169 12694,5166 12684,5162 12680,5159 12676,5157 12673,5154 12670,5151 12668,5148 12667,5144 12666,5140 12665,5136 12665,5133 12665,5130 12664,5126 12664,5120 12664,5109 12664,5101 12663,5097 12662,5093 12660,5089 12655,5085 12650,5078 12641,5075 12630,5075 L 12597,5075 12597,5153 12628,5153 12628,5166 C 12621,5165 12604,5165 12578,5165 12551,5165 12535,5165 12528,5166 Z M 12597,5065 L 12630,5065 C 12639,5065 12646,5064 12653,5062 12659,5060 12663,5058 12667,5056 12670,5054 12672,5050 12674,5046 12675,5042 12676,5039 12676,5036 12677,5034 12677,5030 12677,5026 12677,5021 12676,5018 12676,5015 12676,5012 12675,5009 12673,5005 12672,5001 12669,4998 12666,4995 12663,4993 12659,4991 12653,4989 12647,4988 12639,4987 12630,4987 L 12597,4987 12597,5065 Z"/>
        </g>
       </g>
       <g class="com.sun.star.drawing.ClosedBezierShape">
        <g id="id28">
         <rect class="BoundingBox" stroke="none" fill="none" x="12769" y="5039" width="133" height="129"/>
         <path fill="rgb(0,0,0)" stroke="none" d="M 12770,5103 C 12770,5085 12776,5069 12789,5057 12801,5045 12818,5039 12840,5039 12859,5039 12874,5044 12885,5054 12895,5065 12901,5079 12901,5097 12901,5101 12900,5103 12899,5104 12898,5104 12895,5105 12892,5105 L 12806,5105 C 12806,5139 12820,5156 12846,5156 12856,5156 12864,5154 12871,5150 12879,5146 12884,5141 12887,5134 12888,5131 12889,5130 12889,5129 12890,5128 12892,5128 12894,5128 12899,5128 12901,5130 12901,5133 12901,5134 12900,5136 12899,5138 12898,5141 12896,5144 12894,5147 12891,5151 12887,5154 12883,5157 12879,5160 12874,5162 12867,5164 12860,5166 12852,5167 12844,5167 12821,5167 12803,5161 12790,5149 12777,5137 12770,5122 12770,5103 Z M 12806,5095 L 12874,5095 C 12873,5065 12862,5049 12840,5049 12828,5049 12819,5054 12813,5064 12809,5069 12807,5080 12806,5095 Z"/>
        </g>
       </g>
       <g class="com.sun.star.drawing.ClosedBezierShape">
        <g id="id29">
         <rect class="BoundingBox" stroke="none" fill="none" x="12920" y="5039" width="108" height="129"/>
         <path fill="rgb(0,0,0)" stroke="none" d="M 12920,5160 L 12920,5129 C 12920,5126 12920,5123 12921,5122 12922,5121 12924,5121 12927,5121 12929,5121 12931,5121 12931,5122 12932,5122 12933,5123 12934,5125 12935,5129 12936,5132 12937,5135 12939,5138 12941,5142 12944,5145 12947,5149 12951,5152 12956,5154 12961,5156 12967,5157 12974,5157 12996,5157 13007,5150 13007,5136 13007,5132 13006,5129 13003,5126 13001,5123 12998,5121 12994,5120 12990,5118 12987,5117 12985,5116 12982,5116 12979,5115 12975,5115 12966,5113 12960,5112 12956,5111 12952,5110 12948,5109 12944,5107 12939,5105 12935,5102 12931,5099 12924,5093 12920,5085 12920,5076 12920,5070 12921,5065 12923,5060 12925,5056 12928,5052 12932,5050 12935,5047 12939,5045 12943,5044 12946,5042 12950,5041 12955,5040 12960,5040 12963,5039 12965,5039 12967,5039 12970,5039 12972,5039 12984,5039 12993,5041 13001,5044 13008,5041 13012,5039 13013,5039 13016,5039 13017,5040 13018,5041 13018,5042 13019,5044 13019,5047 L 13019,5069 C 13019,5073 13018,5075 13018,5076 13017,5077 13015,5077 13012,5077 13009,5077 13007,5077 13006,5076 13006,5075 13005,5074 13005,5071 13004,5056 12993,5048 12972,5048 12951,5048 12940,5054 12940,5065 12940,5068 12941,5071 12943,5073 12945,5076 12947,5077 12951,5079 12955,5080 12958,5081 12960,5082 12962,5082 12965,5083 12969,5083 12981,5086 12990,5087 12995,5089 13001,5091 13006,5093 13011,5097 13022,5105 13027,5115 13027,5127 13027,5133 13026,5139 13024,5144 13022,5149 13019,5153 13015,5155 13011,5158 13008,5160 13004,5162 13000,5164 12996,5165 12992,5166 12987,5167 12983,5167 12981,5167 12979,5167 12977,5167 12974,5167 12961,5167 12950,5164 12941,5158 L 12934,5163 C 12930,5166 12927,5167 12925,5167 12923,5167 12921,5167 12921,5166 12920,5165 12920,5163 12920,5160 Z"/>
        </g>
       </g>
       <g class="com.sun.star.drawing.ClosedBezierShape">
        <g id="id30">
         <rect class="BoundingBox" stroke="none" fill="none" x="13042" y="4988" width="103" height="180"/>
         <path fill="rgb(0,0,0)" stroke="none" d="M 13042,5054 L 13042,5044 C 13055,5044 13065,5039 13073,5027 13080,5016 13084,5003 13084,4988 L 13097,4988 13097,5041 13139,5041 13139,5054 13097,5054 13097,5132 C 13097,5148 13103,5156 13114,5156 13118,5156 13122,5154 13126,5150 13129,5146 13131,5139 13131,5130 L 13131,5116 13144,5116 13144,5131 C 13144,5141 13141,5150 13135,5157 13129,5164 13121,5167 13110,5167 13080,5167 13065,5155 13065,5131 L 13065,5054 13042,5054 Z"/>
        </g>
       </g>
       <g class="com.sun.star.drawing.ClosedBezierShape">
        <g id="id31">
         <rect class="BoundingBox" stroke="none" fill="none" x="13172" y="5039" width="150" height="129"/>
         <path fill="rgb(0,0,0)" stroke="none" d="M 13172,5136 C 13172,5109 13203,5094 13264,5092 L 13264,5082 C 13264,5060 13254,5049 13233,5049 13225,5049 13219,5050 13212,5051 13217,5054 13219,5058 13219,5065 13219,5070 13217,5075 13213,5078 13210,5081 13206,5082 13201,5082 13197,5082 13193,5081 13189,5078 13185,5075 13183,5070 13183,5065 13183,5048 13200,5039 13234,5039 13254,5039 13270,5043 13280,5051 13291,5059 13296,5069 13296,5082 L 13296,5142 C 13296,5145 13296,5147 13297,5148 13297,5149 13299,5150 13301,5151 13304,5152 13308,5153 13314,5153 13315,5153 13316,5153 13317,5153 13318,5153 13319,5154 13320,5155 13320,5155 13321,5157 13321,5159 13321,5162 13320,5164 13319,5165 13318,5165 13315,5166 13312,5166 L 13298,5166 C 13291,5166 13286,5165 13281,5164 13277,5162 13274,5161 13272,5158 13271,5155 13270,5153 13269,5151 13269,5150 13269,5147 13269,5144 13261,5160 13247,5167 13227,5167 13221,5167 13215,5167 13210,5166 13204,5165 13198,5164 13192,5162 13186,5160 13181,5156 13178,5152 13174,5147 13172,5142 13172,5136 Z M 13205,5135 C 13205,5141 13208,5147 13213,5151 13218,5155 13224,5157 13231,5157 13233,5157 13236,5157 13239,5156 13242,5155 13246,5154 13250,5152 13254,5150 13257,5147 13260,5143 13263,5138 13264,5133 13264,5127 L 13264,5101 C 13260,5101 13256,5101 13252,5101 13249,5102 13244,5103 13237,5104 13231,5106 13226,5108 13222,5110 13217,5112 13213,5116 13210,5120 13207,5124 13205,5129 13205,5135 Z"/>
        </g>
       </g>
       <g class="com.sun.star.drawing.ClosedBezierShape">
        <g id="id32">
         <rect class="BoundingBox" stroke="none" fill="none" x="13331" y="5038" width="116" height="128"/>
         <path fill="rgb(0,0,0)" stroke="none" d="M 13331,5165 L 13331,5152 13351,5152 13351,5065 C 13351,5060 13350,5057 13348,5056 13346,5055 13340,5054 13331,5054 L 13331,5041 13378,5039 13378,5071 C 13386,5050 13398,5039 13416,5039 13424,5039 13431,5041 13437,5045 13443,5049 13446,5055 13446,5062 13446,5067 13444,5071 13440,5074 13437,5077 13433,5079 13428,5079 13424,5079 13420,5078 13416,5075 13413,5072 13411,5067 13411,5062 13411,5057 13413,5053 13416,5049 13410,5049 13404,5051 13399,5055 13394,5058 13391,5063 13388,5069 13386,5075 13384,5080 13383,5086 13382,5092 13381,5097 13381,5103 L 13381,5152 13406,5152 13406,5165 C 13399,5165 13386,5165 13367,5165 13363,5165 13351,5165 13331,5165 Z"/>
        </g>
       </g>
       <g class="com.sun.star.drawing.ClosedBezierShape">
        <g id="id33">
         <rect class="BoundingBox" stroke="none" fill="none" x="13460" y="4988" width="103" height="180"/>
         <path fill="rgb(0,0,0)" stroke="none" d="M 13460,5054 L 13460,5044 C 13473,5044 13483,5039 13491,5027 13498,5016 13502,5003 13502,4988 L 13515,4988 13515,5041 13557,5041 13557,5054 13515,5054 13515,5132 C 13515,5148 13521,5156 13532,5156 13536,5156 13540,5154 13544,5150 13547,5146 13549,5139 13549,5130 L 13549,5116 13562,5116 13562,5131 C 13562,5141 13559,5150 13553,5157 13547,5164 13539,5167 13528,5167 13498,5167 13483,5155 13483,5131 L 13483,5054 13460,5054 Z"/>
        </g>
       </g>
      </g>
      <g class="Group">
       <g class="com.sun.star.drawing.ClosedBezierShape">
        <g id="id34">
         <rect class="BoundingBox" stroke="none" fill="none" x="3922" y="6253" width="204" height="280"/>
         <path fill="rgb(0,0,0)" stroke="none" d="M 3922,6521 L 3922,6449 C 3922,6444 3922,6441 3923,6440 3924,6439 3927,6438 3932,6438 3934,6438 3935,6438 3937,6438 3938,6439 3939,6439 3939,6440 3940,6441 3940,6442 3941,6442 3941,6443 3941,6445 3941,6447 3942,6461 3945,6472 3952,6482 3959,6491 3968,6498 3978,6503 3989,6507 3998,6510 4007,6511 4016,6513 4026,6514 4035,6514 4053,6514 4067,6509 4075,6499 4083,6490 4087,6479 4087,6468 4087,6455 4081,6444 4071,6433 4067,6429 4062,6426 4057,6425 4051,6423 4039,6420 4020,6416 3996,6411 3979,6407 3970,6403 3962,6400 3953,6394 3944,6385 3929,6370 3922,6352 3922,6332 3922,6310 3930,6291 3945,6276 3961,6261 3983,6253 4011,6253 4038,6253 4061,6260 4080,6275 L 4097,6257 C 4101,6254 4103,6253 4105,6253 4109,6253 4111,6254 4111,6255 4112,6257 4113,6260 4113,6264 L 4113,6336 C 4113,6341 4112,6344 4111,6345 4110,6347 4108,6347 4103,6347 4099,6347 4097,6347 4096,6346 4095,6345 4094,6342 4093,6337 4090,6320 4084,6307 4075,6296 4065,6285 4056,6279 4045,6275 4035,6272 4024,6270 4012,6270 3994,6270 3981,6274 3973,6283 3965,6291 3961,6301 3961,6311 3961,6322 3965,6331 3973,6339 3981,6346 3989,6350 3999,6352 L 4057,6365 C 4076,6369 4092,6378 4105,6393 4119,6409 4125,6427 4125,6448 4125,6470 4118,6490 4103,6507 4088,6524 4065,6532 4035,6532 4001,6532 3975,6525 3955,6510 L 3937,6529 C 3934,6531 3932,6532 3929,6532 3926,6532 3924,6531 3923,6530 3922,6529 3922,6526 3922,6521 Z"/>
        </g>
       </g>
       <g class="com.sun.star.drawing.ClosedBezierShape">
        <g id="id35">
         <rect class="BoundingBox" stroke="none" fill="none" x="4165" y="6454" width="107" height="150"/>
         <path fill="rgb(0,0,0)" stroke="none" d="M 4165,6603 L 4165,6599 C 4165,6597 4165,6595 4165,6594 4166,6594 4167,6593 4168,6591 L 4214,6545 C 4231,6528 4239,6512 4239,6497 4239,6488 4237,6480 4231,6474 4226,6468 4218,6465 4209,6465 4200,6465 4192,6467 4185,6473 4187,6473 4188,6474 4190,6475 4192,6475 4194,6477 4195,6480 4197,6482 4198,6485 4198,6489 4198,6494 4197,6498 4193,6501 4190,6504 4186,6505 4182,6505 4178,6505 4174,6504 4170,6501 4167,6499 4165,6495 4165,6489 4165,6478 4170,6470 4179,6464 4189,6457 4201,6454 4215,6454 4231,6454 4245,6458 4255,6466 4266,6474 4271,6484 4271,6497 4271,6502 4271,6507 4269,6511 4267,6515 4265,6520 4260,6524 4256,6528 4252,6532 4248,6535 4244,6538 4238,6542 4230,6548 4223,6554 4212,6562 4197,6575 L 4231,6575 C 4245,6575 4253,6574 4254,6573 4256,6572 4258,6565 4260,6553 L 4271,6553 4264,6603 4165,6603 Z"/>
        </g>
       </g>
      </g>
     </g>
    </g>
   </g>
  </g>
 </g>
</svg>