<?xml version="1.0" encoding="UTF-8"?>
<!DOCTYPE svg PUBLIC "-//W3C//DTD SVG 1.1//EN" "http://www.w3.org/Graphics/SVG/1.1/DTD/svg11.dtd">
<svg version="1.2" width="280mm" height="157.5mm" viewBox="0 0 28000 15750" preserveAspectRatio="xMidYMid" fill-rule="evenodd" stroke-width="28.222" stroke-linejoin="round" xmlns="http://www.w3.org/2000/svg" xmlns:ooo="http://xml.openoffice.org/svg/export" xmlns:xlink="http://www.w3.org/1999/xlink" xmlns:presentation="http://sun.com/xmlns/staroffice/presentation" xmlns:smil="http://www.w3.org/2001/SMIL20/" xmlns:anim="urn:oasis:names:tc:opendocument:xmlns:animation:1.0" xml:space="preserve">
 <defs class="ClipPathGroup">
  <clipPath id="presentation_clip_path" clipPathUnits="userSpaceOnUse">
   <rect x="0" y="0" width="28000" height="15750"/>
  </clipPath>
  <clipPath id="presentation_clip_path_shrink" clipPathUnits="userSpaceOnUse">
   <rect x="28" y="15" width="27944" height="15719"/>
  </clipPath>
 </defs>
 <defs class="TextShapeIndex">
  <g ooo:slide="id1" ooo:id-list="id3 id4 id5 id6 id7 id8 id9 id10 id11 id12 id13 id14 id15 id16 id17 id18 id19"/>
 </defs>
 <defs class="EmbeddedBulletChars">
  <g id="bullet-char-template-57356" transform="scale(0.00048828125,-0.00048828125)">
   <path d="M 580,1141 L 1163,571 580,0 -4,571 580,1141 Z"/>
  </g>
  <g id="bullet-char-template-57354" transform="scale(0.00048828125,-0.00048828125)">
   <path d="M 8,1128 L 1137,1128 1137,0 8,0 8,1128 Z"/>
  </g>
  <g id="bullet-char-template-10146" transform="scale(0.00048828125,-0.00048828125)">
   <path d="M 174,0 L 602,739 174,1481 1456,739 174,0 Z M 1358,739 L 309,1346 659,739 1358,739 Z"/>
  </g>
  <g id="bullet-char-template-10132" transform="scale(0.00048828125,-0.00048828125)">
   <path d="M 2015,739 L 1276,0 717,0 1260,543 174,543 174,936 1260,936 717,1481 1274,1481 2015,739 Z"/>
  </g>
  <g id="bullet-char-template-10007" transform="scale(0.00048828125,-0.00048828125)">
   <path d="M 0,-2 C -7,14 -16,27 -25,37 L 356,567 C 262,823 215,952 215,954 215,979 228,992 255,992 264,992 276,990 289,987 310,991 331,999 354,1012 L 381,999 492,748 772,1049 836,1024 860,1049 C 881,1039 901,1025 922,1006 886,937 835,863 770,784 769,783 710,716 594,584 L 774,223 C 774,196 753,168 711,139 L 727,119 C 717,90 699,76 672,76 641,76 570,178 457,381 L 164,-76 C 142,-110 111,-127 72,-127 30,-127 9,-110 8,-76 1,-67 -2,-52 -2,-32 -2,-23 -1,-13 0,-2 Z"/>
  </g>
  <g id="bullet-char-template-10004" transform="scale(0.00048828125,-0.00048828125)">
   <path d="M 285,-33 C 182,-33 111,30 74,156 52,228 41,333 41,471 41,549 55,616 82,672 116,743 169,778 240,778 293,778 328,747 346,684 L 369,508 C 377,444 397,411 428,410 L 1163,1116 C 1174,1127 1196,1133 1229,1133 1271,1133 1292,1118 1292,1087 L 1292,965 C 1292,929 1282,901 1262,881 L 442,47 C 390,-6 338,-33 285,-33 Z"/>
  </g>
  <g id="bullet-char-template-9679" transform="scale(0.00048828125,-0.00048828125)">
   <path d="M 813,0 C 632,0 489,54 383,161 276,268 223,411 223,592 223,773 276,916 383,1023 489,1130 632,1184 813,1184 992,1184 1136,1130 1245,1023 1353,916 1407,772 1407,592 1407,412 1353,268 1245,161 1136,54 992,0 813,0 Z"/>
  </g>
  <g id="bullet-char-template-8226" transform="scale(0.00048828125,-0.00048828125)">
   <path d="M 346,457 C 273,457 209,483 155,535 101,586 74,649 74,723 74,796 101,859 155,911 209,963 273,989 346,989 419,989 480,963 531,910 582,859 608,796 608,723 608,648 583,586 532,535 482,483 420,457 346,457 Z"/>
  </g>
  <g id="bullet-char-template-8211" transform="scale(0.00048828125,-0.00048828125)">
   <path d="M -4,459 L 1135,459 1135,606 -4,606 -4,459 Z"/>
  </g>
  <g id="bullet-char-template-61548" transform="scale(0.00048828125,-0.00048828125)">
   <path d="M 173,740 C 173,903 231,1043 346,1159 462,1274 601,1332 765,1332 928,1332 1067,1274 1183,1159 1299,1043 1357,903 1357,740 1357,577 1299,437 1183,322 1067,206 928,148 765,148 601,148 462,206 346,322 231,437 173,577 173,740 Z"/>
  </g>
 </defs>
 <g>
  <g id="id2" class="Master_Slide">
   <g id="bg-id2" class="Background"/>
   <g id="bo-id2" class="BackgroundObjects"/>
  </g>
 </g>
 <g class="SlideGroup">
  <g>
   <g id="container-id1">
    <g id="id1" class="Slide" clip-path="url(#presentation_clip_path)">
     <g class="Page">
      <g class="Group">
       <g class="com.sun.star.drawing.CustomShape">
        <g id="id3">
         <rect class="BoundingBox" stroke="none" fill="none" x="9614" y="13007" width="7023" height="2261"/>
         <path fill="none" stroke="rgb(206,24,30)" stroke-width="35" stroke-linejoin="round" d="M 16618,14137 C 16618,14332 16457,14524 16150,14693 15843,14862 15403,15002 14872,15100 14340,15198 13738,15249 13125,15249 12512,15249 11910,15198 11379,15100 10847,15002 10407,14862 10100,14693 9793,14524 9632,14332 9632,14137 9632,13942 9793,13750 10100,13581 10407,13412 10847,13272 11378,13174 11910,13076 12512,13025 13125,13025 13738,13025 14340,13076 14871,13174 15403,13272 15843,13412 16150,13581 16457,13750 16618,13942 16618,14137 L 16618,14137 Z"/>
        </g>
       </g>
       <g class="Group">
        <g class="com.sun.star.drawing.ClosedBezierShape">
         <g id="id4">
          <rect class="BoundingBox" stroke="none" fill="none" x="16781" y="12398" width="661" height="985"/>
          <path fill="rgb(206,24,30)" stroke="none" d="M 17305,13333 C 17284,13340 17261,13335 17236,13321 17204,13302 17168,13260 17128,13194 17089,13127 17046,13032 16999,12907 17002,13020 17001,13111 16996,13179 16991,13247 16983,13297 16972,13327 16961,13358 16948,13376 16932,13381 16925,13383 16918,13382 16910,13379 16891,13371 16873,13346 16855,13306 16847,13287 16840,13266 16833,13243 16828,13226 16821,13201 16813,13169 16805,13136 16798,13093 16791,13039 16779,12940 16778,12848 16788,12762 16788,12758 16789,12755 16792,12753 16794,12750 16796,12748 16799,12747 16804,12746 16807,12747 16810,12750 16812,12751 16813,12753 16814,12756 L 16814,12758 16814,12761 C 16805,12845 16806,12935 16818,13031 16824,13083 16833,13131 16844,13176 16848,13194 16853,13211 16858,13227 16865,13250 16872,13271 16880,13289 16895,13325 16909,13345 16923,13352 16924,13352 16926,13352 16928,13352 16934,13350 16940,13339 16947,13321 16958,13288 16966,13232 16971,13151 16976,13070 16975,12960 16969,12821 16969,12817 16970,12813 16972,12810 16974,12807 16977,12805 16980,12804 16984,12803 16987,12803 16990,12804 16992,12806 16994,12808 16995,12811 17047,12960 17094,13074 17137,13151 17201,13266 17256,13317 17301,13304 17319,13298 17334,13284 17348,13261 17362,13236 17374,13206 17383,13169 17393,13133 17400,13092 17405,13047 17417,12941 17416,12836 17403,12733 17398,12686 17389,12642 17378,12600 17376,12592 17374,12585 17372,12577 17362,12545 17350,12516 17335,12488 17320,12461 17302,12440 17280,12426 17277,12424 17276,12422 17275,12419 17275,12419 17275,12418 17274,12417 17274,12413 17275,12410 17277,12406 17280,12402 17283,12400 17286,12399 17290,12398 17293,12398 17296,12400 17320,12416 17341,12440 17358,12472 17373,12499 17386,12531 17397,12567 17399,12573 17404,12590 17411,12615 17418,12641 17424,12679 17430,12730 17443,12834 17444,12939 17432,13046 17427,13094 17419,13137 17408,13176 17398,13215 17385,13247 17370,13274 17351,13306 17329,13326 17305,13333 Z"/>
         </g>
        </g>
        <g class="com.sun.star.drawing.ClosedBezierShape">
         <g id="id5">
          <rect class="BoundingBox" stroke="none" fill="none" x="17548" y="12772" width="239" height="235"/>
          <path fill="rgb(206,24,30)" stroke="none" d="M 17575,12881 C 17588,12851 17594,12828 17592,12812 17592,12810 17591,12808 17591,12806 L 17590,12804 C 17588,12806 17585,12811 17583,12819 17577,12837 17574,12857 17575,12881 Z M 17634,13003 C 17632,13004 17629,13005 17627,13005 17609,13007 17595,13002 17583,12990 17572,12978 17564,12963 17558,12944 17555,12933 17552,12921 17551,12907 17549,12890 17548,12873 17549,12857 17550,12840 17553,12825 17557,12812 17565,12791 17576,12779 17588,12775 17595,12773 17602,12774 17607,12778 17611,12782 17615,12787 17617,12794 17617,12796 17618,12798 17618,12800 L 17618,12803 C 17620,12814 17618,12831 17613,12851 17608,12872 17597,12896 17582,12925 L 17585,12934 C 17589,12948 17595,12959 17603,12967 17611,12975 17621,12978 17632,12974 17642,12971 17654,12962 17668,12948 17687,12927 17704,12903 17719,12875 17739,12837 17752,12807 17759,12785 17761,12778 17764,12774 17769,12773 17771,12772 17773,12772 17775,12772 17780,12774 17783,12777 17784,12781 L 17785,12783 C 17785,12785 17785,12787 17784,12789 17778,12814 17763,12846 17742,12887 17725,12917 17706,12944 17686,12967 17667,12986 17650,12998 17634,13003 Z"/>
         </g>
        </g>
        <g class="com.sun.star.drawing.ClosedBezierShape">
         <g id="id6">
          <rect class="BoundingBox" stroke="none" fill="none" x="17975" y="12544" width="449" height="294"/>
          <path fill="rgb(206,24,30)" stroke="none" d="M 18160,12824 C 18150,12827 18140,12824 18129,12814 18117,12802 18103,12775 18088,12734 18084,12757 18079,12778 18072,12797 18065,12819 18056,12832 18044,12836 18026,12839 18011,12822 17998,12785 L 17996,12781 C 17988,12752 17981,12724 17978,12697 17977,12690 17976,12684 17976,12679 17976,12675 17977,12672 17979,12668 17981,12665 17984,12663 17988,12662 17992,12661 17995,12661 17998,12663 18000,12665 18002,12667 18003,12670 18003,12671 18003,12671 18003,12672 18003,12677 18003,12683 18004,12688 18007,12712 18013,12737 18021,12764 L 18023,12771 C 18032,12796 18038,12808 18042,12808 18047,12805 18053,12784 18059,12746 18062,12733 18064,12717 18067,12696 18069,12685 18070,12677 18071,12672 18074,12665 18078,12661 18083,12659 18084,12659 18086,12659 18088,12659 18093,12660 18096,12663 18097,12667 L 18097,12668 C 18100,12678 18103,12687 18106,12696 18122,12748 18136,12780 18149,12791 18152,12794 18155,12796 18157,12795 18161,12793 18165,12786 18169,12775 18184,12732 18189,12661 18186,12562 18186,12558 18187,12555 18189,12551 18191,12548 18194,12546 18197,12545 18201,12544 18205,12544 18208,12546 18210,12548 18211,12550 18212,12552 18212,12553 18213,12554 18213,12555 L 18212,12556 18213,12562 C 18214,12571 18216,12580 18219,12589 18222,12598 18227,12610 18234,12623 18240,12636 18251,12648 18264,12658 18277,12669 18291,12676 18306,12678 18314,12679 18322,12678 18330,12676 18336,12674 18342,12671 18348,12667 18366,12655 18382,12629 18396,12590 18399,12584 18402,12581 18407,12579 18409,12579 18411,12579 18414,12579 18418,12581 18421,12583 18422,12587 18422,12588 18422,12588 18422,12589 18423,12591 18422,12594 18421,12597 18404,12643 18384,12675 18359,12691 18351,12697 18342,12702 18333,12704 18322,12708 18311,12709 18299,12707 18280,12704 18262,12696 18246,12683 18234,12673 18223,12660 18213,12646 18211,12706 18205,12751 18194,12782 18185,12805 18174,12819 18160,12824 Z"/>
         </g>
        </g>
        <g class="com.sun.star.drawing.ClosedBezierShape">
         <g id="id7">
          <rect class="BoundingBox" stroke="none" fill="none" x="18391" y="12407" width="575" height="307"/>
          <path fill="rgb(206,24,30)" stroke="none" d="M 18418,12676 C 18421,12667 18424,12660 18426,12653 18433,12632 18440,12610 18446,12589 L 18450,12574 C 18443,12557 18438,12549 18437,12550 18433,12552 18429,12560 18426,12575 18423,12589 18421,12604 18420,12621 18418,12646 18418,12664 18418,12676 Z M 18689,12708 C 18686,12709 18683,12709 18680,12708 18678,12706 18675,12702 18673,12694 18668,12679 18664,12651 18659,12611 18655,12585 18652,12553 18649,12513 18632,12564 18612,12605 18590,12634 18575,12652 18560,12664 18545,12669 18516,12678 18495,12659 18481,12612 18478,12604 18476,12595 18474,12585 L 18473,12588 C 18463,12622 18456,12646 18451,12659 18441,12691 18430,12708 18418,12712 18415,12712 18413,12712 18410,12712 18405,12710 18401,12704 18397,12694 18396,12688 18394,12682 18393,12674 18392,12659 18391,12642 18393,12623 18395,12602 18398,12582 18404,12563 18411,12539 18420,12526 18432,12522 18442,12519 18451,12523 18461,12535 L 18463,12529 C 18464,12525 18466,12521 18467,12517 18470,12512 18473,12508 18478,12506 18480,12506 18482,12506 18484,12506 18489,12508 18491,12511 18492,12514 18492,12515 18493,12516 18493,12516 18493,12526 18495,12536 18496,12547 18498,12569 18502,12586 18506,12600 18506,12601 18508,12606 18510,12614 18513,12622 18517,12629 18523,12635 18529,12640 18535,12642 18542,12640 18551,12638 18560,12630 18571,12617 18587,12596 18601,12569 18615,12534 18628,12500 18638,12463 18645,12423 18647,12415 18651,12410 18657,12408 18661,12407 18664,12408 18667,12410 18669,12412 18671,12414 18671,12416 18672,12417 18672,12418 18672,12419 L 18672,12420 C 18673,12466 18677,12519 18683,12578 L 18684,12589 C 18694,12510 18707,12458 18721,12434 18726,12424 18732,12419 18738,12416 L 18743,12416 C 18751,12415 18760,12424 18769,12443 18775,12453 18782,12465 18790,12478 18811,12509 18831,12527 18850,12530 18854,12530 18858,12530 18863,12528 18873,12525 18884,12518 18896,12505 18911,12488 18926,12462 18939,12425 18941,12419 18944,12415 18949,12414 18951,12413 18954,12413 18956,12414 18961,12415 18963,12418 18964,12422 18965,12422 18965,12423 18965,12424 18965,12426 18965,12429 18964,12431 18949,12473 18933,12504 18914,12524 18898,12541 18883,12552 18866,12557 18858,12559 18850,12560 18843,12559 18817,12555 18793,12536 18769,12500 18753,12475 18744,12459 18742,12451 L 18741,12449 C 18739,12454 18736,12460 18734,12468 18719,12514 18708,12589 18700,12692 18700,12695 18700,12698 18698,12701 18696,12705 18692,12707 18689,12708 Z"/>
         </g>
        </g>
        <g class="com.sun.star.drawing.ClosedBezierShape">
         <g id="id8">
          <rect class="BoundingBox" stroke="none" fill="none" x="18710" y="12046" width="563" height="724"/>
          <path fill="rgb(206,24,30)" stroke="none" d="M 19040,12766 L 19036,12767 C 19017,12773 19001,12757 18987,12718 L 18985,12710 C 18975,12676 18963,12610 18950,12512 18943,12453 18936,12364 18929,12246 L 18928,12246 C 18857,12277 18803,12299 18766,12310 18738,12318 18721,12319 18714,12313 18712,12311 18711,12309 18711,12308 L 18710,12304 C 18711,12294 18715,12288 18722,12286 18724,12285 18730,12285 18741,12286 18750,12284 18758,12282 18764,12280 18791,12272 18846,12250 18927,12215 18922,12139 18921,12093 18926,12077 18930,12060 18936,12050 18944,12048 L 18946,12047 C 18957,12044 18966,12054 18973,12076 18974,12081 18976,12087 18977,12094 18978,12099 18979,12105 18980,12111 18983,12135 18984,12161 18984,12189 19079,12148 19149,12121 19195,12106 19242,12092 19267,12089 19269,12098 L 19269,12099 C 19269,12099 19270,12099 19270,12100 19271,12102 19271,12103 19271,12106 19272,12113 19268,12119 19259,12124 19242,12126 19221,12130 19198,12137 19151,12152 19080,12180 18983,12222 18980,12269 18976,12313 18969,12354 18967,12363 18966,12369 18966,12373 18970,12422 18975,12473 18982,12525 18992,12602 19002,12659 19013,12696 19019,12714 19025,12727 19030,12735 19032,12736 19034,12736 19036,12736 L 19041,12734 C 19048,12732 19053,12736 19056,12745 L 19056,12746 C 19057,12752 19054,12758 19046,12763 19044,12765 19041,12766 19040,12766 Z M 18960,12195 C 18960,12173 18959,12154 18958,12138 18956,12127 18954,12116 18951,12107 18950,12103 18949,12100 18948,12096 18948,12125 18949,12158 18952,12197 L 18960,12195 Z M 18956,12307 C 18959,12281 18960,12256 18960,12235 L 18951,12237 C 18952,12259 18954,12283 18956,12307 Z"/>
         </g>
        </g>
        <g class="com.sun.star.drawing.ClosedBezierShape">
         <g id="id9">
          <rect class="BoundingBox" stroke="none" fill="none" x="19058" y="11940" width="563" height="724"/>
          <path fill="rgb(206,24,30)" stroke="none" d="M 19388,12660 L 19384,12661 C 19365,12667 19349,12651 19336,12612 L 19333,12604 C 19323,12570 19311,12504 19298,12407 19291,12347 19284,12258 19277,12140 L 19276,12140 C 19205,12171 19151,12193 19114,12204 19087,12213 19070,12213 19062,12207 19061,12205 19060,12203 19059,12202 L 19059,12198 C 19059,12188 19063,12182 19070,12180 19072,12180 19079,12179 19090,12180 19098,12178 19106,12176 19112,12174 19140,12166 19194,12144 19275,12109 19270,12033 19270,11987 19274,11971 19278,11954 19284,11945 19292,11942 L 19295,11941 C 19305,11938 19314,11948 19321,11970 19323,11976 19324,11981 19325,11988 19326,11993 19327,11999 19328,12005 19331,12029 19332,12055 19333,12083 19427,12042 19497,12015 19543,12001 19590,11986 19615,11983 19617,11992 L 19617,11993 C 19618,11993 19618,11993 19618,11995 19619,11996 19619,11998 19620,12000 19620,12007 19616,12013 19608,12018 19590,12020 19569,12024 19546,12032 19500,12046 19428,12074 19331,12116 19329,12163 19324,12207 19318,12248 19315,12257 19314,12264 19314,12267 19318,12317 19324,12367 19330,12419 19340,12497 19351,12554 19362,12590 19367,12608 19373,12621 19379,12629 19381,12630 19382,12631 19384,12630 L 19390,12628 C 19396,12626 19401,12630 19404,12639 L 19404,12640 C 19405,12646 19402,12652 19395,12658 19392,12659 19390,12660 19388,12660 Z M 19308,12089 C 19309,12067 19308,12048 19306,12032 19305,12021 19302,12010 19300,12001 19298,11997 19297,11994 19296,11990 19296,12019 19298,12053 19300,12091 L 19308,12089 Z M 19304,12201 C 19307,12175 19309,12151 19308,12129 L 19300,12131 C 19300,12154 19302,12177 19304,12201 Z"/>
         </g>
        </g>
        <g class="com.sun.star.drawing.ClosedBezierShape">
         <g id="id10">
          <rect class="BoundingBox" stroke="none" fill="none" x="19411" y="12202" width="253" height="223"/>
          <path fill="rgb(206,24,30)" stroke="none" d="M 19454,12210 L 19457,12209 C 19463,12207 19474,12211 19489,12222 L 19500,12235 C 19532,12248 19561,12251 19589,12242 L 19590,12242 C 19608,12237 19625,12224 19642,12205 19643,12204 19645,12203 19647,12202 L 19648,12202 C 19655,12202 19660,12204 19661,12209 L 19662,12211 19662,12214 C 19663,12224 19649,12239 19619,12259 19610,12265 19600,12269 19591,12271 L 19589,12272 C 19566,12279 19541,12279 19513,12271 19514,12278 19515,12283 19515,12287 19520,12325 19515,12360 19500,12392 19492,12408 19482,12417 19472,12420 L 19466,12422 C 19450,12427 19436,12419 19423,12396 19421,12392 19420,12387 19418,12382 19416,12376 19415,12369 19414,12363 L 19413,12355 C 19409,12319 19415,12286 19433,12254 19439,12245 19444,12239 19447,12237 19446,12235 19445,12233 19445,12232 L 19444,12230 C 19444,12221 19447,12214 19454,12210 Z M 19441,12351 C 19441,12358 19443,12365 19444,12371 19448,12383 19454,12390 19461,12393 19464,12393 19466,12393 19467,12392 19474,12390 19481,12377 19486,12354 19490,12333 19491,12314 19489,12296 19488,12287 19486,12280 19484,12273 19482,12267 19480,12262 19478,12258 19472,12254 19468,12253 19468,12253 19456,12262 19448,12277 19443,12298 19439,12316 19438,12333 19441,12351 Z"/>
         </g>
        </g>
        <g class="com.sun.star.drawing.ClosedBezierShape">
         <g id="id11">
          <rect class="BoundingBox" stroke="none" fill="none" x="16845" y="13457" width="573" height="695"/>
          <path fill="rgb(206,24,30)" stroke="none" d="M 17305,14149 C 17294,14152 17285,14151 17275,14144 17262,14135 17251,14119 17242,14094 17239,14086 17236,14078 17233,14069 17227,14048 17220,14021 17214,13986 17207,13951 17201,13910 17196,13861 17193,13840 17191,13819 17188,13797 17188,13809 17187,13830 17185,13861 17186,13862 17187,13864 17187,13865 17188,13866 17188,13867 17188,13868 17189,13873 17187,13877 17184,13882 17176,13992 17163,14057 17145,14075 17140,14080 17136,14082 17132,14084 17123,14086 17115,14083 17109,14074 17106,14069 17103,14063 17101,14056 17098,14047 17096,14037 17095,14025 17094,14015 17093,14006 17093,13996 17069,14037 17045,14061 17020,14069 L 17016,14070 C 17000,14075 16984,14071 16970,14057 16956,14046 16945,14024 16935,13991 16933,13986 16932,13981 16930,13976 L 16928,13982 C 16921,14009 16913,14035 16905,14060 16895,14091 16884,14108 16872,14112 16869,14113 16866,14113 16864,14112 16858,14111 16854,14105 16851,14095 16850,14090 16848,14083 16847,14075 16846,14060 16845,14043 16847,14024 16848,14002 16852,13982 16857,13963 16864,13940 16874,13926 16886,13922 16896,13919 16905,13924 16915,13935 L 16921,13918 C 16923,13912 16927,13908 16932,13907 16934,13906 16936,13906 16938,13907 16942,13908 16945,13911 16946,13915 L 16947,13917 C 16951,13942 16955,13963 16960,13979 16962,13985 16964,13990 16965,13994 16979,14031 16995,14047 17014,14042 L 17016,14041 C 17025,14038 17034,14032 17043,14021 17070,13990 17089,13952 17100,13907 17100,13906 17100,13905 17101,13904 17106,13883 17113,13867 17122,13856 17128,13849 17134,13845 17141,13843 17147,13841 17154,13841 17161,13844 17164,13767 17166,13694 17166,13624 17167,13539 17167,13489 17166,13474 17166,13471 17167,13467 17170,13464 17172,13461 17174,13459 17178,13458 17182,13457 17186,13457 17189,13459 17190,13461 17192,13463 17193,13465 L 17193,13468 17194,13471 C 17194,13512 17197,13567 17202,13639 17207,13710 17214,13782 17222,13853 17228,13900 17234,13944 17242,13984 17247,14013 17253,14037 17259,14057 17269,14090 17280,14110 17291,14118 17295,14121 17298,14121 17302,14120 17308,14118 17316,14109 17325,14093 17349,14049 17370,13962 17389,13832 17391,13825 17395,13820 17401,13818 17402,13818 17403,13818 17405,13818 17410,13819 17414,13821 17415,13826 L 17416,13828 C 17416,13830 17416,13831 17416,13832 17396,13967 17374,14058 17347,14105 17334,14130 17320,14144 17305,14149 Z M 17131,14053 C 17144,14035 17153,13977 17159,13878 17153,13873 17148,13871 17144,13872 17142,13873 17141,13873 17140,13875 17134,13881 17130,13892 17126,13907 17126,13908 17126,13908 17126,13909 17126,13910 17126,13911 17125,13912 17125,13913 17125,13914 17124,13915 17122,13931 17120,13948 17119,13965 17119,13985 17119,14003 17121,14018 17122,14027 17124,14035 17126,14042 17127,14046 17129,14050 17131,14053 Z M 16874,14066 C 16875,14065 16876,14064 16877,14062 16878,14059 16879,14057 16880,14054 16881,14051 16882,14048 16882,14047 L 16882,14046 C 16889,14026 16895,14005 16901,13984 L 16904,13974 C 16896,13958 16892,13950 16890,13950 16886,13954 16882,13962 16880,13976 16876,13992 16874,14011 16873,14033 16872,14048 16871,14058 16872,14062 16872,14063 16872,14064 16872,14064 16872,14065 16873,14066 16873,14066 L 16874,14066 Z"/>
         </g>
        </g>
        <g class="com.sun.star.drawing.ClosedBezierShape">
         <g id="id12">
          <rect class="BoundingBox" stroke="none" fill="none" x="17383" y="13368" width="325" height="695"/>
          <path fill="rgb(206,24,30)" stroke="none" d="M 17596,14060 C 17585,14063 17576,14062 17567,14055 17553,14047 17542,14030 17533,14005 17530,13998 17527,13990 17524,13981 17518,13961 17512,13934 17506,13901 17499,13868 17493,13826 17487,13777 17484,13753 17482,13730 17479,13708 17478,13730 17477,13751 17476,13772 17477,13774 17478,13775 17479,13777 L 17479,13779 C 17480,13783 17478,13788 17475,13793 L 17474,13793 C 17467,13903 17454,13968 17435,13987 17431,13991 17426,13994 17422,13995 17414,13997 17406,13994 17400,13985 17397,13980 17394,13973 17391,13966 17389,13957 17387,13947 17385,13935 17383,13918 17383,13900 17383,13880 17384,13857 17387,13835 17392,13814 17397,13793 17404,13778 17413,13766 17419,13760 17425,13756 17432,13754 17438,13752 17445,13752 17452,13754 17455,13675 17457,13599 17458,13527 17458,13455 17458,13409 17458,13389 L 17458,13386 C 17458,13382 17459,13378 17461,13375 17463,13372 17466,13370 17469,13369 17473,13368 17477,13368 17479,13370 17481,13372 17483,13374 17484,13376 17484,13377 17484,13378 17484,13379 L 17485,13382 C 17485,13422 17488,13478 17493,13548 17498,13618 17504,13691 17513,13764 17519,13811 17525,13855 17533,13895 17538,13924 17544,13948 17550,13968 17560,14001 17571,14021 17583,14029 17586,14032 17589,14033 17593,14031 17600,14029 17607,14020 17616,14004 17640,13960 17662,13873 17680,13743 17682,13736 17686,13731 17691,13729 17696,13728 17700,13729 17703,13732 17705,13733 17706,13735 17706,13737 L 17707,13739 C 17707,13740 17707,13742 17707,13743 17687,13877 17665,13968 17639,14016 17625,14041 17611,14055 17596,14060 Z M 17421,13964 C 17435,13946 17444,13888 17450,13789 17444,13784 17439,13782 17435,13783 17433,13783 17432,13784 17431,13785 17425,13793 17420,13805 17416,13822 17413,13838 17411,13857 17410,13877 17410,13897 17410,13915 17412,13930 17413,13939 17414,13946 17416,13952 17418,13957 17419,13961 17421,13964 Z"/>
         </g>
        </g>
        <g class="com.sun.star.drawing.ClosedBezierShape">
         <g id="id13">
          <rect class="BoundingBox" stroke="none" fill="none" x="17663" y="13643" width="333" height="247"/>
          <path fill="rgb(206,24,30)" stroke="none" d="M 17681,13651 C 17689,13649 17697,13656 17704,13673 L 17704,13675 C 17705,13678 17706,13679 17707,13678 17715,13678 17722,13676 17730,13674 L 17732,13673 C 17746,13669 17765,13660 17790,13645 L 17792,13645 C 17799,13643 17804,13645 17808,13653 L 17808,13656 C 17809,13658 17807,13673 17803,13701 17797,13752 17796,13790 17800,13814 17801,13820 17802,13824 17803,13829 17808,13844 17815,13853 17823,13856 17826,13856 17829,13856 17833,13855 L 17835,13855 C 17858,13848 17886,13815 17920,13758 17936,13728 17951,13694 17966,13655 17969,13650 17972,13647 17977,13645 L 17978,13645 C 17984,13643 17989,13646 17993,13652 L 17994,13656 17995,13658 C 17995,13662 17988,13681 17973,13716 17967,13734 17950,13764 17925,13806 17894,13851 17866,13877 17842,13885 L 17839,13886 C 17814,13893 17795,13883 17780,13856 17778,13851 17776,13847 17775,13842 17774,13837 17773,13833 17772,13829 L 17771,13821 C 17765,13791 17766,13747 17774,13688 17761,13696 17749,13701 17739,13704 17725,13708 17716,13710 17711,13710 17698,13712 17688,13711 17680,13706 17672,13700 17667,13694 17665,13687 L 17664,13685 17664,13680 C 17662,13669 17666,13660 17676,13653 L 17681,13651 Z"/>
         </g>
        </g>
        <g class="com.sun.star.drawing.ClosedBezierShape">
         <g id="id14">
          <rect class="BoundingBox" stroke="none" fill="none" x="17966" y="13578" width="238" height="235"/>
          <path fill="rgb(206,24,30)" stroke="none" d="M 17993,13687 C 18006,13657 18012,13634 18010,13618 18009,13616 18009,13614 18008,13613 L 18008,13610 C 18005,13613 18003,13618 18000,13625 17994,13643 17992,13663 17993,13687 Z M 18052,13810 C 18049,13810 18047,13811 18045,13811 18027,13814 18012,13808 18000,13796 17990,13785 17981,13770 17976,13751 17972,13740 17970,13727 17968,13713 17966,13697 17966,13680 17967,13663 17968,13646 17971,13632 17975,13619 17983,13597 17993,13585 18006,13581 18013,13579 18019,13580 18025,13585 18029,13588 18032,13593 18034,13600 18035,13602 18035,13604 18036,13606 L 18036,13609 C 18037,13621 18036,13637 18030,13658 18025,13678 18015,13703 18000,13731 L 18002,13740 C 18007,13754 18013,13765 18021,13774 18029,13782 18038,13784 18050,13781 18060,13778 18072,13769 18086,13754 18104,13733 18121,13709 18136,13681 18157,13643 18170,13613 18176,13591 18179,13585 18182,13581 18187,13579 18189,13579 18191,13579 18193,13579 18198,13580 18201,13583 18202,13587 L 18203,13589 C 18203,13591 18203,13593 18202,13595 18195,13620 18181,13653 18159,13693 18143,13724 18124,13751 18103,13774 18085,13793 18068,13805 18052,13810 Z"/>
         </g>
        </g>
        <g class="com.sun.star.drawing.ClosedBezierShape">
         <g id="id15">
          <rect class="BoundingBox" stroke="none" fill="none" x="18175" y="13432" width="394" height="410"/>
          <path fill="rgb(206,24,30)" stroke="none" d="M 18209,13811 C 18214,13809 18221,13804 18229,13796 18243,13783 18254,13766 18264,13744 18273,13723 18277,13706 18275,13692 18275,13689 18275,13687 18274,13685 18243,13725 18221,13758 18209,13786 18204,13797 18202,13804 18202,13808 L 18202,13810 C 18203,13810 18203,13810 18203,13811 18203,13811 18204,13811 18205,13811 18206,13811 18207,13811 18209,13811 Z M 18395,13700 C 18396,13701 18396,13701 18396,13701 L 18398,13701 C 18407,13698 18418,13687 18431,13666 18443,13643 18448,13625 18447,13612 18439,13621 18427,13639 18408,13668 18400,13684 18396,13695 18395,13700 Z M 18372,13529 C 18371,13528 18371,13525 18371,13523 L 18371,13522 C 18367,13497 18383,13469 18417,13438 18421,13435 18423,13434 18424,13433 L 18427,13432 C 18434,13432 18438,13435 18440,13439 L 18440,13441 18440,13443 C 18441,13450 18436,13457 18426,13464 18405,13485 18395,13501 18396,13514 L 18397,13516 18397,13517 C 18399,13525 18410,13535 18430,13547 18444,13557 18452,13563 18453,13565 L 18453,13565 C 18488,13526 18517,13497 18541,13477 18547,13473 18550,13471 18553,13470 L 18554,13470 C 18559,13468 18563,13471 18567,13477 L 18567,13481 C 18568,13487 18562,13495 18549,13504 18527,13523 18504,13546 18478,13574 L 18468,13586 C 18469,13589 18470,13591 18471,13593 18472,13596 18472,13598 18472,13600 L 18473,13605 C 18476,13624 18469,13648 18453,13678 18435,13706 18419,13722 18402,13727 L 18400,13728 C 18387,13732 18378,13727 18372,13715 18371,13714 18371,13713 18371,13712 L 18370,13707 C 18368,13686 18389,13646 18435,13587 18430,13583 18419,13575 18401,13562 18395,13559 18391,13555 18386,13551 18354,13588 18324,13624 18296,13658 18297,13661 18299,13664 18299,13667 18301,13671 18302,13676 18302,13681 18304,13693 18302,13708 18298,13725 18295,13735 18292,13744 18288,13753 18276,13779 18262,13801 18246,13816 18234,13828 18222,13836 18211,13839 18204,13842 18197,13842 18192,13839 18184,13836 18179,13831 18177,13823 18177,13821 18176,13819 18176,13817 18175,13806 18177,13793 18184,13777 18193,13756 18208,13732 18227,13705 18237,13690 18249,13675 18261,13660 18251,13649 18240,13640 18226,13632 L 18224,13631 C 18211,13622 18199,13612 18189,13602 L 18188,13600 C 18185,13595 18182,13590 18180,13585 18179,13582 18179,13578 18178,13575 18178,13567 18178,13558 18181,13547 18186,13529 18199,13507 18223,13483 18236,13470 18244,13464 18248,13463 18253,13461 18257,13463 18261,13467 18261,13468 18262,13469 18262,13470 18263,13471 18263,13472 18263,13473 18263,13478 18261,13483 18257,13488 18250,13493 18244,13498 18239,13504 18221,13522 18210,13539 18206,13552 18205,13557 18205,13562 18205,13567 18205,13568 18206,13570 18206,13571 18207,13574 18208,13576 18209,13578 18210,13579 18210,13580 18211,13580 18219,13589 18230,13598 18243,13606 L 18245,13608 C 18258,13616 18270,13626 18281,13636 18309,13603 18340,13568 18372,13529 Z"/>
         </g>
        </g>
        <g class="com.sun.star.drawing.ClosedBezierShape">
         <g id="id16">
          <rect class="BoundingBox" stroke="none" fill="none" x="18588" y="12994" width="887" height="612"/>
          <path fill="rgb(206,24,30)" stroke="none" d="M 18836,13574 C 18839,13573 18842,13570 18845,13565 18858,13546 18870,13516 18882,13475 18894,13434 18905,13388 18915,13336 18926,13282 18934,13228 18941,13176 L 18793,13221 C 18795,13281 18792,13345 18783,13413 18783,13414 18783,13415 18782,13417 18789,13457 18796,13491 18805,13519 L 18805,13521 C 18814,13548 18822,13565 18832,13573 18833,13574 18835,13574 18836,13574 Z M 18840,13604 C 18832,13606 18823,13604 18815,13598 18802,13587 18790,13565 18780,13531 18777,13523 18773,13504 18765,13474 18758,13444 18751,13399 18743,13339 18739,13303 18736,13270 18734,13239 L 18604,13278 C 18600,13280 18597,13279 18594,13277 18592,13275 18590,13273 18589,13271 L 18589,13268 C 18588,13264 18589,13261 18591,13257 18594,13253 18597,13251 18600,13250 L 18732,13210 C 18729,13163 18728,13123 18729,13090 18730,13058 18733,13038 18739,13030 18742,13026 18745,13024 18748,13023 18753,13022 18757,13023 18762,13027 18766,13032 18770,13040 18773,13050 18778,13067 18782,13090 18786,13120 18788,13142 18790,13165 18792,13192 L 18945,13145 C 18948,13118 18950,13092 18952,13069 18951,13039 18952,13019 18954,13009 18956,13002 18960,12997 18965,12995 18969,12994 18973,12995 18975,12997 18977,12998 18979,13001 18980,13003 18980,13004 18980,13005 18980,13006 18981,13019 18980,13040 18978,13069 18979,13088 18980,13110 18981,13134 L 19165,13078 C 19169,13077 19172,13078 19175,13079 19177,13081 19179,13083 19180,13086 19180,13087 19180,13088 19180,13089 19181,13092 19180,13096 19178,13100 19175,13103 19172,13106 19169,13107 L 18983,13163 C 18987,13221 18992,13274 18998,13324 19002,13352 19005,13378 19009,13403 19014,13378 19019,13357 19024,13340 19040,13294 19057,13268 19077,13262 19080,13261 19084,13260 19088,13261 19092,13262 19096,13265 19100,13271 19103,13277 19107,13284 19111,13293 19117,13307 19126,13322 19136,13338 19145,13354 19157,13367 19170,13376 19180,13382 19191,13383 19203,13380 19222,13374 19244,13353 19267,13316 19265,13308 19263,13299 19262,13291 19259,13268 19260,13248 19263,13232 19266,13218 19270,13207 19276,13200 19281,13192 19287,13188 19294,13186 19298,13185 19302,13184 19306,13185 19314,13188 19320,13195 19324,13207 L 19325,13209 19326,13215 C 19327,13226 19326,13239 19322,13256 19318,13273 19310,13292 19298,13315 L 19297,13316 C 19302,13330 19309,13341 19318,13349 19326,13357 19334,13361 19344,13361 19347,13361 19350,13361 19353,13360 19360,13358 19367,13354 19374,13347 19399,13325 19424,13277 19448,13204 19450,13198 19454,13195 19459,13193 19461,13193 19463,13192 19465,13193 19469,13194 19472,13197 19473,13201 19474,13202 19474,13202 19474,13203 19474,13205 19474,13208 19473,13210 19447,13289 19420,13342 19389,13368 19378,13378 19367,13385 19357,13388 19351,13390 19345,13391 19339,13391 19314,13390 19294,13375 19278,13345 19253,13381 19229,13402 19206,13409 19188,13415 19171,13412 19155,13402 19139,13392 19126,13378 19115,13360 19104,13343 19094,13326 19087,13311 19085,13306 19083,13302 19082,13297 L 19081,13295 C 19080,13292 19080,13291 19079,13290 19077,13291 19074,13294 19070,13300 19063,13309 19056,13325 19050,13346 19039,13378 19031,13424 19026,13484 19026,13488 19025,13491 19024,13493 19022,13497 19018,13500 19014,13501 19011,13502 19008,13501 19006,13500 19003,13499 19001,13496 19000,13493 18990,13457 18980,13403 18972,13332 18967,13298 18964,13269 18962,13243 L 18961,13224 C 18946,13325 18928,13412 18906,13484 18884,13557 18862,13597 18840,13604 Z M 18766,13292 C 18766,13271 18766,13250 18766,13229 L 18760,13231 C 18762,13251 18764,13271 18766,13292 Z M 18765,13200 L 18765,13198 C 18763,13167 18761,13140 18758,13117 18757,13104 18755,13093 18753,13083 18753,13112 18754,13152 18758,13202 L 18765,13200 Z M 19288,13277 C 19293,13265 19296,13254 19298,13246 19300,13237 19300,13229 19299,13224 L 19299,13220 19298,13218 C 19297,13216 19297,13214 19296,13214 L 19296,13215 C 19296,13215 19296,13216 19296,13216 19293,13220 19290,13227 19289,13237 19287,13247 19287,13261 19288,13277 Z"/>
         </g>
        </g>
        <g class="com.sun.star.drawing.ClosedBezierShape">
         <g id="id17">
          <rect class="BoundingBox" stroke="none" fill="none" x="19443" y="13076" width="252" height="381"/>
          <path fill="rgb(206,24,30)" stroke="none" d="M 19479,13454 C 19471,13456 19465,13456 19460,13454 19452,13451 19448,13446 19445,13438 19445,13436 19444,13434 19444,13432 19442,13421 19445,13408 19452,13392 19461,13371 19475,13347 19495,13320 19505,13305 19516,13290 19529,13275 19519,13264 19507,13254 19494,13247 L 19492,13245 C 19479,13237 19467,13227 19457,13216 L 19456,13215 C 19453,13210 19450,13205 19448,13199 19448,13196 19447,13193 19446,13190 19445,13182 19446,13172 19449,13162 19453,13143 19467,13122 19491,13098 19504,13085 19512,13078 19515,13077 19521,13076 19525,13077 19528,13082 19529,13083 19530,13084 19530,13085 19530,13086 19530,13086 19530,13087 19531,13093 19529,13098 19524,13102 19518,13108 19512,13113 19507,13118 19488,13137 19478,13153 19474,13167 19473,13172 19472,13177 19473,13181 19473,13183 19473,13184 19474,13186 19475,13188 19476,13191 19477,13193 19477,13194 19478,13194 19479,13195 19487,13204 19498,13213 19511,13221 L 19513,13222 C 19526,13231 19538,13240 19549,13251 19590,13203 19632,13162 19674,13128 19675,13127 19677,13126 19678,13126 19684,13124 19688,13126 19692,13131 L 19693,13133 19694,13136 C 19694,13141 19692,13147 19687,13152 19645,13185 19604,13225 19564,13273 19565,13276 19566,13279 19567,13282 19569,13286 19570,13291 19570,13295 19572,13308 19570,13323 19566,13340 19563,13349 19560,13359 19556,13368 19544,13394 19530,13415 19514,13431 19501,13443 19490,13451 19479,13454 Z M 19477,13426 C 19482,13424 19489,13419 19497,13411 19510,13398 19522,13381 19532,13359 19541,13338 19545,13321 19543,13306 19543,13304 19542,13302 19542,13300 19510,13339 19489,13373 19477,13400 19472,13411 19470,13419 19470,13423 L 19470,13424 C 19470,13425 19471,13425 19471,13425 19471,13426 19472,13426 19473,13426 19474,13426 19475,13426 19477,13426 Z"/>
         </g>
        </g>
        <g class="com.sun.star.drawing.ClosedBezierShape">
         <g id="id18">
          <rect class="BoundingBox" stroke="none" fill="none" x="19667" y="13061" width="238" height="235"/>
          <path fill="rgb(206,24,30)" stroke="none" d="M 19694,13170 C 19707,13140 19713,13117 19711,13101 19710,13099 19710,13097 19709,13096 L 19709,13093 C 19707,13095 19704,13100 19701,13108 19696,13126 19693,13146 19694,13170 Z M 19753,13292 C 19750,13293 19748,13294 19746,13294 19728,13296 19713,13291 19702,13279 19691,13267 19683,13252 19677,13234 19673,13222 19671,13210 19669,13196 19667,13179 19667,13163 19668,13146 19669,13129 19672,13114 19676,13102 19684,13080 19694,13068 19707,13064 19714,13062 19720,13063 19726,13067 19730,13071 19733,13076 19735,13083 19736,13085 19737,13087 19737,13089 L 19737,13092 C 19739,13104 19737,13120 19732,13140 19727,13161 19716,13186 19701,13214 L 19703,13223 C 19708,13237 19714,13248 19722,13256 19730,13265 19739,13267 19751,13264 19761,13261 19773,13252 19787,13237 19806,13216 19822,13192 19837,13164 19858,13126 19871,13096 19877,13074 19880,13068 19883,13064 19888,13062 19890,13062 19892,13061 19894,13062 19899,13063 19902,13066 19903,13070 L 19904,13072 C 19904,13074 19904,13076 19903,13078 19896,13103 19882,13136 19860,13176 19844,13207 19825,13233 19804,13256 19786,13276 19769,13288 19753,13292 Z"/>
         </g>
        </g>
        <g class="com.sun.star.drawing.ClosedBezierShape">
         <g id="id19">
          <rect class="BoundingBox" stroke="none" fill="none" x="19893" y="12638" width="115" height="766"/>
          <path fill="rgb(206,24,30)" stroke="none" d="M 19971,13266 C 19967,13267 19964,13267 19961,13265 19959,13263 19957,13261 19956,13258 L 19956,13257 C 19944,13184 19932,13096 19919,12993 19909,12908 19901,12830 19896,12759 19893,12727 19893,12702 19893,12683 19894,12657 19899,12643 19910,12640 19916,12638 19920,12639 19924,12643 19926,12644 19927,12646 19928,12648 19928,12649 19929,12650 19929,12651 19929,12655 19928,12659 19925,12663 19924,12665 19922,12666 19922,12668 19919,12673 19919,12701 19922,12752 19928,12824 19936,12903 19947,12988 19959,13090 19971,13177 19982,13248 19983,13252 19982,13255 19980,13259 19978,13262 19975,13265 19971,13266 Z M 19989,13402 C 19983,13403 19978,13402 19973,13398 19970,13395 19968,13391 19966,13387 19966,13385 19966,13384 19965,13382 19964,13373 19967,13366 19974,13359 19975,13358 19976,13357 19978,13357 19980,13354 19982,13353 19984,13352 19987,13351 19990,13352 19992,13353 19999,13356 20004,13360 20006,13367 20006,13368 20006,13370 20007,13372 20007,13374 20007,13377 20006,13380 20006,13384 20004,13389 20001,13392 19998,13397 19994,13400 19989,13402 Z"/>
         </g>
        </g>
       </g>
      </g>
     </g>
    </g>
   </g>
  </g>
 </g>
</svg>